<?xml version="1.0" encoding="UTF-8" standalone="no" ?>
<!DOCTYPE svg PUBLIC "-//W3C//DTD SVG 1.1//EN" "http://www.w3.org/Graphics/SVG/1.1/DTD/svg11.dtd">
<svg xmlns="http://www.w3.org/2000/svg" xmlns:xlink="http://www.w3.org/1999/xlink" version="1.1" width="1080"
  height="1080" viewBox="0 0 1080 1080" xml:space="preserve">
  <desc>Created with Fabric.js 5.2.4</desc>
  <defs>
  </defs>
  <g transform="matrix(1 0 0 1 540 540)" id="3c27de5d-55c3-47bf-825f-e617cf457600">
  </g>
  <g transform="matrix(1 0 0 1 540 540)" id="3dc3f93d-9a54-4423-9d6d-e13e96adeedd">
    <rect
      style="stroke: none; stroke-width: 1; stroke-dasharray: none; stroke-linecap: butt; stroke-dashoffset: 0; stroke-linejoin: miter; stroke-miterlimit: 4; fill: rgb(255,255,255); fill-rule: nonzero; opacity: 1; visibility: hidden;"
      vector-effect="non-scaling-stroke" x="-540" y="-540" rx="0" ry="0" width="1080" height="1080" />
  </g>
  <g transform="matrix(1 0 0 1 493.46 322.98)">
    <path
      style="stroke: none; stroke-width: 1; stroke-dasharray: none; stroke-linecap: butt; stroke-dashoffset: 0; stroke-linejoin: miter; stroke-miterlimit: 4; fill: rgb(240,240,240); fill-rule: nonzero; opacity: 1;"
      vector-effect="non-scaling-stroke" transform=" translate(-574.75, -247.91)"
      d="M 862.717 234.906 L 286.777 234.906 C 280.13712478698943 234.9159127439263 274.7569127439263 240.29612478698945 274.747 246.936 L 274.747 248.876 C 274.7569127439263 255.51587521301056 280.13712478698943 260.8960872560737 286.777 260.906 L 862.717 260.906 C 869.3568752130105 260.8960872560737 874.7370872560737 255.51587521301056 874.747 248.876 L 874.747 246.936 C 874.7370872560737 240.29612478698945 869.3568752130105 234.9159127439263 862.717 234.906 Z"
      stroke-linecap="round" />
  </g>
  <g transform="matrix(1 0 0 1 247.52 323.15)">
    <path
      style="stroke: none; stroke-width: 1; stroke-dasharray: none; stroke-linecap: butt; stroke-dashoffset: 0; stroke-linejoin: miter; stroke-miterlimit: 4; fill: rgb(255,255,255); fill-rule: nonzero; opacity: 1;"
      vector-effect="non-scaling-stroke" transform=" translate(-328.81, -248.08)"
      d="M 356.28234 252.70618 L 301.45945 252.70618 C 298.90532380920666 252.70242614869713 296.83678401903575 250.6308439493477 296.83678401903575 248.07671499999998 C 296.83678401903575 245.52258605065228 298.90532380920666 243.4510038513029 301.45945 243.44725 L 356.28234 243.44725 C 362.25257 243.36392 362.31228 252.79027 356.28234 252.70618 Z"
      stroke-linecap="round" />
  </g>
  <g transform="matrix(1 0 0 1 411.52 323.15)">
    <path
      style="stroke: none; stroke-width: 1; stroke-dasharray: none; stroke-linecap: butt; stroke-dashoffset: 0; stroke-linejoin: miter; stroke-miterlimit: 4; fill: rgb(255,255,255); fill-rule: nonzero; opacity: 1;"
      vector-effect="non-scaling-stroke" transform=" translate(-492.81, -248.08)"
      d="M 520.28234 252.70618 L 465.45945 252.70618 C 462.90532380920666 252.70242614869713 460.83678401903575 250.6308439493477 460.83678401903575 248.07671499999998 C 460.83678401903575 245.52258605065228 462.90532380920666 243.4510038513029 465.45945 243.44725 L 520.28234 243.44725 C 526.25257 243.36392 526.31228 252.79027 520.28234 252.70618 Z"
      stroke-linecap="round" />
  </g>
  <g transform="matrix(1 0 0 1 575.52 323.15)">
    <path
      style="stroke: none; stroke-width: 1; stroke-dasharray: none; stroke-linecap: butt; stroke-dashoffset: 0; stroke-linejoin: miter; stroke-miterlimit: 4; fill: rgb(255,255,255); fill-rule: nonzero; opacity: 1;"
      vector-effect="non-scaling-stroke" transform=" translate(-656.81, -248.08)"
      d="M 684.28234 252.70618 L 629.45945 252.70618 C 626.9053238092066 252.70242614869713 624.8367840190357 250.6308439493477 624.8367840190357 248.07671499999998 C 624.8367840190357 245.52258605065228 626.9053238092066 243.4510038513029 629.45945 243.44725 L 684.28234 243.44725 C 690.25257 243.36392 690.31228 252.79027 684.28234 252.70618 Z"
      stroke-linecap="round" />
  </g>
  <g transform="matrix(1 0 0 1 731.03 323.65)">
    <path
      style="stroke: none; stroke-width: 1; stroke-dasharray: none; stroke-linecap: butt; stroke-dashoffset: 0; stroke-linejoin: miter; stroke-miterlimit: 4; fill: rgb(108,99,255); fill-rule: nonzero; opacity: 1;"
      vector-effect="non-scaling-stroke" transform=" translate(-812.31, -248.58)"
      d="M 839.78234 253.20618 L 784.95945 253.20618 C 782.4026670806245 253.20618 780.329985 251.1334979193754 780.329985 248.57671499999998 C 780.329985 246.01993208062459 782.4026670806245 243.94725 784.95945 243.94725 L 839.78234 243.94725 C 845.75257 243.86392 845.81228 253.29027 839.78234 253.20618 Z"
      stroke-linecap="round" />
  </g>
  <g transform="matrix(1 0 0 1 671.96 322.98)">
    <rect
      style="stroke: none; stroke-width: 1; stroke-dasharray: none; stroke-linecap: butt; stroke-dashoffset: 0; stroke-linejoin: miter; stroke-miterlimit: 4; fill: rgb(255,255,255); fill-rule: nonzero; opacity: 1;"
      vector-effect="non-scaling-stroke" x="-1" y="-13" rx="0" ry="0" width="2" height="26" />
  </g>
  <g transform="matrix(1 0 0 1 348.49 669.67)">
    <path
      style="stroke: none; stroke-width: 1; stroke-dasharray: none; stroke-linecap: butt; stroke-dashoffset: 0; stroke-linejoin: miter; stroke-miterlimit: 4; fill: rgb(240,240,240); fill-rule: nonzero; opacity: 1;"
      vector-effect="non-scaling-stroke" transform=" translate(-429.77, -594.61)"
      d="M 547.2921 619.71843 L 312.239 619.71843 C 307.8782450889226 619.7133877710805 304.3444122289194 616.1795549110774 304.33937 611.8188 L 304.33937 577.39342 C 304.3444122180464 573.0326634649348 307.8782434713211 569.4988277382464 312.239 569.49378 L 547.2921 569.49378 C 551.6528581526677 569.4988277273686 555.1866922726314 573.0326618473323 555.19174 577.39342 L 555.19174 611.8188 C 555.1866922617536 616.1795565286789 551.6528565350652 619.7133877819535 547.2921 619.71843 Z"
      stroke-linecap="round" />
  </g>
  <g transform="matrix(1 0 0 1 348.49 669.68)">
    <path
      style="stroke: none; stroke-width: 1; stroke-dasharray: none; stroke-linecap: butt; stroke-dashoffset: 0; stroke-linejoin: miter; stroke-miterlimit: 4; fill: rgb(255,255,255); fill-rule: nonzero; opacity: 1;"
      vector-effect="non-scaling-stroke" transform=" translate(-429.77, -594.61)"
      d="M 524.45379 614.39 L 317.56867 614.39 C 313.20791184733235 614.3849522726314 309.67407772736857 610.8511181526677 309.66903 606.49036 L 309.66903 582.72606 C 309.67407772736857 578.3653018473323 313.20791184733235 574.8314677273686 317.56867 574.82642 L 541.96367 574.82642 C 546.3244304339212 574.8314622289336 549.8582677710664 578.3652995660788 549.86331 582.72606 L 549.86331 588.98047 C 549.84752662013 603.0072191241608 538.4805391179482 614.3742110998579 524.45379 614.39 Z"
      stroke-linecap="round" />
  </g>
  <g transform="matrix(1 0 0 1 324.57 665.19)">
    <path
      style="stroke: none; stroke-width: 1; stroke-dasharray: none; stroke-linecap: butt; stroke-dashoffset: 0; stroke-linejoin: miter; stroke-miterlimit: 4; fill: rgb(230,230,230); fill-rule: nonzero; opacity: 1;"
      vector-effect="non-scaling-stroke" transform=" translate(-405.85, -590.12)"
      d="M 453.09041 592.15716 L 358.617 592.15716 C 357.49181923347476 592.15716 356.57968 591.2450207665253 356.57968 590.11984 C 356.57968 588.9946592334746 357.49181923347476 588.0825199999999 358.617 588.0825199999999 L 453.09042 588.0825199999999 C 454.21560076652526 588.0825199999999 455.12774 588.9946592334746 455.12774 590.11984 C 455.12774 591.2450207665253 454.21560076652526 592.15716 453.09042 592.15716 Z"
      stroke-linecap="round" />
  </g>
  <g transform="matrix(1 0 0 1 348.48 673.53)">
    <path
      style="stroke: none; stroke-width: 1; stroke-dasharray: none; stroke-linecap: butt; stroke-dashoffset: 0; stroke-linejoin: miter; stroke-miterlimit: 4; fill: rgb(230,230,230); fill-rule: nonzero; opacity: 1;"
      vector-effect="non-scaling-stroke" transform=" translate(-429.76, -598.45)"
      d="M 500.91452 600.48987 L 358.617 600.48987 C 357.88805872319176 600.4914849632795 357.2137971823327 600.1035265893097 356.8488595487513 599.4725127093219 C 356.48392191516984 598.8414988293342 356.48392191516984 598.0635911706657 356.8488595487513 597.4325772906781 C 357.2137971823327 596.8015634106903 357.88805872319176 596.4136050367205 358.617 596.41522 L 500.91452 596.41522 C 502.0379412346675 596.4177089303146 502.9473363235652 597.3291210082338 502.9473363235652 598.452545 C 502.9473363235652 599.5759689917662 502.0379412346675 600.4873810696854 500.91452 600.48987 Z"
      stroke-linecap="round" />
  </g>
  <g transform="matrix(1 0 0 1 347.02 494.68)">
    <path
      style="stroke: none; stroke-width: 1; stroke-dasharray: none; stroke-linecap: butt; stroke-dashoffset: 0; stroke-linejoin: miter; stroke-miterlimit: 4; fill: rgb(255,255,255); fill-rule: nonzero; opacity: 1;"
      vector-effect="non-scaling-stroke" transform=" translate(-428.3, -419.61)"
      d="M 562.307 530.10611 L 294.29691 530.10611 C 289.84408640108956 530.1010345473901 286.23562545260984 526.4925735989104 286.23055000000005 522.0397499999999 L 286.23055000000005 317.17217 C 286.2356477673787 312.7194042414527 289.84414405493527 309.11104215927327 294.29691 309.10611 L 562.307 309.10611 C 566.7597659450648 309.11104215927327 570.3682622326214 312.71940424145265 570.37336 317.17217 L 570.37336 522.03975 C 570.3682845473902 526.4925735989104 566.7598235989104 530.1010345473901 562.307 530.10611 Z"
      stroke-linecap="round" />
  </g>
  <g transform="matrix(1 0 0 1 347.02 494.68)">
    <path
      style="stroke: none; stroke-width: 1; stroke-dasharray: none; stroke-linecap: butt; stroke-dashoffset: 0; stroke-linejoin: miter; stroke-miterlimit: 4; fill: rgb(240,240,240); fill-rule: nonzero; opacity: 1;"
      vector-effect="non-scaling-stroke" transform=" translate(-428.3, -419.61)"
      d="M 562.30686 531.10611 L 294.29709 531.10611 C 289.2922731253812 531.1002688395598 285.2365256402622 527.0445168810584 285.23069000000004 522.0396999999999 L 285.23069000000004 317.172 C 285.23653166911686 312.167264972365 289.2923546700972 308.11165669774135 294.29709 308.10608 L 562.30686 308.10608 C 567.3115953299028 308.11165669774135 571.3674183308832 312.16726497236493 571.3732600000001 317.172 L 571.3732600000001 522.0397 C 571.3674243597378 527.0445168810585 567.3116768746188 531.1002688395598 562.30686 531.10611 Z M 294.29709 310.10610999999994 C 290.39640102334505 310.110424730312 287.2352697017585 313.27134132544165 287.23069000000004 317.17202999999995 L 287.23069000000004 522.0397 C 287.2350602221082 525.9405549363307 290.3962350698577 529.1017342576098 294.29709 529.1061100000001 L 562.30686 529.1061100000001 C 566.2077149301424 529.1017342576098 569.3688897778919 525.9405549363308 569.3732600000001 522.0397 L 569.3732600000001 317.172 C 569.3686802982415 313.27131132544173 566.2075489766551 310.110394730312 562.30686 310.10608 Z"
      stroke-linecap="round" />
  </g>
  <g transform="matrix(1 0 0 1 347.02 585.37)">
    <path
      style="stroke: none; stroke-width: 1; stroke-dasharray: none; stroke-linecap: butt; stroke-dashoffset: 0; stroke-linejoin: miter; stroke-miterlimit: 4; fill: rgb(240,240,240); fill-rule: nonzero; opacity: 1;"
      vector-effect="non-scaling-stroke" transform=" translate(-428.3, -510.3)"
      d="M 286.84959 491.10611 L 286.84959 522.0399 C 286.85571940021885 526.1503113397799 290.1863386602201 529.4809305997811 294.29675 529.48706 L 562.30719 529.48706 C 566.4176052450205 529.4809361051916 569.7482305857554 526.1503152367936 569.75436 522.0399 L 569.75436 491.10611 Z"
      stroke-linecap="round" />
  </g>
  <g transform="matrix(0.54 -0.84 0.84 0.54 348.01 476.26)">
    <rect
      style="stroke: none; stroke-width: 1; stroke-dasharray: none; stroke-linecap: butt; stroke-dashoffset: 0; stroke-linejoin: miter; stroke-miterlimit: 4; fill: rgb(240,240,240); fill-rule: nonzero; opacity: 1;"
      vector-effect="non-scaling-stroke" x="-1" y="-166.78" rx="0" ry="0" width="2" height="333.56" />
  </g>
  <g transform="matrix(0.84 -0.54 0.54 0.84 348.81 476.24)">
    <rect
      style="stroke: none; stroke-width: 1; stroke-dasharray: none; stroke-linecap: butt; stroke-dashoffset: 0; stroke-linejoin: miter; stroke-miterlimit: 4; fill: rgb(240,240,240); fill-rule: nonzero; opacity: 1;"
      vector-effect="non-scaling-stroke" x="-166.78" y="-1" rx="0" ry="0" width="333.56" height="2" />
  </g>
  <g transform="matrix(1 0 0 1 716.96 803.03)">
    <polygon
      style="stroke: none; stroke-width: 1; stroke-dasharray: none; stroke-linecap: butt; stroke-dashoffset: 0; stroke-linejoin: miter; stroke-miterlimit: 4; fill: rgb(160,97,106); fill-rule: nonzero; opacity: 1;"
      vector-effect="non-scaling-stroke" points="9.14,23.89 -3.25,23.89 -9.14,-23.89 9.14,-23.89 9.14,23.89 " />
  </g>
  <g transform="matrix(1 0 0 1 709.3 828.14)">
    <path
      style="stroke: none; stroke-width: 1; stroke-dasharray: none; stroke-linecap: butt; stroke-dashoffset: 0; stroke-linejoin: miter; stroke-miterlimit: 4; fill: rgb(47,46,65); fill-rule: nonzero; opacity: 1;"
      vector-effect="non-scaling-stroke" transform=" translate(-790.58, -753.07)"
      d="M 807.06258 747.80889 L 793.84258 742.43889 L 793.45258 742.27889 L 786.1525800000001 747.80889 C 777.8294439857589 747.8077839579545 770.9827040628385 754.3635484559471 770.6225800000001 762.67889 C 770.6025800000001 762.89889 770.6025800000001 763.1288900000001 770.6025800000001 763.35889 L 770.6025800000001 763.86889 L 810.5525800000001 763.86889 L 810.5525800000001 747.80889 Z"
      stroke-linecap="round" />
  </g>
  <g transform="matrix(1 0 0 1 680.53 794.92)">
    <polygon
      style="stroke: none; stroke-width: 1; stroke-dasharray: none; stroke-linecap: butt; stroke-dashoffset: 0; stroke-linejoin: miter; stroke-miterlimit: 4; fill: rgb(160,97,106); fill-rule: nonzero; opacity: 1;"
      vector-effect="non-scaling-stroke" points="16.55,20.48 4.87,24.6 -16.56,-18.53 0.69,-24.6 16.55,20.48 " />
  </g>
  <g transform="matrix(1 0 0 1 684.69 824.73)">
    <path
      style="stroke: none; stroke-width: 1; stroke-dasharray: none; stroke-linecap: butt; stroke-dashoffset: 0; stroke-linejoin: miter; stroke-miterlimit: 4; fill: rgb(47,46,65); fill-rule: nonzero; opacity: 1;"
      vector-effect="non-scaling-stroke" transform=" translate(-765.98, -749.66)"
      d="M 776.72189 736.61787 L 762.4689900000001 735.94014 L 762.04799 735.91862 L 756.9973 743.5581000000001 C 749.1456055378859 746.3195680744035 744.8629011653109 754.7762047978038 747.28314 762.7397000000001 C 747.33727 762.9538500000001 747.41362 763.1708500000001 747.48996 763.3877900000001 L 747.65923 763.8688900000001 L 785.34452 750.60909 L 780.014 735.45951 Z"
      stroke-linecap="round" />
  </g>
  <g transform="matrix(1 0 0 1 684.38 705.94)">
    <path
      style="stroke: none; stroke-width: 1; stroke-dasharray: none; stroke-linecap: butt; stroke-dashoffset: 0; stroke-linejoin: miter; stroke-miterlimit: 4; fill: rgb(47,46,65); fill-rule: nonzero; opacity: 1;"
      vector-effect="non-scaling-stroke" transform=" translate(-765.66, -630.87)"
      d="M 811.77112 545.79972 C 823.10618 545.3601699999999 809.06481 635.6895 809.06481 635.6895 C 809.06481 635.6895 813.17215 714.99496 812.30152 719.15676 C 811.43089 723.3185599999999 812.19174 734.5431199999999 812.19174 734.5431199999999 C 809.97099 730.5011999999999 787.0595 733.5517199999999 787.0595 733.5517199999999 L 783.94268 653.17585 L 768.02926 588.7763199999999 L 745.96702 631.94432 L 767.11265 698.20493 C 767.11265 698.20493 775.67601 706.12887 774.76543 709.26023 C 773.85485 712.39159 751.42443 719.45341 747.30264 719.6132299999999 C 743.18085 719.7730499999999 745.04193 714.5408199999999 744.84213 709.3885499999999 C 744.64233 704.2362799999999 725.24644 656.4839799999999 718.42432 640.2363499999999 C 711.6021999999999 623.98872 716.90586 601.0788999999999 720.38832 584.4316699999999 C 723.8707800000001 567.78444 742.1917100000001 536.5430799999999 742.1917100000001 536.5430799999999 C 764.93328 510.893 800.43605 546.23928 811.77112 545.79972 Z"
      stroke-linecap="round" />
  </g>
  <g transform="matrix(1 0 0 1 612.3 551.5)">
    <path
      style="stroke: none; stroke-width: 1; stroke-dasharray: none; stroke-linecap: butt; stroke-dashoffset: 0; stroke-linejoin: miter; stroke-miterlimit: 4; fill: rgb(160,97,106); fill-rule: nonzero; opacity: 1;"
      vector-effect="non-scaling-stroke" transform=" translate(-693.58, -476.43)"
      d="M 673.63366 472.80155 C 674.8905209465217 475.2029612071133 677.1465035798927 476.92432146128874 679.794568133872 477.50244717642323 C 682.4426326878511 478.0805728915577 685.2107627744634 477.456077422945 687.35411 475.797 L 714.61232 493.581 L 714.52932 476.66828000000004 L 688.65716 462.3732 C 685.5634343338489 458.8805625168353 680.3463545511966 458.253842680039 676.5134555425525 460.9143953060444 C 672.6805565339085 463.57494793204984 671.4433621377611 468.68181088679387 673.63366 472.80155 Z"
      stroke-linecap="round" />
  </g>
  <g transform="matrix(1 0 0 1 709.31 559.75)">
    <path
      style="stroke: none; stroke-width: 1; stroke-dasharray: none; stroke-linecap: butt; stroke-dashoffset: 0; stroke-linejoin: miter; stroke-miterlimit: 4; fill: rgb(63,61,86); fill-rule: nonzero; opacity: 1;"
      vector-effect="non-scaling-stroke" transform=" translate(-790.59, -484.68)"
      d="M 805.88412 560.28042 C 777.77426 560.28142 762.28353 554.6544200000001 754.0574600000001 549.63003 C 743.9988700000001 543.48647 742.2776800000001 537.00796 742.2093200000002 536.7345200000001 L 742.1893200000002 536.6564000000001 L 743.1683200000002 524.33608 L 743.5965400000002 523.3770800000001 C 745.569697392841 518.9607196650948 745.831428166518 513.968724962122 744.3309200000002 509.3702400000001 L 744.3001600000002 509.2755200000001 L 744.3079700000002 509.1768800000001 L 750.8807200000002 423.9322600000001 L 774.1404900000002 416.3131100000001 L 780.9070900000003 409.51429000000013 L 811.0345300000002 409.0772900000001 L 815.2322900000003 417.5875400000001 L 838.9832900000002 426.5289500000001 L 827.31478 495.9855 L 821.72103 505.6271 L 823.972 516.13 L 823.95638 516.22473 L 816.6179999999999 560.02453 L 816.2141899999999 560.04211 Q 810.78549 560.28531 805.88412 560.28042 Z"
      stroke-linecap="round" />
  </g>
  <g transform="matrix(1 0 0 1 648.46 540.1)">
    <path
      style="stroke: none; stroke-width: 1; stroke-dasharray: none; stroke-linecap: butt; stroke-dashoffset: 0; stroke-linejoin: miter; stroke-miterlimit: 4; fill: rgb(63,61,86); fill-rule: nonzero; opacity: 1;"
      vector-effect="non-scaling-stroke" transform=" translate(-729.75, -465.03)"
      d="M 733.162 507.09878 L 722.13417 500.56068999999997 L 721.44325 499.56269 C 718.5963604155319 495.4662249645661 713.9755257472586 492.9625014210551 708.98915 492.81464 L 708.86073 492.81073 L 693.67221 483.881 L 699.9681099999999 465.43764 L 723.7781099999999 472.47182 L 740.3777199999998 431.22718999999995 C 742.2367600111576 426.6078820325892 746.5371705338899 423.4279160283218 751.4984450980442 423.003898858922 C 756.4597196621984 422.57988168952215 761.2373749466233 424.98398743501906 763.8533099999999 429.22083999999995 C 765.1674205100072 431.39239286371753 765.8487853951186 433.88786300849523 765.8205899999998 436.42591999999996 L 765.8205899999998 463.41321999999997 L 765.7209799999998 463.54700999999994 Z"
      stroke-linecap="round" />
  </g>
  <g transform="matrix(1 0 0 1 744.45 608.87)">
    <path
      style="stroke: none; stroke-width: 1; stroke-dasharray: none; stroke-linecap: butt; stroke-dashoffset: 0; stroke-linejoin: miter; stroke-miterlimit: 4; fill: rgb(160,97,106); fill-rule: nonzero; opacity: 1;"
      vector-effect="non-scaling-stroke" transform=" translate(-825.73, -533.8)"
      d="M 806.88908 544.41764 C 807.3664179767458 541.7495686813854 809.0010249328568 539.4299624408357 811.3530636488056 538.0829769234913 C 813.7051023647543 536.7359914061468 816.5329667738981 536.4999916272021 819.07574 537.43848 L 839.73174 512.28673 L 844.7337399999999 528.44307 L 824.3515899999999 549.8506500000001 C 822.4500848839965 554.11137685292 817.6623241224959 556.2765174187731 813.2071877757965 554.8904167176346 C 808.7520514290969 553.504316016496 806.0377340296969 549.0050974360554 806.8891099999998 544.4176500000001 Z"
      stroke-linecap="round" />
  </g>
  <g transform="matrix(1 0 0 1 763.24 557.43)">
    <path
      style="stroke: none; stroke-width: 1; stroke-dasharray: none; stroke-linecap: butt; stroke-dashoffset: 0; stroke-linejoin: miter; stroke-miterlimit: 4; fill: rgb(63,61,86); fill-rule: nonzero; opacity: 1;"
      vector-effect="non-scaling-stroke" transform=" translate(-844.52, -482.37)"
      d="M 837.77328 541.2394 L 824.057 527.52163 L 832.78845 506.24721999999997 L 845.44226 488.96889999999996 C 831.9583700000001 482.40443999999997 821.8367900000001 466.85366 814.5028 453.98061999999993 L 814.4202799999999 453.8360799999999 L 816.24646 439.5323699999999 C 816.673686463538 436.18684489679987 818.0138427558206 433.0235469774043 820.1199899999999 430.3893099999999 C 823.8362607008047 425.74104004284214 829.5741080736518 423.18113629679266 835.5156414987625 423.52063898392186 C 841.4571749238733 423.86014167105105 846.8660788499622 427.05697729107703 850.0286799999999 432.0983099999999 L 874.6204799999999 486.7667699999999 L 874.3436199999999 487.1798499999999 L 854.5633499999999 520.8985999999999 L 849.1649099999998 524.3995999999999 Z"
      stroke-linecap="round" />
  </g>
  <g transform="matrix(1 0 0 1 711.43 452.18)">
    <path
      style="stroke: none; stroke-width: 1; stroke-dasharray: none; stroke-linecap: butt; stroke-dashoffset: 0; stroke-linejoin: miter; stroke-miterlimit: 4; fill: rgb(160,97,106); fill-rule: nonzero; opacity: 1;"
      vector-effect="non-scaling-stroke" transform=" translate(-792.71, -377.11)"
      d="M 817.60205 380.40273 C 815.7187590526748 394.12838369578213 803.0725597307986 403.7337897317719 789.3448638333639 401.865442998329 C 775.6171679359292 399.99709626488607 765.9979996949246 387.36136182813476 767.8514 373.63164 L 767.8999 373.27529 C 770.0639681604362 359.7399274182367 782.6849193363669 350.442527675577 796.2533826014762 352.3883015180854 C 809.8218458665856 354.3340753605939 819.3213246914504 366.80363640402993 817.59435 380.40168 Z"
      stroke-linecap="round" />
  </g>
  <g transform="matrix(1 0 0 1 713.91 444.96)">
    <path
      style="stroke: none; stroke-width: 1; stroke-dasharray: none; stroke-linecap: butt; stroke-dashoffset: 0; stroke-linejoin: miter; stroke-miterlimit: 4; fill: rgb(47,46,65); fill-rule: nonzero; opacity: 1;"
      vector-effect="non-scaling-stroke" transform=" translate(-795.2, -369.88)"
      d="M 811.21258 393.33348 C 812.50179 390.71465 813.82617 387.90303 813.46386 385.00664 C 813.1015499999999 382.11025 810.2610999999999 379.3418 807.4719399999999 380.20258 C 805.8040799999999 380.71731 804.5434999999999 382.36429000000004 802.8000499999999 382.44858 C 800.4011999999999 382.56458 799.02582 379.8191 798.27915 377.53647 L 795.2381499999999 368.23990000000003 C 789.3257265327876 372.84772969342214 781.6662885555737 374.57854237922254 774.3470399999999 372.96069000000006 C 771.5235699999998 372.3151500000001 768.6711199999999 371.05653000000007 767.0148799999998 368.68048000000005 C 765.3586399999998 366.30443 765.3686099999999 362.6187800000001 767.6402799999998 360.82206 C 768.7541499999999 359.94106000000005 770.2366999999998 359.60636 771.3011599999999 358.66629 C 772.6570100632651 357.46889536878905 773.068520745058 355.52473755604296 772.3141087412572 353.8806737417613 C 771.5596967374564 352.2366099274796 769.8174524164257 351.2807462510447 768.0255099999998 351.52778 L 775.6824399999998 350.57078 L 773.4010599999998 346.44464 C 775.1545668350092 347.6380336443893 777.3298518451933 348.03709656508556 779.3927799999998 347.54384 C 781.4527799999997 347.17291 783.3929799999997 346.3247 785.4082699999998 345.75905 C 795.4457813012784 343.1958526625247 805.9643222337154 347.61273635388363 811.1626799999998 356.57369 C 815.0202365831934 355.28558765588207 819.2725128203209 356.51343590091125 821.8496799999998 359.65957 C 823.8994199999999 362.26113 824.4568499999998 365.73287999999997 824.5362699999998 369.04395999999997 C 824.6853460111735 375.5725332233842 823.2618643567937 382.0411838654777 820.3859399999998 387.90407999999996 C 819.5610862617036 389.7663565906983 818.3761769738089 391.44717435967783 816.8993699999997 392.84984999999995 C 815.394318059107 394.25762175063744 813.3439755995105 394.92814683640796 811.2979399999997 394.68168999999995"
      stroke-linecap="round" />
  </g>
  <g transform="matrix(1 0 0 1 486.21 444.51)">
    <path
      style="stroke: none; stroke-width: 1; stroke-dasharray: none; stroke-linecap: butt; stroke-dashoffset: 0; stroke-linejoin: miter; stroke-miterlimit: 4; fill: rgb(108,99,255); fill-rule: nonzero; opacity: 1;"
      vector-effect="non-scaling-stroke" transform=" translate(-567.49, -369.44)"
      d="M 404.40219 367.50327 C 404.81181921142223 373.3502837872019 406.5343622377815 379.0297209404514 409.44171 384.11919 C 415.56906 394.88019 426.07671 402.67124 437.39371 407.30219 C 451.53258 413.08795 467.29365 413.26619 482.29871 411.9761 C 496.23542000000003 410.77788 510.03032 408.00039999999996 524.0183900000001 407.42796 C 534.8360289188765 407.08179804275346 545.6645588439334 407.3400936195198 556.4533900000001 408.20163999999994 C 577.3850000000001 409.6873 598.2296300000002 412.44384 618.9400400000002 415.78557 Q 627.3534200000001 417.12649 635.7314000000002 418.66697 C 636.2592703809753 418.7135736933359 636.7814682427279 418.8105961105113 637.2908500000002 418.95671 C 637.3922600000002 418.99827 637.5553300000003 418.96584 637.6481700000002 419.02423999999996 C 637.8167600000002 419.13041999999996 636.9661700000001 418.75505 637.4817900000002 419.18118 C 638.2003815006685 419.93501289546055 638.8410331409433 420.75946646981754 639.394 421.642 L 647.04285 431.48530999999997 C 649.23634 434.30812999999995 651.2720300000001 437.73765999999995 654.10685 439.96261 C 658.19439280687 443.1203150904898 663.7800188525434 443.50960654514984 668.26607 440.94944 C 670.5578917922951 439.50133061571205 672.3854793524141 437.4253351515964 673.5314 434.96844 C 675.290786418352 431.7415858071079 677.3897875150087 428.71187286917774 679.79269 425.93084999999996 C 688.89253 415.31508999999994 701.53963 408.78558 712.11763 399.85346999999996 C 717.2413691383747 395.7040200854739 721.6143151845846 390.7053266146067 725.0457399999999 385.07541 C 727.9730546711862 379.9807928856222 729.7931418302766 374.3261389427208 730.3872099999999 368.48051 C 731.6538899999998 356.60927 728.0111299999999 344.50298999999995 721.8842699999999 334.40387999999996 C 715.219841159422 323.5540712661139 705.6458817402298 314.79099187020495 694.2501599999999 309.11027999999993 C 681.4481599999999 302.5880899999999 667.28216 299.4111499999999 653.0820399999999 297.8279999999999 C 638.0056099999999 296.1471399999999 622.7539099999999 296.15237999999994 607.6038899999999 296.3220799999999 Q 582.1002599999998 296.6059699999999 556.6887599999999 298.56513999999993 Q 531.2428999999998 300.53469999999993 505.9976099999999 304.1642999999999 C 489.84825999999987 306.4861499999999 473.5016099999999 308.9061799999999 457.6937599999999 313.0145199999999 C 443.7288999999999 316.6438899999999 429.8033099999999 322.3167999999999 419.37518999999986 332.5954099999999 C 410.10319 341.73455 403.65432 354.24087 404.40219 367.50327 Z"
      stroke-linecap="round" />
  </g>
  <g transform="matrix(1 0 0 1 407.27 431.36)">
    <path
      style="stroke: none; stroke-width: 1; stroke-dasharray: none; stroke-linecap: butt; stroke-dashoffset: 0; stroke-linejoin: miter; stroke-miterlimit: 4; fill: rgb(255,255,255); fill-rule: nonzero; opacity: 1;"
      vector-effect="non-scaling-stroke" transform=" translate(-488.55, -356.29)"
      d="M 482.46256 371.27969 C 481.0668348024768 371.21684992872446 479.76085243430543 370.57367666020826 478.8601942166435 369.5055884257833 C 477.95953599898155 368.4375001913583 477.54613622481975 367.04166265567187 477.71989 365.65537 L 478.07872000000003 362.83054 C 478.2177773904361 361.73062851619005 477.8073985024656 360.63262105151915 476.98102000000006 359.89354 L 474.85918000000004 357.99753999999996 C 473.44170456449586 356.73137989675786 472.86609953623076 354.77021147304373 473.3744408857634 352.93882208526867 C 473.8827822352961 351.1074326974936 475.3868830709905 349.7235311797544 477.25418 349.36913 L 480.05145000000005 348.83781999999997 C 481.14002472914666 348.63128019676594 482.0573179196984 347.90242201578707 482.50451000000004 346.88867999999997 L 483.65266 344.28128999999996 C 484.4195519243398 342.5425494784299 486.1068531093257 341.38977896668985 488.0054226837784 341.30746617345864 C 489.90399225823114 341.22515338022737 491.68473177732875 342.22756642219974 492.59923000000003 343.89340999999996 L 493.96793 346.38940999999994 C 494.500905446384 347.3622838571834 495.4787706366154 348.01031543666346 496.58243000000004 348.1220399999999 L 499.41428 348.4081399999999 C 501.30527270675276 348.5994156771728 502.92364752708477 349.8477688139073 503.58881283542934 351.62821676716095 C 504.2539781437739 353.40866472041455 503.8505476176618 355.41235292562027 502.54818 356.7966499999999 L 500.59787 358.8701599999999 C 499.8378069474904 359.6767141857731 499.5241323157879 360.8060722966545 499.75938 361.8890699999999 L 500.36109000000005 364.6734399999999 C 500.7628102244851 366.53059048991196 500.0755439631427 368.45478141004617 498.5881750555041 369.63720299879145 C 497.1008061478655 370.81962458753674 495.0711975362629 371.0552821671201 493.35247000000004 370.24511999999993 L 490.77719 369.03164999999996 C 489.7749117466533 368.55681218109896 488.6028739535725 368.60718253488886 487.64503 369.16625999999997 L 485.18437 370.59914999999995 C 484.36066491337687 371.0811657676079 483.41619183381437 371.3173144001596 482.46256 371.27969 Z"
      stroke-linecap="round" />
  </g>
  <g transform="matrix(1 0 0 1 447.36 430.2)">
    <path
      style="stroke: none; stroke-width: 1; stroke-dasharray: none; stroke-linecap: butt; stroke-dashoffset: 0; stroke-linejoin: miter; stroke-miterlimit: 4; fill: rgb(255,255,255); fill-rule: nonzero; opacity: 1;"
      vector-effect="non-scaling-stroke" transform=" translate(-528.64, -355.13)"
      d="M 522.558 370.11518 C 521.2876647787284 370.0565890105699 520.0863536420374 369.52026956001595 519.19463 368.61362 C 518.1029263574324 367.4573141979466 517.6036627335366 365.8631760820313 517.84075 364.29071000000005 L 518.16999 361.69881000000004 C 518.3123087166354 360.5784403364463 517.8942989918028 359.4597677246924 517.05215 358.70726 L 515.08384 356.94846 C 513.9082307674863 355.9449591687602 513.2473528763483 354.4651707229195 513.2847 352.91996 C 513.3732913007993 350.59217197055654 515.0602980644662 348.6352097613797 517.3496200000001 348.20457 L 520.11441 347.67942999999997 C 521.2242199935199 347.46863052293213 522.1591679578265 346.7250813660865 522.61441 345.69122 L 523.64472 343.35143 C 524.3957707857077 341.5408312569921 526.0970200479777 340.30289320413914 528.0508600000001 340.14524 C 529.96803793587 340.03651789374686 531.7761793744439 341.0424919584901 532.69465 342.72885 L 534.04744 345.19585 C 534.5910393592743 346.1871907623858 535.5878559091274 346.8473555973468 536.7127300000001 346.961 L 539.33734 347.22616 C 540.8791978569401 347.34672788099004 542.2844168368406 348.1563344393403 543.1620700000001 349.42975 C 544.4567709061456 351.36512958501044 544.2416545616417 353.93851388305455 542.6436000000001 355.63208000000003 L 540.7159200000001 357.68153 C 539.9427272327814 358.50356544963216 539.6233140613199 359.65330778616544 539.8616900000001 360.75637 L 540.4172500000001 363.32721 C 540.777835290432 364.8297678857119 540.4453984039822 366.4148366204121 539.5114900000001 367.6459 C 538.076077783479 369.4857516834414 535.555568757917 370.08210406651386 533.44788 369.08054999999996 L 530.89922 367.87962999999996 C 529.8786486110405 367.39873450138344 528.6868328116997 367.4505938737141 527.71189 368.01831999999996 L 525.27979 369.43458999999996 C 524.4560935979965 369.9166137635056 523.5116293652154 370.15277926936335 522.558 370.11518 Z"
      stroke-linecap="round" />
  </g>
  <g transform="matrix(1 0 0 1 487.56 430.03)">
    <path
      style="stroke: none; stroke-width: 1; stroke-dasharray: none; stroke-linecap: butt; stroke-dashoffset: 0; stroke-linejoin: miter; stroke-miterlimit: 4; fill: rgb(255,255,255); fill-rule: nonzero; opacity: 1;"
      vector-effect="non-scaling-stroke" transform=" translate(-568.84, -354.96)"
      d="M 562.75714 369.94527 C 561.361412828316 369.8824301883427 560.0554286878044 369.23925553821834 559.1547701422166 368.1711650158532 C 558.254111596629 367.1030744934881 557.8407132061387 365.70723425314156 558.0144700000001 364.32094 L 558.3732900000001 361.49612 C 558.5123551526485 360.3962096203103 558.1019792217121 359.29820006464325 557.2756000000002 358.55912 L 555.1537500000002 356.66312 C 553.7362839988765 355.39695395069475 553.1606855590204 353.43578859219735 553.6690255391363 351.60440201548266 C 554.1773655192522 349.773015438768 555.6814583025322 348.3891122533464 557.5487500000002 348.0347 L 560.3460200000002 347.50338999999997 C 561.4345948132219 347.2968571032482 562.3518895620803 346.5680014234677 562.7990800000002 345.55425999999994 L 563.9472200000002 342.94686999999993 C 564.7141133229671 341.2081292765832 566.4014145697969 340.05535818213843 568.2999848047954 339.97304333015546 C 570.1985550397939 339.89072847817255 571.9792968106417 340.89313829421513 572.8938000000003 342.5589799999999 L 574.2625000000003 345.0549799999999 C 574.7954734927972 346.0278511289423 575.7733343040211 346.67588228505707 576.8769900000003 346.78760999999986 L 579.7088500000003 347.07370999999983 C 581.5998385791338 347.26498856340766 583.2182088933291 348.513339951929 583.8833735619522 350.29378407035796 C 584.5485382305752 352.07422818878695 584.1451115266839 354.07791243478954 582.8427500000004 355.46220999999986 L 580.8924400000004 357.53572999999983 C 580.132370856517 358.3422766932595 579.8186950833503 359.47163517292273 580.0539500000004 360.5546299999998 L 580.6556500000005 363.3389999999998 C 581.0573784970138 365.19615227652605 580.3701145320813 367.1203490880411 578.8827428884375 368.302772851843 C 577.3953712447938 369.4851966156449 575.3657574113973 369.7208506294554 573.6470300000005 368.91067999999984 L 571.0717600000005 367.69721999999985 C 570.0694804223901 367.222371615741 568.8974345196418 367.2727421572406 567.9395900000005 367.83182999999985 L 565.4789400000005 369.26471999999984 C 564.6552365146921 369.7467316579288 563.7107688119472 369.98288328372905 562.75714 369.94527 Z"
      stroke-linecap="round" />
  </g>
  <g transform="matrix(1 0 0 1 526.66 428.97)">
    <path
      style="stroke: none; stroke-width: 1; stroke-dasharray: none; stroke-linecap: butt; stroke-dashoffset: 0; stroke-linejoin: miter; stroke-miterlimit: 4; fill: rgb(0,0,0); fill-rule: nonzero; opacity: 0.2;"
      vector-effect="non-scaling-stroke" transform=" translate(-607.94, -353.9)"
      d="M 601.858 368.88446 C 600.4622759151864 368.8216169535053 599.1562954284466 368.17844285643343 598.2556378410935 367.11035536949015 C 597.3549802537405 366.0422678825468 596.9415793452109 364.6464320613571 597.11533 363.26014 L 597.47416 360.43530999999996 C 597.6132163255114 359.3354006484652 597.2028418840305 358.23739507801326 596.3764699999999 357.49830999999995 L 594.2546199999999 355.60230999999993 C 592.8371445644957 354.33614989675783 592.2615395362307 352.3749814730437 592.7698808857633 350.54359208526864 C 593.278222235296 348.7122026974936 594.7823230709904 347.32830117975436 596.6496199999999 346.97389999999996 L 599.4468999999999 346.44258999999994 C 600.5354544278068 346.2360370072418 601.4527238129455 345.5071799141521 601.8998999999999 344.49344999999994 L 603.0480499999999 341.88605999999993 C 603.8149453619329 340.1473203685967 605.5022477744759 338.9945513600235 607.4008179251606 338.9122386338144 C 609.2993880758452 338.82992590760534 611.0801285908267 339.83233751807467 611.9946299999999 341.49817999999993 L 613.3633299999999 343.9941799999999 C 613.8963021785634 344.96705233708013 614.8741637035254 345.61508396619126 615.97782 345.7268099999999 L 618.80968 346.01290999999986 C 620.7006727067527 346.20418567717275 622.3190475270848 347.45253881390727 622.9842128354294 349.23298676716087 C 623.6493781437739 351.01343472041447 623.2459476176618 353.01712292562024 621.94358 354.40141999999986 L 619.99326 356.47492999999986 C 619.2331958492778 357.2814834509374 618.919524334999 358.41084380678524 619.15478 359.49383999999986 L 619.75648 362.2782099999999 C 620.1582084970133 364.1353622765261 619.4709445320808 366.05955908804117 617.983572888437 367.24198285184303 C 616.4962012447933 368.42440661564495 614.4665874113969 368.6600606294555 612.7478600000001 367.8498899999999 L 610.17259 366.63641999999993 C 609.1703082868862 366.16158216437594 607.9982675522881 366.2119524837661 607.04042 366.77102999999994 L 604.57977 368.20392999999996 C 603.7560731123631 368.6859291055009 602.8116167578005 368.9220735567111 601.858 368.88446 Z"
      stroke-linecap="round" />
  </g>
  <g transform="matrix(1 0 0 1 565.77 427.91)">
    <path
      style="stroke: none; stroke-width: 1; stroke-dasharray: none; stroke-linecap: butt; stroke-dashoffset: 0; stroke-linejoin: miter; stroke-miterlimit: 4; fill: rgb(0,0,0); fill-rule: nonzero; opacity: 0.2;"
      vector-effect="non-scaling-stroke" transform=" translate(-647.04, -352.84)"
      d="M 640.95879 367.82366 C 639.5630650537406 367.76081423790555 638.2570846760941 367.1176379306727 637.3564273911231 366.0495489032724 C 636.4557701061523 364.98145987587213 636.0423694469231 363.5856230645176 636.21612 362.19933000000003 L 636.5749500000001 359.37451000000004 C 636.7140045601234 358.274600854096 636.3036304165242 357.17659608066197 635.4772600000001 356.43751000000003 L 633.3554100000001 354.54151 C 631.9379345644959 353.2753498967579 631.3623295362308 351.3141814730438 631.8706708857635 349.4827920852687 C 632.3790122352962 347.65140269749367 633.8831130709906 346.26750117975445 635.7504100000001 345.91310000000004 L 638.5476900000001 345.38179 C 639.6362430283606 345.1752406743344 640.5535126350089 344.44638714461297 641.0006900000001 343.43266 L 642.1488400000001 340.82526 C 642.9157353619331 339.0865203685968 644.6030377744761 337.93375136002356 646.5016079251608 337.8514386338145 C 648.4001780758454 337.7691259076054 650.1809185908269 338.77153751807475 651.0954200000001 340.43738 L 652.4641100000001 342.93343000000004 C 652.99709858821 343.9062917761432 653.9749566413966 344.5543186259013 655.0786100000001 344.66606 L 657.9104700000001 344.95216 C 659.8014585791336 345.1434385634078 661.4198288933289 346.3917899519292 662.084993561952 348.1722340703581 C 662.750158230575 349.9526781887871 662.3467315266837 351.9563624347897 661.0443700000002 353.34066 L 659.0940500000002 355.41418 C 658.3339844334757 356.22072859398384 658.0203124672604 357.3500868360499 658.2555700000001 358.43307999999996 L 658.8572700000002 361.21745 C 659.2589984970135 363.0746022765262 658.571734532081 364.99879908804127 657.0843628884372 366.18122285184313 C 655.5969912447935 367.36364661564505 653.567377411397 367.59930062945557 651.8486500000002 366.78913 L 649.2733800000002 365.57567 C 648.2711004223898 365.10082161574115 647.0990545196415 365.15119215724076 646.1412100000002 365.71028 L 643.6805500000003 367.14317 C 642.8568518230622 367.6251532859094 641.912399474602 367.8612837230543 640.95879 367.82366 Z"
      stroke-linecap="round" />
  </g>
  <g transform="matrix(1 0 0 1 807.46 789.79)">
    <path
      style="stroke: none; stroke-width: 1; stroke-dasharray: none; stroke-linecap: butt; stroke-dashoffset: 0; stroke-linejoin: miter; stroke-miterlimit: 4; fill: rgb(242,242,242); fill-rule: nonzero; opacity: 1;"
      vector-effect="non-scaling-stroke" transform=" translate(-888.75, -714.72)"
      d="M 890.07067 701.43944 L 891.21453 675.72 C 903.1387485511202 669.346160787661 916.4386183251099 665.9794475485941 929.9592799999999 665.9122 C 911.35083 681.12594 913.6762799999999 710.45291 901.0602799999999 730.91183 C 892.9905937676538 743.7763228285901 879.5082190186208 752.2725571431934 864.42089 754.001 L 848.84869 763.53537 C 844.5243160812099 739.4277712396181 850.9729659056062 714.6354953739669 866.49569 695.69027 C 870.850672642278 690.4812247573813 875.844290227975 685.8413298701014 881.35869 681.88009 C 885.08819 691.71428 890.07067 701.43944 890.07067 701.43944 Z"
      stroke-linecap="round" />
  </g>
  <g transform="matrix(1 0 0 1 689.37 839.67)">
    <path
      style="stroke: none; stroke-width: 1; stroke-dasharray: none; stroke-linecap: butt; stroke-dashoffset: 0; stroke-linejoin: miter; stroke-miterlimit: 4; fill: rgb(202,202,202); fill-rule: nonzero; opacity: 1;"
      vector-effect="non-scaling-stroke" transform=" translate(-770.66, -764.6)"
      d="M 979.34727 765.78825 L 561.96534 765.78825 C 561.3077428326477 765.78825 560.7746549999999 765.2551621673522 560.7746549999999 764.597565 C 560.7746549999999 763.9399678326478 561.3077428326477 763.40688 561.96534 763.40688 L 979.34727 763.40688 C 980.0048671673522 763.40688 980.5379549999999 763.9399678326478 980.537955 764.5975649999999 C 980.537955 765.2551621673522 980.0048671673522 765.78825 979.34727 765.78825 Z"
      stroke-linecap="round" />
  </g>
</svg>