<?xml version="1.0" encoding="UTF-8" standalone="no" ?>
<!DOCTYPE svg PUBLIC "-//W3C//DTD SVG 1.1//EN" "http://www.w3.org/Graphics/SVG/1.1/DTD/svg11.dtd">
<svg xmlns="http://www.w3.org/2000/svg" xmlns:xlink="http://www.w3.org/1999/xlink" version="1.1" width="1080" height="1080" viewBox="0 0 1080 1080" xml:space="preserve">
<desc>Created with Fabric.js 5.2.4</desc>
<defs>
</defs>
<g transform="matrix(1 0 0 1 540 540)" id="89ec9bd0-5ba3-4eb4-a20d-04cb77f2b137"  >
<rect style="stroke: none; stroke-width: 1; stroke-dasharray: none; stroke-linecap: butt; stroke-dashoffset: 0; stroke-linejoin: miter; stroke-miterlimit: 4; fill: rgb(255,255,255); fill-rule: nonzero; opacity: 1; visibility: hidden;" vector-effect="non-scaling-stroke"  x="-540" y="-540" rx="0" ry="0" width="1080" height="1080" />
</g>
<g transform="matrix(1 0 0 1 540 540)" id="7ef4b475-34a5-425b-8c84-42b8f35f7a37"  >
</g>
<g transform="matrix(1 0 0 1 357.69 259.5)"  >
<path style="stroke: none; stroke-width: 1; stroke-dasharray: none; stroke-linecap: butt; stroke-dashoffset: 0; stroke-linejoin: miter; stroke-miterlimit: 4; fill: rgb(242,242,242); fill-rule: nonzero; opacity: 1;" vector-effect="non-scaling-stroke"  transform=" translate(-417.69, -169.51)" d="M 500.19417 242.0498 L 503.58430999999996 242.87980000000002 C 502.05452999999994 243.09980000000002 500.52424999999994 243.30980000000002 498.99447 243.49980000000002 L 442.45446999999996 243.49980000000002 Q 436.09410999999994 242.68980000000002 429.80456999999996 241.49980000000002 C 404.5458821772528 236.8419165989818 380.4408394928966 227.29297705758876 358.84457 213.38980000000006 C 345.57457 204.75980000000004 332.92415 194.14980000000003 326.05456999999996 179.89980000000003 C 316.72448999999995 160.54980000000003 319.98425 136.04980000000003 333.30456999999996 119.19980000000002 C 338.154113425475 113.12041999524276 344.1254048181634 108.0283116593894 350.89440999999994 104.19980000000002 C 351.90417999999994 103.61980000000003 352.92418999999995 103.06980000000003 353.96422999999993 102.54980000000002 C 365.2399377212183 96.88351391515945 377.9026965603606 94.56543573739272 390.4544699999999 95.86980000000003 C 411.8045699999999 98.19980000000002 431.5042699999999 111.23980000000003 442.8743899999999 129.45980000000003 C 455.4442099999999 149.57980000000003 457.8543899999999 174.19980000000004 459.9544699999999 197.82980000000003 C 463.7645299999999 185.56980000000004 478.0643299999999 178.07980000000003 490.6141399999999 180.78980000000004 C 503.1541399999999 183.48980000000003 512.8343499999999 195.19980000000004 514.3944099999999 207.93980000000005 C 515.9241899999998 220.39980000000006 510.26452999999987 233.18980000000005 500.83434999999986 241.49980000000005 C 500.62435 241.6798 500.41439 241.8698 500.19417 242.0498 Z" stroke-linecap="round" />
</g>
<g transform="matrix(1 0 0 1 344.04 262.92)"  >
<path style="stroke: none; stroke-width: 1; stroke-dasharray: none; stroke-linecap: butt; stroke-dashoffset: 0; stroke-linejoin: miter; stroke-miterlimit: 4; fill: rgb(255,255,255); fill-rule: nonzero; opacity: 1;" vector-effect="non-scaling-stroke"  transform=" translate(-404.04, -172.92)" d="M 456.59457 243.49981 L 453.76448999999997 243.49981 C 453.4840828272441 243.27616946567 453.26695313341054 242.9831655447338 453.1346 242.64981 C 452.97445 242.26981 452.8246 241.87981 452.65414 241.49981 C 444.24475438612455 221.12761628190523 433.89017636225105 201.61394786638468 421.73420999999973 183.22980999999973 C 402.4182802496405 153.96628919970388 378.75685078852644 127.81628283359433 351.5642899999998 105.6798099999998 C 351.0908591543304 105.3430289299374 350.8349934748293 104.77776560646343 350.89437 104.19980999999999 C 351.01091420293426 103.42864684987327 351.530958229385 102.77868626186851 352.2577697555927 102.49580791217974 C 352.98458128180033 102.21292956249097 353.80717720052905 102.34032858092301 354.41436999999996 102.82980999999998 C 372.03319830554665 117.17893185392728 388.1946721543739 133.22987127021344 402.66436999999985 150.74980999999994 C 417.1423290865161 168.2482992632325 429.8887071391939 187.1099619071383 440.7244299999999 207.06980999999976 C 446.77032304156006 218.241821544988 452.20173965100565 229.73559375538824 456.99442999999997 241.49981 C 457.00419 241.52980999999997 457.01442999999995 241.54980999999998 457.02421 241.57980999999998 C 457.35467843163076 242.24068503579468 457.17518644217967 243.04280918565527 456.59457 243.49981 Z" stroke-linecap="round" />
</g>
<g transform="matrix(1 0 0 1 364.1 379.49)"  >
<path style="stroke: none; stroke-width: 1; stroke-dasharray: none; stroke-linecap: butt; stroke-dashoffset: 0; stroke-linejoin: miter; stroke-miterlimit: 4; fill: rgb(63,61,86); fill-rule: nonzero; opacity: 1;" vector-effect="non-scaling-stroke"  transform=" translate(-424.1, -289.5)" d="M 693.60433 241.49981 L 154.60433 241.49981 C 144.11485476225917 241.50930387619547 135.61382387619545 250.0103347622592 135.60433 260.49981 L 135.60433 318.49981 C 135.61382387619548 328.9892852377409 144.11485476225917 337.4903161238046 154.60433 337.49981 L 693.60433 337.49981 C 704.0938052377409 337.4903161238046 712.5948361238045 328.98928523774083 712.60433 318.49981 L 712.60433 260.49981 C 712.5948361238045 250.0103347622592 704.0938052377409 241.50930387619547 693.60433 241.49981 Z M 710.60433 318.49981 C 710.5910504538887 327.88314467451596 702.9876646745159 335.48653045388875 693.60433 335.49981 L 154.60433 335.49981 C 145.22099532548404 335.48653045388875 137.61760954611128 327.88314467451596 137.60433 318.49981 L 137.60433 260.49981 C 137.61760405310778 251.11647304565332 145.2209930456533 243.51308405310783 154.60433 243.49981000000002 L 693.60433 243.49981000000002 C 702.9876669543467 243.51308405310783 710.5910559468922 251.11647304565332 710.60433 260.49981 Z" stroke-linecap="round" />
</g>
<g transform="matrix(1 0 0 1 364.1 516.49)"  >
<path style="stroke: none; stroke-width: 1; stroke-dasharray: none; stroke-linecap: butt; stroke-dashoffset: 0; stroke-linejoin: miter; stroke-miterlimit: 4; fill: rgb(63,61,86); fill-rule: nonzero; opacity: 1;" vector-effect="non-scaling-stroke"  transform=" translate(-424.1, -426.5)" d="M 693.60433 474.49981 L 154.60433 474.49981 C 144.11585884475363 474.4878955484165 135.61624445158355 465.9882811552464 135.60433 455.49981 L 135.60433 397.49981 C 135.61624445158353 387.01133884475365 144.11585884475363 378.5117244515836 154.60433 378.49981 L 693.60433 378.49981 C 704.0928011552463 378.5117244515836 712.5924155484165 387.01133884475365 712.60433 397.49981 L 712.60433 455.49981 C 712.5924155484165 465.9882811552464 704.0928011552464 474.4878955484165 693.60433 474.49981 Z M 154.60433 380.49981 C 145.2198481627425 380.51032500837937 137.61484500837932 388.1153281627425 137.60433 397.49981 L 137.60433 455.49981 C 137.61485050757554 464.8842895558047 145.21985044419537 472.4892894924245 154.60433 472.49981 L 693.60433 472.49981 C 702.9887913042982 472.48924549929933 710.5937654992993 464.8842713042982 710.60433 455.49981 L 710.60433 397.49981 C 710.5937709983967 388.1153464142749 702.9887935857251 380.5103690016033 693.60433 380.49981 Z" stroke-linecap="round" />
</g>
<g transform="matrix(1 0 0 1 364.1 653.49)"  >
<path style="stroke: none; stroke-width: 1; stroke-dasharray: none; stroke-linecap: butt; stroke-dashoffset: 0; stroke-linejoin: miter; stroke-miterlimit: 4; fill: rgb(63,61,86); fill-rule: nonzero; opacity: 1;" vector-effect="non-scaling-stroke"  transform=" translate(-424.1, -563.5)" d="M 693.60433 611.49981 L 154.60433 611.49981 C 144.11585884475363 611.4878955484165 135.61624445158355 602.9882811552463 135.60433 592.49981 L 135.60433 534.49981 C 135.61624445158353 524.0113388447537 144.11585884475363 515.5117244515835 154.60433 515.49981 L 693.60433 515.49981 C 704.0928011552463 515.5117244515835 712.5924155484165 524.0113388447537 712.60433 534.49981 L 712.60433 592.49981 C 712.5924155484165 602.9882811552463 704.0928011552464 611.4878955484165 693.60433 611.49981 Z M 154.60433 517.49981 C 145.2198481627425 517.5103250083794 137.61484500837932 525.1153281627426 137.60433 534.49981 L 137.60433 592.49981 C 137.61485050757554 601.8842895558047 145.21985044419537 609.4892894924245 154.60433 609.49981 L 693.60433 609.49981 C 702.9887913042982 609.4892454992993 710.5937654992993 601.8842713042982 710.60433 592.49981 L 710.60433 534.49981 C 710.5937709983967 525.1153464142749 702.9887935857251 517.5103690016033 693.60433 517.49981 Z" stroke-linecap="round" />
</g>
<g transform="matrix(1 0 0 1 167.43 379.49)"  >
<path style="stroke: none; stroke-width: 1; stroke-dasharray: none; stroke-linecap: butt; stroke-dashoffset: 0; stroke-linejoin: miter; stroke-miterlimit: 4; fill: rgb(108,99,255); fill-rule: nonzero; opacity: 1;" vector-effect="non-scaling-stroke"  transform=" translate(-227.44, -289.5)" d="M 243.435 321.99981 L 211.435 321.99981 C 202.3265668242694 321.989521123026 194.94528887697402 314.60824317573065 194.935 305.49981 L 194.935 273.49981 C 194.9452833779576 264.3913745428637 202.32656454286362 257.0100933779576 211.435 256.99981 L 243.435 256.99981 C 252.5434331757306 257.01009887697404 259.924711123026 264.3913768242694 259.935 273.49981 L 259.935 305.49981 C 259.9247056240223 314.60824089432816 252.54343089432814 321.9895156240223 243.435 321.99981 Z" stroke-linecap="round" />
</g>
<g transform="matrix(1 0 0 1 408.27 398.49)"  >
<path style="stroke: none; stroke-width: 1; stroke-dasharray: none; stroke-linecap: butt; stroke-dashoffset: 0; stroke-linejoin: miter; stroke-miterlimit: 4; fill: rgb(204,204,204); fill-rule: nonzero; opacity: 1;" vector-effect="non-scaling-stroke"  transform=" translate(-468.27, -308.5)" d="M 644.77365 316.49981 L 291.77365 316.49981 C 287.3553720013536 316.49981 283.77365 312.9180879986464 283.77365 308.49981 C 283.77365 304.08153200135365 287.3553720013536 300.49981 291.77365 300.49981 L 644.77365 300.49981 C 649.1919279986463 300.49981 652.77365 304.08153200135365 652.77365 308.49981 C 652.77365 312.91808799864634 649.1919279986463 316.49981 644.77365 316.49981 Z" stroke-linecap="round" />
</g>
<g transform="matrix(1 0 0 1 350.77 364.49)"  >
<path style="stroke: none; stroke-width: 1; stroke-dasharray: none; stroke-linecap: butt; stroke-dashoffset: 0; stroke-linejoin: miter; stroke-miterlimit: 4; fill: rgb(204,204,204); fill-rule: nonzero; opacity: 1;" vector-effect="non-scaling-stroke"  transform=" translate(-410.77, -274.5)" d="M 529.77365 282.49981 L 291.77365 282.49981 C 287.3553720013536 282.49981 283.77365 278.9180879986464 283.77365 274.49981 C 283.77365 270.08153200135365 287.3553720013536 266.49981 291.77365 266.49981 L 529.77365 266.49981 C 534.1919279986463 266.49981 537.77365 270.08153200135365 537.77365 274.49981 C 537.77365 278.91808799864634 534.1919279986463 282.49981 529.77365 282.49981 Z" stroke-linecap="round" />
</g>
<g transform="matrix(1 0 0 1 167.43 516.49)"  >
<path style="stroke: none; stroke-width: 1; stroke-dasharray: none; stroke-linecap: butt; stroke-dashoffset: 0; stroke-linejoin: miter; stroke-miterlimit: 4; fill: rgb(108,99,255); fill-rule: nonzero; opacity: 1;" vector-effect="non-scaling-stroke"  transform=" translate(-227.44, -426.5)" d="M 243.435 458.99981 L 211.435 458.99981 C 202.3265668242694 458.989521123026 194.94528887697402 451.60824317573065 194.935 442.49981 L 194.935 410.49981 C 194.9452833779576 401.3913745428637 202.32656454286362 394.0100933779576 211.435 393.99981 L 243.435 393.99981 C 252.5434331757306 394.01009887697404 259.924711123026 401.3913768242694 259.935 410.49981 L 259.935 442.49981 C 259.9247056240223 451.60824089432816 252.54343089432814 458.9895156240223 243.435 458.99981 Z" stroke-linecap="round" />
</g>
<g transform="matrix(1 0 0 1 408.27 535.49)"  >
<path style="stroke: none; stroke-width: 1; stroke-dasharray: none; stroke-linecap: butt; stroke-dashoffset: 0; stroke-linejoin: miter; stroke-miterlimit: 4; fill: rgb(204,204,204); fill-rule: nonzero; opacity: 1;" vector-effect="non-scaling-stroke"  transform=" translate(-468.27, -445.5)" d="M 644.77365 453.49981 L 291.77365 453.49981 C 287.3553720013536 453.49981 283.77365 449.9180879986464 283.77365 445.49981 C 283.77365 441.08153200135365 287.3553720013536 437.49981 291.77365 437.49981 L 644.77365 437.49981 C 649.1919279986463 437.49981 652.77365 441.08153200135365 652.77365 445.49981 C 652.77365 449.91808799864634 649.1919279986463 453.49981 644.77365 453.49981 Z" stroke-linecap="round" />
</g>
<g transform="matrix(1 0 0 1 350.77 501.49)"  >
<path style="stroke: none; stroke-width: 1; stroke-dasharray: none; stroke-linecap: butt; stroke-dashoffset: 0; stroke-linejoin: miter; stroke-miterlimit: 4; fill: rgb(204,204,204); fill-rule: nonzero; opacity: 1;" vector-effect="non-scaling-stroke"  transform=" translate(-410.77, -411.5)" d="M 529.77365 419.49981 L 291.77365 419.49981 C 287.3553720013536 419.49981 283.77365 415.9180879986464 283.77365 411.49981 C 283.77365 407.08153200135365 287.3553720013536 403.49981 291.77365 403.49981 L 529.77365 403.49981 C 534.1919279986463 403.49981 537.77365 407.08153200135365 537.77365 411.49981 C 537.77365 415.91808799864634 534.1919279986463 419.49981 529.77365 419.49981 Z" stroke-linecap="round" />
</g>
<g transform="matrix(1 0 0 1 167.43 653.49)"  >
<path style="stroke: none; stroke-width: 1; stroke-dasharray: none; stroke-linecap: butt; stroke-dashoffset: 0; stroke-linejoin: miter; stroke-miterlimit: 4; fill: rgb(108,99,255); fill-rule: nonzero; opacity: 1;" vector-effect="non-scaling-stroke"  transform=" translate(-227.44, -563.5)" d="M 243.435 595.99981 L 211.435 595.99981 C 202.3265668242694 595.9895211230261 194.94528887697402 588.6082431757306 194.935 579.49981 L 194.935 547.49981 C 194.9452833779576 538.3913745428637 202.32656454286362 531.0100933779577 211.435 530.99981 L 243.435 530.99981 C 252.5434331757306 531.0100988769741 259.924711123026 538.3913768242694 259.935 547.49981 L 259.935 579.49981 C 259.9247056240223 588.6082408943282 252.54343089432814 595.9895156240223 243.435 595.99981 Z" stroke-linecap="round" />
</g>
<g transform="matrix(1 0 0 1 408.27 672.49)"  >
<path style="stroke: none; stroke-width: 1; stroke-dasharray: none; stroke-linecap: butt; stroke-dashoffset: 0; stroke-linejoin: miter; stroke-miterlimit: 4; fill: rgb(204,204,204); fill-rule: nonzero; opacity: 1;" vector-effect="non-scaling-stroke"  transform=" translate(-468.27, -582.5)" d="M 644.77365 590.49981 L 291.77365 590.49981 C 287.3553720013536 590.49981 283.77365 586.9180879986463 283.77365 582.49981 C 283.77365 578.0815320013537 287.3553720013536 574.49981 291.77365 574.49981 L 644.77365 574.49981 C 649.1919279986463 574.49981 652.77365 578.0815320013537 652.77365 582.49981 C 652.77365 586.9180879986463 649.1919279986463 590.49981 644.77365 590.49981 Z" stroke-linecap="round" />
</g>
<g transform="matrix(1 0 0 1 350.77 638.49)"  >
<path style="stroke: none; stroke-width: 1; stroke-dasharray: none; stroke-linecap: butt; stroke-dashoffset: 0; stroke-linejoin: miter; stroke-miterlimit: 4; fill: rgb(204,204,204); fill-rule: nonzero; opacity: 1;" vector-effect="non-scaling-stroke"  transform=" translate(-410.77, -548.5)" d="M 529.77365 556.49981 L 291.77365 556.49981 C 287.3553720013536 556.49981 283.77365 552.9180879986463 283.77365 548.49981 C 283.77365 544.0815320013537 287.3553720013536 540.49981 291.77365 540.49981 L 529.77365 540.49981 C 534.1919279986463 540.49981 537.77365 544.0815320013537 537.77365 548.49981 C 537.77365 552.9180879986463 534.1919279986463 556.49981 529.77365 556.49981 Z" stroke-linecap="round" />
</g>
<g transform="matrix(1 0 0 1 877.11 556.46)"  >
<circle style="stroke: none; stroke-width: 1; stroke-dasharray: none; stroke-linecap: butt; stroke-dashoffset: 0; stroke-linejoin: miter; stroke-miterlimit: 4; fill: rgb(108,99,255); fill-rule: nonzero; opacity: 1;" vector-effect="non-scaling-stroke"  cx="0" cy="0" r="53.51916" />
</g>
<g transform="matrix(1 0 0 1 894.93 825.8)"  >
<path style="stroke: none; stroke-width: 1; stroke-dasharray: none; stroke-linecap: butt; stroke-dashoffset: 0; stroke-linejoin: miter; stroke-miterlimit: 4; fill: rgb(47,46,65); fill-rule: nonzero; opacity: 1;" vector-effect="non-scaling-stroke"  transform=" translate(-954.93, -735.81)" d="M 941.047 797.31337 L 941.047 674.29872 C 941.0511495050008 670.7105893128569 943.9588693128569 667.8028695050009 947.547 667.79872 L 962.30627 667.79872 C 965.8944006871432 667.8028695050008 968.8021204949991 670.7105893128569 968.80627 674.29872 L 968.80627 797.31337 C 968.8021204949991 800.9015006871431 965.8944006871432 803.8092204949992 962.30627 803.81337 L 947.547 803.81337 C 943.9588693128569 803.8092204949991 941.0511495050009 800.9015006871431 941.047 797.31337 Z" stroke-linecap="round" />
</g>
<g transform="matrix(1 0 0 1 863.73 825.8)"  >
<path style="stroke: none; stroke-width: 1; stroke-dasharray: none; stroke-linecap: butt; stroke-dashoffset: 0; stroke-linejoin: miter; stroke-miterlimit: 4; fill: rgb(47,46,65); fill-rule: nonzero; opacity: 1;" vector-effect="non-scaling-stroke"  transform=" translate(-923.73, -735.81)" d="M 909.85457 797.31337 L 909.85457 674.29872 C 909.8587195050007 670.7105893128569 912.7664393128568 667.8028695050009 916.35457 667.79872 L 931.11434 667.79872 C 934.7024706871431 667.8028695050008 937.6101904949991 670.7105893128569 937.61434 674.29872 L 937.61434 797.31337 C 937.6101904949991 800.9015006871431 934.7024706871431 803.8092204949992 931.11434 803.81337 L 916.35457 803.81337 C 912.7664393128568 803.8092204949991 909.8587195050009 800.9015006871431 909.85457 797.31337 Z" stroke-linecap="round" />
</g>
<g transform="matrix(1 0 0 1 877.72 700.52)"  >
<path style="stroke: none; stroke-width: 1; stroke-dasharray: none; stroke-linecap: butt; stroke-dashoffset: 0; stroke-linejoin: miter; stroke-miterlimit: 4; fill: rgb(47,46,65); fill-rule: nonzero; opacity: 1;" vector-effect="non-scaling-stroke"  transform=" translate(-937.72, -610.52)" d="M 971.25391 688.76074 L 904.19141 688.76074 C 900.3273538365574 688.7560674575077 897.1960825424924 685.6247961634426 897.19141 681.76074 L 897.19141 572.81641 C 897.19141 550.4316187334207 915.3378687334207 532.28516 937.72266 532.28516 C 960.1074512665793 532.28516 978.25391 550.4316187334207 978.25391 572.81641 L 978.25391 681.76074 C 978.2492319601896 685.6247938824816 975.1179638824816 688.7560619601896 971.25391 688.76074 Z" stroke-linecap="round" />
</g>
<g transform="matrix(1 0 0 1 825.05 563.09)"  >
<path style="stroke: none; stroke-width: 1; stroke-dasharray: none; stroke-linecap: butt; stroke-dashoffset: 0; stroke-linejoin: miter; stroke-miterlimit: 4; fill: rgb(47,46,65); fill-rule: nonzero; opacity: 1;" vector-effect="non-scaling-stroke"  transform=" translate(-885.05, -473.1)" d="M 891.91854 490.12587 L 891.9742 488.12587 C 888.2535 488.02235 884.9732 487.78895 882.50838 485.98817 C 881.0943946015636 484.89639573379276 880.2252157777612 483.2435784748539 880.12704 481.45985 C 880.0392550910709 480.3680753397115 880.4655249276997 479.297795393651 881.27987 478.56532000000004 C 882.9160999999999 477.18349000000006 885.54887 477.63075000000003 887.46787 478.51063000000005 L 889.1226499999999 479.26942 L 885.9493 456.079 L 883.96786 456.35049000000004 L 886.66707 476.07705000000004 C 884.0596499999999 475.31045000000006 881.64364 475.64053000000007 879.98885 477.03799000000004 C 878.7008662065764 478.16243351572695 878.0126157982614 479.8243528329138 878.1284999999999 481.53018000000003 C 878.2466818111377 483.92766980066614 879.4179624487773 486.1504897555872 881.3286999999999 487.60342 C 884.49569 489.91786 888.61141 490.0331 891.91854 490.12587 Z" stroke-linecap="round" />
</g>
<g transform="matrix(1 0 0 1 842.78 549.04)"  >
<rect style="stroke: none; stroke-width: 1; stroke-dasharray: none; stroke-linecap: butt; stroke-dashoffset: 0; stroke-linejoin: miter; stroke-miterlimit: 4; fill: rgb(47,46,65); fill-rule: nonzero; opacity: 1;" vector-effect="non-scaling-stroke"  x="-5.38574" y="-1" rx="0" ry="0" width="10.77148" height="2" />
</g>
<g transform="matrix(1 0 0 1 907.51 705.13)"  >
<path style="stroke: none; stroke-width: 1; stroke-dasharray: none; stroke-linecap: butt; stroke-dashoffset: 0; stroke-linejoin: miter; stroke-miterlimit: 4; fill: rgb(108,99,255); fill-rule: nonzero; opacity: 1;" vector-effect="non-scaling-stroke"  transform=" translate(-967.51, -615.14)" d="M 958.28617 681.68519 C 957.0135420712284 680.520685383722 956.2600474248613 678.8951870516746 956.19384 677.17145 L 951.09828 554.26376 C 951.0267571389063 552.5413567648852 951.6424296371779 550.8610938314902 952.8098405013471 549.5926537271839 C 953.9772513655164 548.3242136228776 955.6007597637127 547.5715140603329 957.32317 547.50016 L 972.07039 546.8883500000001 C 975.6556711140576 546.7435080389605 978.6813858344133 549.5286553983399 978.83339 553.11364 L 983.92926 676.02238 C 984.0735129164273 679.6075660793308 981.2887214586142 682.6330878910059 977.70389 682.7859 L 962.95732 683.39683 C 962.4871593663331 683.416820309913 962.0162125092398 683.3861672419174 961.55261 683.3054000000001 C 960.3306762553253 683.0905878449896 959.1965783531264 682.5280559257988 958.28617 681.68519 Z" stroke-linecap="round" />
</g>
<g transform="matrix(1 0 0 1 905.1 658.99)"  >
<path style="stroke: none; stroke-width: 1; stroke-dasharray: none; stroke-linecap: butt; stroke-dashoffset: 0; stroke-linejoin: miter; stroke-miterlimit: 4; fill: rgb(47,46,65); fill-rule: nonzero; opacity: 1;" vector-effect="non-scaling-stroke"  transform=" translate(-965.1, -569)" d="M 977.10433 598.49981 L 953.10433 598.49981 C 949.5161628116784 598.4957484742442 946.6083915257558 595.5879771883216 946.60433 591.99981 L 946.60433 557.99981 C 946.60433 547.7825421281303 954.8870621281303 539.49981 965.10433 539.49981 C 975.3215978718697 539.49981 983.60433 547.7825421281303 983.60433 557.99981 L 983.60433 591.99981 C 983.6002684742442 595.5879771883216 980.6924971883216 598.4957484742442 977.10433 598.49981 Z" stroke-linecap="round" />
</g>
<g transform="matrix(1 0 0 1 810.68 685)"  >
<path style="stroke: none; stroke-width: 1; stroke-dasharray: none; stroke-linecap: butt; stroke-dashoffset: 0; stroke-linejoin: miter; stroke-miterlimit: 4; fill: rgb(108,99,255); fill-rule: nonzero; opacity: 1;" vector-effect="non-scaling-stroke"  transform=" translate(-870.68, -595.01)" d="M 822.98329 644.04818 L 813.57457 632.6767 C 811.2905514353645 629.9094620650004 811.677235677934 625.815654065464 814.439 623.5250199999999 L 909.21989 545.10876 C 911.9863381576226 542.8228154329387 916.0815248401634 543.2095121355876 918.37118 545.97289 L 927.77969 557.34544 C 928.8786339182765 558.6736384083308 929.404905529519 560.3840106848902 929.2427179973024 562.1002519126326 C 929.0805304650859 563.816493140375 928.2431710170597 565.3980001078032 926.91487 566.4968200000001 L 832.135 644.91261 C 829.7837886140065 646.8565476634759 826.3976656181126 646.9058996930936 823.9908 645.03131 C 823.6206774061218 644.7406804416795 823.2828970425303 644.4110737788595 822.98329 644.04818 Z" stroke-linecap="round" />
</g>
<g transform="matrix(1 0 0 1 845.66 657.43)"  >
<path style="stroke: none; stroke-width: 1; stroke-dasharray: none; stroke-linecap: butt; stroke-dashoffset: 0; stroke-linejoin: miter; stroke-miterlimit: 4; fill: rgb(47,46,65); fill-rule: nonzero; opacity: 1;" vector-effect="non-scaling-stroke"  transform=" translate(-905.66, -567.44)" d="M 892.87969 592.9723 L 877.67651 574.4018 C 875.4067009768398 571.6228095341875 875.814682531041 567.5309155909013 878.58851 565.2547999999999 L 904.89671 543.71697 C 910.0107126841825 539.528437503696 916.9709995746069 538.3868398691571 923.1550428869559 540.7223133195336 C 929.3390861993048 543.05778676991 933.8071025814698 548.5154115614199 934.8756129919286 555.038839604187 C 935.9441234023874 561.5622676469543 933.4507473006771 568.1601396047616 928.3349499999999 572.3464799999999 L 902.0267399999999 593.8843199999999 C 899.2477382146841 596.1541638587512 895.1558007924946 595.7461712526339 892.87969 592.9723 Z" stroke-linecap="round" />
</g>
<g transform="matrix(1 0 0 1 767.19 711.18)" id="ae0384b4-8122-4d33-856d-77d2fa9820c7-865"  >
<path style="stroke: none; stroke-width: 1; stroke-dasharray: none; stroke-linecap: butt; stroke-dashoffset: 0; stroke-linejoin: miter; stroke-miterlimit: 4; fill: rgb(63,61,86); fill-rule: nonzero; opacity: 1;" vector-effect="non-scaling-stroke"  transform=" translate(-827.19, -621.19)" d="M 828.29043 597.48851 L 828.02086 597.72445 L 821.55709 590.3395300000001 C 820.5648637071455 589.2058965972313 819.1629413642116 588.512855486208 817.6597313600157 588.412868530108 C 816.1565213558198 588.312881574008 814.6751594816327 588.8141392272069 813.54153 589.8063700000001 L 797.895 603.50119 C 795.5343343173076 605.5674009232896 795.2956305067731 609.1560930656228 797.36184 611.51676 L 832.8231900000001 652.03176 C 833.8154162928546 653.1653934027687 835.2173386357885 653.8584345137921 836.7205486399844 653.9584214698921 C 838.2237586441803 654.0584084259921 839.7051205183674 653.5571507727932 840.8387500000001 652.5649199999999 L 856.4852300000001 638.8700999999999 C 858.8458383514901 636.8038771166486 859.0845139283248 633.2152324479665 857.0183300000001 630.8545899999999 L 832.6217900000001 602.98128 L 832.8913600000002 602.7453399999999 Z" stroke-linecap="round" />
</g>
<g transform="matrix(1 0 0 1 767.32 711.06)" id="afaa2d2f-7dd7-4c5b-bc7f-9a7e6e58aedc-866"  >
<path style="stroke: none; stroke-width: 1; stroke-dasharray: none; stroke-linecap: butt; stroke-dashoffset: 0; stroke-linejoin: miter; stroke-miterlimit: 4; fill: rgb(255,255,255); fill-rule: nonzero; opacity: 1;" vector-effect="non-scaling-stroke"  transform=" translate(-827.32, -621.07)" d="M 815.27036 592.16578 L 813.32242 593.8707800000001 C 813.8947710374613 594.1575900746925 814.2867836008646 594.710509612668 814.3679975563674 595.3455293150867 C 814.4492115118703 595.9805490175052 814.2089683554319 596.6143290196554 813.72722 597.0359500000001 L 805.17732 604.51939 C 804.69558987527 604.9409874473305 804.0355968208836 605.0951179951162 803.4169638964984 604.9304922816486 C 802.7983309721133 604.7658665681812 802.3022388578198 604.3040877556151 802.0937700000001 603.6988200000001 L 800.2742700000001 605.29137 C 799.4667647855335 605.9981503765429 798.9731005637335 606.9967632680181 798.9018779849346 608.0675249204533 C 798.8306554061356 609.1382865728885 799.1877086624849 610.1934856266392 799.8944900000001 611.00099 L 833.6697400000002 649.58958 C 835.1415366868415 651.2711173091814 837.6978171674593 651.4411503763433 839.3793600000001 649.9693599999999 L 854.3754600000001 636.8438 C 856.0569942962682 635.3720004274207 856.2270228720337 632.8157201610433 854.7552300000001 631.13418 L 854.7552300000001 631.13418 L 820.97992 592.5455 C 819.5081140023239 590.8640146631299 816.951876430094 590.6940095259691 815.27036 592.1657799999999 Z" stroke-linecap="round" />
</g>
<g transform="matrix(1 0 0 1 864.11 523.4)"  >
<path style="stroke: none; stroke-width: 1; stroke-dasharray: none; stroke-linecap: butt; stroke-dashoffset: 0; stroke-linejoin: miter; stroke-miterlimit: 4; fill: rgb(47,46,65); fill-rule: nonzero; opacity: 1;" vector-effect="non-scaling-stroke"  transform=" translate(-924.11, -433.41)" d="M 950.53169 475.529 C 953.31852 470.87313 955.4996 465.7433 954.46434 460.22688 C 953.53991 455.30098 949.9949799999999 451.46472 944.89761 450.96121 C 941.82794 450.65799 938.7728999999999 451.47747 935.77467 452.01121 C 933.3170270536422 452.4428854313749 930.819566107264 452.604665934361 928.32677 452.49367 C 923.3109768071694 452.26562652997353 918.3941000121906 451.01893169196256 913.87562 448.82952 C 904.5964872672361 444.4871730173971 897.6481597571441 436.3447295040428 894.81921 426.49814 C 891.77747 415.42435 894.03584 402.84947999999997 901.25953 393.83554 L 898.7524500000001 393.17363 L 902.0167600000001 403.89795 C 902.1457006778867 404.3434940582711 902.4716103465635 404.70543610747717 902.9012440094782 404.8802220393053 C 903.330877672393 405.0550079711334 903.8169012294543 405.023381066416 904.22026 404.79438999999996 C 916.1759803865646 397.2400833219057 930.7058051358542 394.9170615635924 944.4209000000001 398.36713 C 948.2557772967053 399.3306545401884 951.9597726991872 400.75531439092833 955.4519 402.60996 C 957.15583 403.51586 958.67326 400.92718 956.96606 400.01954 C 943.7115258953271 393.10512605416676 928.2044722126113 391.91719619682283 914.0514099999999 396.73203 C 910.0626850538598 398.09151928309535 906.2532035253912 399.92887486344836 902.7061 402.204 L 904.9096 403.10045 L 901.6452899999999 392.37614 C 901.4973279580651 391.8660834871744 901.09261264503 391.4710510425564 900.5791233008339 391.3354814828228 C 900.0656339566377 391.1999119230892 899.5186653840314 391.34368430391 899.13821 391.71423000000004 C 892.3491349946808 400.3261312221153 889.3721733675353 411.3373827955013 890.897 422.197 C 892.3720007110795 432.9103895935393 898.3487625770965 442.4851849132311 907.32565 448.51576 C 916.2814071548405 454.560974164424 927.2832043357015 456.77261637611997 937.87933 454.65783 C 940.81524 454.09344999999996 944.1447 453.28553999999997 947.0253799999999 454.5149 C 949.1405703393275 455.53519069479745 950.692202615458 457.4436214358224 951.25938 459.72251 C 952.89175 465.25383 950.11421 470.5066 947.27693 475.10582 Z" stroke-linecap="round" />
</g>
<g transform="matrix(1 0 0 1 874.44 646.04)"  >
<path style="stroke: none; stroke-width: 1; stroke-dasharray: none; stroke-linecap: butt; stroke-dashoffset: 0; stroke-linejoin: miter; stroke-miterlimit: 4; fill: rgb(204,204,204); fill-rule: nonzero; opacity: 1;" vector-effect="non-scaling-stroke"  transform=" translate(-934.44, -556.05)" d="M 923.72079 580.75225 L 923.68368 580.75176 C 922.5320943446334 580.7483843228148 921.536215008699 579.9483199226921 921.28475 578.82452 L 921.48031 537.15606 C 921.2190515959745 535.9941835281878 921.8017344049954 534.807089894174 922.8807 534.3030600000001 C 930.13412 530.89583 937.62923 530.4378300000001 945.79403 532.9056 C 947.0927872950999 533.2904621468006 947.8492724353864 534.6391506683817 947.50057 535.94808 L 926.13509 578.8919 C 925.8560571464537 579.9948543910352 924.858436453189 580.7635756173596 923.72079 580.75225 Z" stroke-linecap="round" />
</g>
<g transform="matrix(1 0 0 1 879.4 893.49)"  >
<path style="stroke: none; stroke-width: 1; stroke-dasharray: none; stroke-linecap: butt; stroke-dashoffset: 0; stroke-linejoin: miter; stroke-miterlimit: 4; fill: rgb(63,61,86); fill-rule: nonzero; opacity: 1;" vector-effect="non-scaling-stroke"  transform=" translate(-939.4, -803.5)" d="M 1063.39567 804.49981 L 815.3956700000001 804.49981 C 814.8433852501693 804.49981 814.3956700000001 804.0520947498309 814.3956700000001 803.49981 C 814.3956700000001 802.9475252501692 814.8433852501693 802.49981 815.3956700000001 802.49981 L 1063.39567 802.49981 C 1063.9479547498308 802.49981 1064.39567 802.9475252501692 1064.39567 803.49981 C 1064.39567 804.0520947498309 1063.9479547498308 804.49981 1063.39567 804.49981 Z" stroke-linecap="round" />
</g>
</svg>