<?xml version="1.0" encoding="UTF-8" standalone="no" ?>
<!DOCTYPE svg PUBLIC "-//W3C//DTD SVG 1.1//EN" "http://www.w3.org/Graphics/SVG/1.1/DTD/svg11.dtd">
<svg xmlns="http://www.w3.org/2000/svg" xmlns:xlink="http://www.w3.org/1999/xlink" version="1.1" width="1080" height="1080" viewBox="0 0 1080 1080" xml:space="preserve">
<desc>Created with Fabric.js 5.2.4</desc>
<defs>
</defs>
<g transform="matrix(1 0 0 1 540 540)" id="34a6c65c-2d3b-4763-b4b7-6ddea6dfb5dc"  >
<rect style="stroke: none; stroke-width: 1; stroke-dasharray: none; stroke-linecap: butt; stroke-dashoffset: 0; stroke-linejoin: miter; stroke-miterlimit: 4; fill: rgb(255,255,255); fill-rule: nonzero; opacity: 1; visibility: hidden;" vector-effect="non-scaling-stroke"  x="-540" y="-540" rx="0" ry="0" width="1080" height="1080" />
</g>
<g transform="matrix(1 0 0 1 540 540)" id="da414e97-4341-49aa-8f5b-8bc7ce608628"  >
</g>
<g transform="matrix(1 0 0 1 540 540)"  >
<g style="" vector-effect="non-scaling-stroke"   >
		<g transform="matrix(1 0 0 1 9.05 250.37)"  >
<circle style="stroke: none; stroke-width: 1; stroke-dasharray: none; stroke-linecap: butt; stroke-dashoffset: 0; stroke-linejoin: miter; stroke-miterlimit: 4; fill: rgb(108,99,255); fill-rule: nonzero; opacity: 1;" vector-effect="non-scaling-stroke"  cx="0" cy="0" r="46" />
</g>
		<g transform="matrix(1 0 0 1 43.5 23.01)"  >
<path style="stroke: none; stroke-width: 1; stroke-dasharray: none; stroke-linecap: butt; stroke-dashoffset: 0; stroke-linejoin: miter; stroke-miterlimit: 4; fill: rgb(242,242,242); fill-rule: nonzero; opacity: 1;" vector-effect="non-scaling-stroke"  transform=" translate(-643.5, -473.01)" d="M 883.86176 743.78487 C 909.59626 736.0561899999999 936.95557 727.9970099999999 957.3648900000001 709.6238699999999 C 975.60252 693.2057399999999 987.9151300000001 668.1347499999999 980.35964 643.5123699999999 C 972.81964 618.9404999999999 950.2354300000001 602.55608 926.91799 594.4070499999999 C 913.69299 589.7851699999999 899.85712 587.22097 886.02652 585.2066799999999 C 870.99167 583.0170099999999 855.89037 581.2229499999999 840.79626 579.4965599999999 Q 749.11902 569.0109299999999 656.7524 566.6855599999999 C 626.36784 565.9203099999999 595.9888199999999 565.9387399999999 565.59997 566.3798599999999 C 538.4606 566.7738599999999 509.87782 566.7640299999999 484.70097 555.2293499999998 C 465.12251 546.2595599999999 447.35296999999997 529.9405399999998 441.89767 508.49582999999984 C 435.60039 483.74115999999987 447.21567 458.53200999999984 463.87760000000003 440.60382999999985 C 472.66025 431.15371999999985 482.92491 423.19997999999987 493.51381000000003 415.88639999999987 C 505.00121 407.95223999999985 516.8892000000001 400.5799699999999 529.03465 393.69826999999987 C 552.9557334037145 380.1510373441283 577.9645725441767 368.62161084927135 603.8013499999997 359.2297699999999 C 616.5469 354.59531999999984 629.4818200000001 350.59695999999985 642.52894 346.90833999999984 C 653.5459400000001 343.79364999999984 664.59726 340.67451999999986 675.24482 336.4308599999998 C 695.82831 328.2271499999998 715.40582 314.3310099999998 720.63946 291.54943999999983 C 725.5997 269.9579899999998 717.23641 246.51876999999985 702.5744599999999 230.47886999999983 C 685.61164 211.92186999999984 660.0349699999999 203.78705999999983 635.5143899999999 202.47086999999982 C 607.98597 200.9932199999998 581.0919299999999 207.88286999999983 555.2176099999999 216.6267199999998 C 527.6208799999999 225.9527199999998 500.6190699999999 236.6759599999998 472.4393399999999 244.2299399999998 C 444.4951381756935 251.7133496392387 416.010366043717 257.008221402858 387.2435999999999 260.0664899999998 C 373.1613299999999 261.5659999999998 358.6534099999999 263.2592199999998 344.4873399999999 262.11123999999984 C 332.6148799999999 261.14912999999984 320.8030799999999 257.6574899999998 312.0532599999999 249.23159999999984 C 304.5507399999999 242.00682999999984 300.0814199999999 232.07759999999985 301.6179599999999 221.59921999999983 C 301.8970499999999 219.69603999999984 304.7881799999999 220.50514999999984 304.5107999999999 222.39673999999982 C 302.6403999999999 235.15186999999983 311.3107099999999 246.90536999999983 321.9949499999999 252.92603999999983 C 334.3431199999999 259.88435999999984 349.3690299999999 259.89383999999984 363.1167499999999 259.09803999999986 C 392.9256648880697 257.297657981342 422.53284291865634 253.01766071897242 451.6312699999998 246.30242999999984 C 480.2237899999999 239.77183999999986 507.7950899999999 230.43609999999984 535.3351799999999 220.46334999999985 C 561.4911199999999 210.99181999999985 588.23183 201.74755999999985 616.17527 199.69605999999985 C 640.42138 197.91598999999985 665.92692 201.44827999999984 687.04953 214.11918999999983 C 705.6134 225.25518999999983 719.26435 243.82640999999984 723.61404 265.1373199999998 C 727.8644800000001 285.9619399999998 721.9777200000001 306.9223199999998 706.2140400000001 321.4544599999998 C 689.8925700000001 336.5007899999998 667.5133400000001 342.9335499999998 646.65749 348.8581399999998 C 620.2052600000001 356.3725099999998 594.32023 365.1562299999998 569.2650100000001 376.5612399999998 C 543.8684898347982 388.08896341696595 519.511816446606 401.7822295837102 496.46491000000003 417.4892899999998 C 474.2186600000001 432.6915699999998 452.2642100000001 451.8198699999998 445.2283300000001 478.9405499999998 C 441.95094000000006 491.5736799999998 442.55606000000006 504.9726699999998 448.0399300000001 516.9051599999998 C 452.9159800000001 527.5150899999998 460.9464900000001 536.4398499999998 470.30162000000007 543.3236899999998 C 492.62236000000007 559.7481199999999 520.7542800000001 563.1203399999998 547.7158300000001 563.4558099999998 C 577.9972600000001 563.8325899999999 608.2796500000001 562.8106299999998 638.5709100000001 563.3078099999998 Q 731.1697100000001 564.8275799999998 823.3895400000001 574.5804599999998 Q 846.4975400000001 577.0263999999997 869.5471300000002 579.9875699999998 C 883.3687100000002 581.7635699999997 897.2368000000001 583.5281499999998 910.8256200000002 586.6822099999998 C 934.9878400000002 592.2904299999998 958.4995100000002 603.0738799999998 973.5174000000002 623.5602099999999 C 980.1827379070016 632.4400610777316 984.3119888555948 642.9630323898501 985.4644900000002 654.0061399999998 C 986.5158300000002 665.5299799999998 983.6946400000002 677.0754399999998 978.4843300000002 687.3269699999998 C 966.9520000000002 710.0173899999999 945.3507000000002 724.4498299999998 922.4109600000003 733.9316799999998 C 910.1241300000003 739.0102799999999 897.3792900000003 742.8576799999998 884.6593600000002 746.6777699999998 C 882.8063600000003 747.2342799999998 882.0144900000003 744.3397699999998 883.8618400000003 743.7849399999998 Z" stroke-linecap="round" />
</g>
		<g transform="matrix(1 0 0 1 -296.45 -228.13)"  >
<circle style="stroke: none; stroke-width: 1; stroke-dasharray: none; stroke-linecap: butt; stroke-dashoffset: 0; stroke-linejoin: miter; stroke-miterlimit: 4; fill: rgb(242,242,242); fill-rule: nonzero; opacity: 1;" vector-effect="non-scaling-stroke"  cx="0" cy="0" r="24" />
</g>
		<g transform="matrix(1 0 0 1 -129.95 -182.63)"  >
<circle style="stroke: none; stroke-width: 1; stroke-dasharray: none; stroke-linecap: butt; stroke-dashoffset: 0; stroke-linejoin: miter; stroke-miterlimit: 4; fill: rgb(242,242,242); fill-rule: nonzero; opacity: 1;" vector-effect="non-scaling-stroke"  cx="0" cy="0" r="24" />
</g>
		<g transform="matrix(1 0 0 1 11.05 -273.63)"  >
<circle style="stroke: none; stroke-width: 1; stroke-dasharray: none; stroke-linecap: butt; stroke-dashoffset: 0; stroke-linejoin: miter; stroke-miterlimit: 4; fill: rgb(242,242,242); fill-rule: nonzero; opacity: 1;" vector-effect="non-scaling-stroke"  cx="0" cy="0" r="24" />
</g>
		<g transform="matrix(1 0 0 1 99.05 -171.63)"  >
<circle style="stroke: none; stroke-width: 1; stroke-dasharray: none; stroke-linecap: butt; stroke-dashoffset: 0; stroke-linejoin: miter; stroke-miterlimit: 4; fill: rgb(242,242,242); fill-rule: nonzero; opacity: 1;" vector-effect="non-scaling-stroke"  cx="0" cy="0" r="24" />
</g>
		<g transform="matrix(1 0 0 1 -19.95 -53.63)"  >
<circle style="stroke: none; stroke-width: 1; stroke-dasharray: none; stroke-linecap: butt; stroke-dashoffset: 0; stroke-linejoin: miter; stroke-miterlimit: 4; fill: rgb(242,242,242); fill-rule: nonzero; opacity: 1;" vector-effect="non-scaling-stroke"  cx="0" cy="0" r="24" />
</g>
		<g transform="matrix(1 0 0 1 -170.95 3.37)"  >
<circle style="stroke: none; stroke-width: 1; stroke-dasharray: none; stroke-linecap: butt; stroke-dashoffset: 0; stroke-linejoin: miter; stroke-miterlimit: 4; fill: rgb(242,242,242); fill-rule: nonzero; opacity: 1;" vector-effect="non-scaling-stroke"  cx="0" cy="0" r="24" />
</g>
		<g transform="matrix(1 0 0 1 -10.95 92.37)"  >
<circle style="stroke: none; stroke-width: 1; stroke-dasharray: none; stroke-linecap: butt; stroke-dashoffset: 0; stroke-linejoin: miter; stroke-miterlimit: 4; fill: rgb(242,242,242); fill-rule: nonzero; opacity: 1;" vector-effect="non-scaling-stroke"  cx="0" cy="0" r="24" />
</g>
		<g transform="matrix(1 0 0 1 161.05 142.37)"  >
<circle style="stroke: none; stroke-width: 1; stroke-dasharray: none; stroke-linecap: butt; stroke-dashoffset: 0; stroke-linejoin: miter; stroke-miterlimit: 4; fill: rgb(242,242,242); fill-rule: nonzero; opacity: 1;" vector-effect="non-scaling-stroke"  cx="0" cy="0" r="24" />
</g>
		<g transform="matrix(1 0 0 1 362.05 131.37)"  >
<circle style="stroke: none; stroke-width: 1; stroke-dasharray: none; stroke-linecap: butt; stroke-dashoffset: 0; stroke-linejoin: miter; stroke-miterlimit: 4; fill: rgb(242,242,242); fill-rule: nonzero; opacity: 1;" vector-effect="non-scaling-stroke"  cx="0" cy="0" r="24" />
</g>
		<g transform="matrix(1 0 0 1 5.09 -36.63)"  >
<path style="stroke: none; stroke-width: 1; stroke-dasharray: none; stroke-linecap: butt; stroke-dashoffset: 0; stroke-linejoin: miter; stroke-miterlimit: 4; fill: rgb(108,99,255); fill-rule: nonzero; opacity: 1;" vector-effect="non-scaling-stroke"  transform=" translate(-605.09, -413.37)" d="M 604.12763 220.37264 C 532.23578 220.88046 473.3715199999999 279.30251 472.35027999999994 351.18899 C 472.34081999999995 351.85267999999996 472.33646999999996 356.51947 472.33703999999994 362.62321 C 472.3380228245828 381.2593722710768 487.44474782808476 396.36705084997647 506.08090999999996 396.36920999999995 L 506.08097999999995 396.36920999999995 C 515.0407338298144 396.3672472667352 523.6324205090068 392.80462369303376 529.964489228376 386.4656885871677 C 536.2965579477452 380.12675348130153 539.8498678031376 371.5312106948989 539.8421199999999 362.57145999999995 C 539.8386899999999 358.41934999999995 539.83661 355.54561999999993 539.83661 355.36918999999995 C 539.8302293590585 324.6792068652663 561.6102487703768 298.3048037186302 591.7477399737721 292.5076725757217 C 621.8852311771676 286.7105414328133 651.8955197825052 303.12276141437064 663.2751322557339 331.6250337006631 C 674.6547447289626 360.12730598695555 664.199953663921 392.69532297732525 638.3568799999999 409.2485899999999 L 638.3685899999999 409.26280999999994 C 638.3685899999999 409.26280999999994 590.3402699999999 440.18236999999993 575.6976999999999 482.5982599999999 L 575.7101499999999 482.6012599999999 C 573.1353997558208 491.290537769943 571.8307187927252 500.3064822907913 571.8366099999998 509.3691999999999 C 571.8366099999998 513.09458 572.0557699999998 545.69058 572.4792199999998 572.1468699999999 C 572.7872807913236 591.1396424456271 588.2740398862221 606.373663983833 607.2693099999998 606.3691999999999 L 607.2693799999998 606.3691999999999 C 616.5347927161441 606.3688332193362 625.4174332302715 602.6731480753932 631.9486925240533 596.1011982146285 C 638.4799518178351 589.5292483538637 642.1203981005883 580.6238262948726 642.0632199999999 571.3585899999998 C 641.9161599999999 547.1294699999999 641.8366099999998 518.9169099999998 641.8366099999998 516.8691999999999 C 641.8366099999998 490.82446999999985 666.9618599999999 464.87444999999985 687.6002799999999 447.95178999999985 C 711.3661499999998 428.46484999999984 728.4681999999999 401.90887999999984 735.3373399999999 371.9526999999998 C 736.8573327541802 365.7852817350643 737.695446216753 359.46959359518115 737.83661 353.1191999999998 C 737.8366163577437 317.7455216436426 723.7185277931611 283.8347788988 698.6153784946114 258.912318832551 C 673.5122291960615 233.98985876630198 639.5003853473631 220.1171021463634 604.12763 220.37264 Z" stroke-linecap="round" />
</g>
		<g transform="matrix(1 0 0 1 0 296.44)"  >
<path style="stroke: none; stroke-width: 1; stroke-dasharray: none; stroke-linecap: butt; stroke-dashoffset: 0; stroke-linejoin: miter; stroke-miterlimit: 4; fill: rgb(63,61,86); fill-rule: nonzero; opacity: 1;" vector-effect="non-scaling-stroke"  transform=" translate(-600, -746.44)" d="M 1021.147 747.63078 L 178.853 747.63078 C 178.1967499812349 747.6288781715289 177.66576063400885 747.0963477745319 177.66576063400885 746.4400949999999 C 177.66576063400885 745.7838422254681 178.1967499812349 745.2513118284711 178.853 745.24941 L 1021.1469999999999 745.24941 C 1021.8045971673522 745.24941 1022.3376849999999 745.7824978326478 1022.337685 746.4400949999999 C 1022.337685 747.0976921673522 1021.8045971673522 747.63078 1021.1469999999999 747.63078 Z" stroke-linecap="round" />
</g>
		<g transform="matrix(1 0 0 1 206.11 -54.63)"  >
<circle style="stroke: none; stroke-width: 1; stroke-dasharray: none; stroke-linecap: butt; stroke-dashoffset: 0; stroke-linejoin: miter; stroke-miterlimit: 4; fill: rgb(47,46,65); fill-rule: nonzero; opacity: 1;" vector-effect="non-scaling-stroke"  cx="0" cy="0" r="30" />
</g>
		<g transform="matrix(1 0 0 1 141.63 260.85)"  >
<polygon style="stroke: none; stroke-width: 1; stroke-dasharray: none; stroke-linecap: butt; stroke-dashoffset: 0; stroke-linejoin: miter; stroke-miterlimit: 4; fill: rgb(160,97,106); fill-rule: nonzero; opacity: 1;" vector-effect="non-scaling-stroke"  points="9.04,23.64 -3.21,23.64 -9.05,-23.64 9.05,-23.64 9.04,23.64 " />
</g>
		<g transform="matrix(1 0 0 1 134.03 288.44)"  >
<path style="stroke: none; stroke-width: 1; stroke-dasharray: none; stroke-linecap: butt; stroke-dashoffset: 0; stroke-linejoin: miter; stroke-miterlimit: 4; fill: rgb(47,46,65); fill-rule: nonzero; opacity: 1;" vector-effect="non-scaling-stroke"  transform=" translate(-556.37, -586.07)" d="M 551.99554 578.62562 L 575.63941 578.62562 L 575.63941 593.5124900000001 L 537.10868 593.5124900000001 L 537.10868 593.5124900000001 C 537.108677347834 589.5642475134574 538.6771087095682 585.7777138526442 541.4689368078898 582.9858838789586 C 544.2607649062114 580.194053905273 548.0472975134564 578.6256199999991 551.99554 578.62562 Z" stroke-linecap="round" />
</g>
		<g transform="matrix(1 0 0 1 236.63 260.85)"  >
<polygon style="stroke: none; stroke-width: 1; stroke-dasharray: none; stroke-linecap: butt; stroke-dashoffset: 0; stroke-linejoin: miter; stroke-miterlimit: 4; fill: rgb(160,97,106); fill-rule: nonzero; opacity: 1;" vector-effect="non-scaling-stroke"  points="9.04,23.64 -3.21,23.64 -9.05,-23.64 9.05,-23.64 9.04,23.64 " />
</g>
		<g transform="matrix(1 0 0 1 229.03 288.44)"  >
<path style="stroke: none; stroke-width: 1; stroke-dasharray: none; stroke-linecap: butt; stroke-dashoffset: 0; stroke-linejoin: miter; stroke-miterlimit: 4; fill: rgb(47,46,65); fill-rule: nonzero; opacity: 1;" vector-effect="non-scaling-stroke"  transform=" translate(-651.37, -586.07)" d="M 646.99554 578.62562 L 670.63941 578.62562 L 670.63941 593.5124900000001 L 632.10868 593.5124900000001 L 632.10868 593.5124900000001 C 632.108677347834 589.5642475134574 633.6771087095682 585.7777138526442 636.4689368078898 582.9858838789586 C 639.2607649062114 580.194053905273 643.0472975134564 578.6256199999991 646.99554 578.62562 Z" stroke-linecap="round" />
</g>
		<g transform="matrix(1 0 0 1 201.55 -49.02)"  >
<circle style="stroke: none; stroke-width: 1; stroke-dasharray: none; stroke-linecap: butt; stroke-dashoffset: 0; stroke-linejoin: miter; stroke-miterlimit: 4; fill: rgb(160,97,106); fill-rule: nonzero; opacity: 1;" vector-effect="non-scaling-stroke"  cx="0" cy="0" r="24.56103" />
</g>
		<g transform="matrix(1 0 0 1 190.59 128.22)"  >
<path style="stroke: none; stroke-width: 1; stroke-dasharray: none; stroke-linecap: butt; stroke-dashoffset: 0; stroke-linejoin: miter; stroke-miterlimit: 4; fill: rgb(47,46,65); fill-rule: nonzero; opacity: 1;" vector-effect="non-scaling-stroke"  transform=" translate(-790.59, -578.22)" d="M 816.19123 504.7751 L 827.18098 479.5251 C 832.6511357100436 467.3857087753185 829.8654284017084 453.11587878576063 820.23127 443.9251 C 819.2657436362192 442.9706167600732 818.2402179005408 442.0788000659083 817.16096 441.25509999999997 C 811.7384749244559 437.01301978734443 805.0558549684581 434.70099287225054 798.1712100000001 434.6851 C 793.5422289020888 434.7030691639053 788.9716119094612 435.7195273940436 784.7713100000001 437.6651 C 784.41096 437.8251 784.06131 437.9951 783.7010000000001 438.1651 C 783.0110600000002 438.4951 782.3313700000001 438.8551 781.6712100000001 439.2251 C 772.940546292529 444.23807537646593 767.1125056626983 453.1025292614418 765.9710200000001 463.1051 L 761.1209200000001 503.7451 C 759.90119 506.9351 716.3811700000001 622.1351 731.60139 710.0851 C 731.933700918451 712.0128713466692 733.4816915257982 713.5001470635784 735.4212100000001 713.7551 L 750.85139 715.8551 C 753.1887562670622 716.1747914620317 755.375783556124 714.6337582927006 755.8611500000001 712.3251 L 781.75129 588.9151 C 782.0832545617338 587.3371369158056 783.4494700658671 586.1895897787432 785.0610520605456 586.1350788646477 C 786.6726340552243 586.0805679505521 788.1132686137897 587.1331748592227 788.5511 588.6851 L 825.13117 718.4651 C 825.6669018420899 720.4031905669902 827.4304581029784 721.7452750242169 829.44123 721.7451 C 829.7330193076244 721.7432677123378 830.0241183522866 721.7165036756843 830.3113500000001 721.6650999999999 L 849.16096 718.0350999999999 C 851.4321443237673 717.6106618478739 853.0058359850569 715.5256245401605 852.79133 713.2251 C 850.02131 682.3351 835.3011 527.60512 816.19123 504.7751 Z" stroke-linecap="round" />
</g>
		<g transform="matrix(1 0 0 1 123.42 -10.98)"  >
<path style="stroke: none; stroke-width: 1; stroke-dasharray: none; stroke-linecap: butt; stroke-dashoffset: 0; stroke-linejoin: miter; stroke-miterlimit: 4; fill: rgb(160,97,106); fill-rule: nonzero; opacity: 1;" vector-effect="non-scaling-stroke"  transform=" translate(-723.42, -439.02)" d="M 706.10166 421.41909 C 705.7566017872422 424.37497701759753 706.7385468489078 427.3318841848848 708.783271064298 429.4941598643462 C 710.8279952796883 431.65643554380756 713.7254568863159 432.80196264440514 716.696 432.6225 L 730.42494 465.61486 L 740.80994 450.22056000000003 L 726.18057 421.25056000000006 C 725.5341598115672 416.16865300480936 721.1889313365235 412.3733828676929 716.0662585618287 412.4163768542216 C 710.9435857871338 412.45937084075035 706.6626714480603 416.3270391739369 706.10165 421.41908000000006 Z" stroke-linecap="round" />
</g>
		<g transform="matrix(1 0 0 1 213.16 67.8)"  >
<path style="stroke: none; stroke-width: 1; stroke-dasharray: none; stroke-linecap: butt; stroke-dashoffset: 0; stroke-linejoin: miter; stroke-miterlimit: 4; fill: rgb(160,97,106); fill-rule: nonzero; opacity: 1;" vector-effect="non-scaling-stroke"  transform=" translate(-813.16, -517.8)" d="M 800.19025 537.99553 C 803.1451704432302 537.6423497792157 805.7918845701718 535.9984615089336 807.4182126008453 533.5062038515437 C 809.0445406315189 531.0139461941538 809.4834211997139 527.9293314432028 808.61676 525.0823700000001 L 837.50209 504.0439100000001 L 820.11173 497.5316700000001 L 795.34786 518.50854 C 790.5564612345223 520.321285030804 787.8781319272264 525.431226967247 789.1135533359732 530.4028746437557 C 790.3489747447201 535.3745223202644 795.1076500717576 538.6364180273622 800.19025 537.99554 Z" stroke-linecap="round" />
</g>
		<g transform="matrix(1 0 0 1 155.49 13)"  >
<path style="stroke: none; stroke-width: 1; stroke-dasharray: none; stroke-linecap: butt; stroke-dashoffset: 0; stroke-linejoin: miter; stroke-miterlimit: 4; fill: rgb(47,46,65); fill-rule: nonzero; opacity: 1;" vector-effect="non-scaling-stroke"  transform=" translate(-755.49, -463)" d="M 753.10188 487.61024 C 751.994483845491 487.6091703948879 750.8898236486485 487.50025971575496 749.80354 487.28504999999996 C 744.4680203563721 486.2695502053644 739.9884056201082 482.6640360837601 737.85603 477.66883999999993 L 718.62165 454.21570999999994 C 717.7990059583489 453.21253313977815 717.449259081416 451.9031657349652 717.6621028345468 450.6233983463739 C 717.8749465876774 449.3436309577826 718.6296764310366 448.21795394271396 719.73274 447.53504999999996 L 733.41706 439.06434999999993 C 734.4375192698288 438.43251678014235 735.6680991711575 438.23451464598025 736.8352486161891 438.5143583739029 C 738.0023980612207 438.79420210182553 739.0093951449363 439.5287009868315 739.63239 440.55457999999993 L 753.18879 462.88857999999993 L 779.15022 443.702 C 783.4228992532741 441.4617967976247 788.6920917356445 442.69393023812836 791.5283684226378 446.5964720949326 C 794.364645109631 450.49901395173686 793.9098566656123 455.8912036463473 790.46 459.26356 L 764.54814 482.90028 C 761.5032811241869 485.91851789250416 757.3891780051517 487.6114080703029 753.10188 487.61024 Z" stroke-linecap="round" />
</g>
		<g transform="matrix(1 0 0 1 231.33 34.3)"  >
<path style="stroke: none; stroke-width: 1; stroke-dasharray: none; stroke-linecap: butt; stroke-dashoffset: 0; stroke-linejoin: miter; stroke-miterlimit: 4; fill: rgb(47,46,65); fill-rule: nonzero; opacity: 1;" vector-effect="non-scaling-stroke"  transform=" translate(-831.33, -484.3)" d="M 823.252 522.8827 C 823.2168499999999 522.8827 823.1814499999999 522.8827 823.1462899999999 522.8817 C 821.8701327770149 522.8506520044494 820.6669742052101 522.2799930569201 819.8354999999999 521.3113900000001 L 807.66924 507.1180300000001 C 806.8310425291199 506.14028695407103 806.4519503882635 504.85026042182307 806.627921710034 503.574489847634 C 806.8038930318045 502.298719273445 807.5180606253134 501.15948972961087 808.5896499999999 500.4451700000001 L 831.3711399999999 485.2576700000001 L 810.7327199999999 460.4451700000001 C 808.2510741598459 456.30806364061084 809.1790328757435 450.9768500652597 812.9125955370369 447.9215718522244 C 816.6461581983302 444.8662936391891 822.0555828607921 445.01145005677813 825.6199199999999 448.26256000000006 L 850.7034199999998 472.7752500000001 C 854.7107913922171 476.4360676494432 856.6648959532334 481.8314044998724 855.9312209118475 487.2093532046559 C 855.1975458704617 492.58730190943936 851.8696512449113 497.2620534243562 847.0281299999998 499.7156800000001 L 826.5269099999998 521.46959 C 825.6760035193004 522.3708755636906 824.4914986866514 522.8819844564738 823.252 522.8827 Z" stroke-linecap="round" />
</g>
		<g transform="matrix(1 0 0 1 199.22 1.38)"  >
<path style="stroke: none; stroke-width: 1; stroke-dasharray: none; stroke-linecap: butt; stroke-dashoffset: 0; stroke-linejoin: miter; stroke-miterlimit: 4; fill: rgb(230,230,230); fill-rule: nonzero; opacity: 1;" vector-effect="non-scaling-stroke"  transform=" translate(-799.22, -451.38)" d="M 795.30707 470.58358 C 795.1118157593355 470.5835308181708 794.9167599709347 470.5711360916168 794.72307 470.54647 C 792.9929787500918 470.3361262628484 791.5437972573034 469.1375329320815 791.01262 467.47762 L 781.87028 439.44833 C 781.396590793411 437.9829232717801 782.0771269657002 436.39275273685513 783.46428 435.72372 L 783.7609100000001 435.58358000000004 C 784.0299100000001 435.45565000000005 784.2963100000001 435.32919000000004 784.5682800000001 435.20809 C 788.8314717888971 433.2309966527393 793.4719728363016 432.1997362935315 798.17128 432.18509 C 804.2718196002008 432.1963518058456 810.236332427168 433.9885993917236 815.33266 437.34183 C 816.7541642613305 438.28783110550836 817.1552060795815 440.19855048017723 816.23402 441.63626 L 799.08393 468.504 C 798.2665741049447 469.80078686718196 796.8399494569883 470.58630184136604 795.30707 470.58358 Z" stroke-linecap="round" />
</g>
		<g transform="matrix(1 0 0 1 229.76 -77.84)"  >
<circle style="stroke: none; stroke-width: 1; stroke-dasharray: none; stroke-linecap: butt; stroke-dashoffset: 0; stroke-linejoin: miter; stroke-miterlimit: 4; fill: rgb(47,46,65); fill-rule: nonzero; opacity: 1;" vector-effect="non-scaling-stroke"  cx="0" cy="0" r="9.81668" />
</g>
		<g transform="matrix(1 0 0 1 201.61 -70.13)"  >
<path style="stroke: none; stroke-width: 1; stroke-dasharray: none; stroke-linecap: butt; stroke-dashoffset: 0; stroke-linejoin: miter; stroke-miterlimit: 4; fill: rgb(47,46,65); fill-rule: nonzero; opacity: 1;" vector-effect="non-scaling-stroke"  transform=" translate(-801.61, -379.87)" d="M 796.11115 361.36513 L 796.11115 361.36513 C 781.7517699358242 361.36512999996177 770.1111831370308 373.0056899358625 770.11115 387.36507 L 770.11115 398.36513 L 783.64045 398.36513 L 790.11115 387.36513 L 792.05256 398.36513 L 833.11115 398.36513 L 822.11115 387.36507 C 822.111116862969 373.0056899358625 810.4705300641757 361.36512999996177 796.11115 361.36513 Z" stroke-linecap="round" />
</g>
		<g transform="matrix(1 0 0 1 266.96 -63.04)"  >
<path style="stroke: none; stroke-width: 1; stroke-dasharray: none; stroke-linecap: butt; stroke-dashoffset: 0; stroke-linejoin: miter; stroke-miterlimit: 4; fill: rgb(47,46,65); fill-rule: nonzero; opacity: 1;" vector-effect="non-scaling-stroke"  transform=" translate(-866.96, -386.96)" d="M 834.80883 365.43121 C 837.0498043303814 358.4241810861319 844.0006967556328 354.0397753270646 851.28964 355.03563 C 857.5456399999999 356.08149000000003 862.4919199999999 361.11018 865.43908 366.72670000000005 C 868.38624 372.3432200000001 869.74714 378.62922000000003 871.72843 384.65463000000005 C 873.7097200000001 390.6800400000001 876.51967 396.73825000000005 881.52149 400.63863000000003 C 886.5233099999999 404.53901 894.1986999999999 405.59703 899.11115 401.58470000000005 C 897.9602831100938 410.1599854315507 891.4554867323541 417.0390371575961 882.9579151330283 418.66731592524604 C 874.4603435337026 420.2955946928959 865.873386083558 416.30837883281646 861.6340899999999 408.76594000000006 C 859.04203 404.15422000000007 858.3728799999999 398.74910000000006 857.6042099999999 393.5149400000001 C 856.8355399999998 388.2807800000001 855.8368099999999 382.86514000000005 852.7420999999998 378.5745100000001 C 849.6473899999997 374.2838800000001 843.8543799999999 371.48158000000006 838.9383599999999 373.43592000000007 Z" stroke-linecap="round" />
</g>
		<g transform="matrix(1 0 0 1 -95.02 -114.14)"  >
<path style="stroke: none; stroke-width: 1; stroke-dasharray: none; stroke-linecap: butt; stroke-dashoffset: 0; stroke-linejoin: miter; stroke-miterlimit: 4; fill: rgb(63,61,86); fill-rule: nonzero; opacity: 1;" vector-effect="non-scaling-stroke"  transform=" translate(-504.98, -335.86)" d="M 515.60883 380.40755 L 515.60883 380.40755 C 496.97261270647465 380.4054184753161 481.8657943119904 365.2977673827037 481.86469 346.66155000000003 C 481.8642 340.55779 481.86859 335.89104000000003 481.87787 335.22735000000006 C 482.162212354672 314.3207484801911 487.427434847329 293.7832683623595 497.23675999999995 275.31860000000006 C 481.1203045995386 297.38149596902116 472.25869640413765 323.90764128147936 471.87787 351.2273500000001 C 471.86859 351.89104000000003 471.8642 356.55779000000007 471.86469 362.66155000000003 C 471.8657943119904 381.2977673827037 486.97261270647465 396.4054184753161 505.60883 396.40755 L 505.60883 396.40755 C 520.7199220473907 396.40181947004663 533.9881685758114 386.3588624185065 538.09662 371.817 C 531.9178247430798 377.3577855860835 523.9080899143006 380.4175805918786 515.60883 380.40755 Z" stroke-linecap="round" />
</g>
		<g transform="matrix(1 0 0 1 16 -121.85)"  >
<path style="stroke: none; stroke-width: 1; stroke-dasharray: none; stroke-linecap: butt; stroke-dashoffset: 0; stroke-linejoin: miter; stroke-miterlimit: 4; fill: rgb(63,61,86); fill-rule: nonzero; opacity: 1;" vector-effect="non-scaling-stroke"  transform=" translate(-616, -328.15)" d="M 606.415 291.47848 C 627.4167900404485 292.48152257690924 646.5864508608406 303.73555742201347 657.697897991415 321.58540397537706 C 668.8093451219893 339.43525052874065 670.4452090268139 361.6039930629619 662.07418 380.89147999999994 C 678.3673765893803 361.75619273657526 681.9523099467832 334.85566840405886 671.2389256011064 312.12131401217454 C 660.5255412554297 289.3869596202902 637.4972620580296 275.0277008041843 612.368006832251 275.41241570077204 C 587.2387516064723 275.7971305973598 564.6608260518194 290.8545949984426 554.6483999999999 313.90625 C 567.4882378658715 298.8016822419406 586.613936916776 290.51551356555655 606.415 291.47848 Z" stroke-linecap="round" />
</g>
		<g transform="matrix(1 0 0 1 5.78 80.17)"  >
<path style="stroke: none; stroke-width: 1; stroke-dasharray: none; stroke-linecap: butt; stroke-dashoffset: 0; stroke-linejoin: miter; stroke-miterlimit: 4; fill: rgb(63,61,86); fill-rule: nonzero; opacity: 1;" vector-effect="non-scaling-stroke"  transform=" translate(-605.78, -530.17)" d="M 616.79682 590.40755 L 616.79682 590.40755 C 597.8016498403342 590.4117873025417 582.3150455729641 575.1778697529747 582.0068200000001 556.1852 C 581.58348 529.72891 581.3642400000001 497.1329 581.3642400000001 493.40755 C 581.3583487927255 484.3448322907914 582.6630297558211 475.32888776994315 585.2377800000002 466.63961 L 585.2255700000002 466.63661 C 586.7459856036727 462.27514283503916 588.582228854158 458.0302770666404 590.7197100000002 453.93574 C 584.1580606334483 462.6799754049195 578.9360059282603 472.35314947114625 575.2255700000002 482.6366100000001 L 575.2377800000002 482.63961 C 572.6630297558211 491.3288877699431 571.3583487927255 500.3448322907914 571.3642400000001 509.40755 C 571.3642400000001 513.1329000000001 571.5834800000001 545.72891 572.0068200000001 572.1852 C 572.3150455729641 591.1778697529747 587.8016498403342 606.4117873025418 606.79682 606.40755 L 606.79682 606.40755 C 622.2587960961066 606.404839050055 635.8650489998147 596.2013418902145 640.19867 581.35909 C 633.8017783583769 587.1918965611641 625.4537078240172 590.4197260835024 616.79682 590.40755 Z" stroke-linecap="round" />
</g>
		<g transform="matrix(1 0 0 1 -286.75 261.31)"  >
<polygon style="stroke: none; stroke-width: 1; stroke-dasharray: none; stroke-linecap: butt; stroke-dashoffset: 0; stroke-linejoin: miter; stroke-miterlimit: 4; fill: rgb(255,184,184); fill-rule: nonzero; opacity: 1;" vector-effect="non-scaling-stroke"  points="-9.04,23.64 3.21,23.64 9.05,-23.64 -9.05,-23.64 -9.04,23.64 " />
</g>
		<g transform="matrix(-1 0 0 -1 -279.16 288.89)"  >
<path style="stroke: none; stroke-width: 1; stroke-dasharray: none; stroke-linecap: butt; stroke-dashoffset: 0; stroke-linejoin: miter; stroke-miterlimit: 4; fill: rgb(47,46,65); fill-rule: nonzero; opacity: 1;" vector-effect="non-scaling-stroke"  transform=" translate(-320.84, -738.89)" d="M 301.576 731.45065 L 340.1067 731.45065 L 340.1067 746.33752 L 316.46283 746.33752 C 308.24105596486515 746.3375034314812 301.5759999999833 739.6724340351516 301.576 731.45066 L 301.576 731.45066 Z" stroke-linecap="round" />
</g>
		<g transform="matrix(1 0 0 1 -330.75 261.31)"  >
<polygon style="stroke: none; stroke-width: 1; stroke-dasharray: none; stroke-linecap: butt; stroke-dashoffset: 0; stroke-linejoin: miter; stroke-miterlimit: 4; fill: rgb(255,184,184); fill-rule: nonzero; opacity: 1;" vector-effect="non-scaling-stroke"  points="-9.04,23.64 3.21,23.64 9.05,-23.64 -9.05,-23.64 -9.04,23.64 " />
</g>
		<g transform="matrix(-1 0 0 -1 -323.16 288.89)"  >
<path style="stroke: none; stroke-width: 1; stroke-dasharray: none; stroke-linecap: butt; stroke-dashoffset: 0; stroke-linejoin: miter; stroke-miterlimit: 4; fill: rgb(47,46,65); fill-rule: nonzero; opacity: 1;" vector-effect="non-scaling-stroke"  transform=" translate(-276.84, -738.89)" d="M 257.576 731.45065 L 296.1067 731.45065 L 296.1067 746.33752 L 272.46283 746.33752 C 264.24105596486515 746.3375034314812 257.5759999999833 739.6724340351516 257.576 731.45066 L 257.576 731.45066 Z" stroke-linecap="round" />
</g>
		<g transform="matrix(1 0 0 1 -302.2 188.38)"  >
<path style="stroke: none; stroke-width: 1; stroke-dasharray: none; stroke-linecap: butt; stroke-dashoffset: 0; stroke-linejoin: miter; stroke-miterlimit: 4; fill: rgb(47,46,65); fill-rule: nonzero; opacity: 1;" vector-effect="non-scaling-stroke"  transform=" translate(-297.81, -638.38)" d="M 270.91659 720.41068 L 258.94158999999996 719.7808 C 257.6943458145337 719.7152302993859 256.52523899701265 719.1531559605029 255.69511413049614 718.2199838703667 C 254.86498926397962 717.2868117802306 254.44292141335987 716.0601916097303 254.52307999999996 714.8138 L 268.83575999999994 556.3478600000001 L 334.74675999999994 574.1334800000001 L 341.09698999999995 572.4010700000001 L 321.23868 712.68583 C 320.8901878354266 714.8597122497927 319.0782734993557 716.4996798167886 316.88052 716.63041 L 303.97162 717.2318799999999 C 302.66662303181664 717.3043394782743 301.39089865712833 716.827094470297 300.4538824574012 715.9159039828529 C 299.51686625767417 715.004713495409 299.0041621551532 713.7428220654232 299.04013 712.4363099999999 L 301.37913 628.2398999999999 C 301.40180121327484 627.4328624335262 300.80425757371336 626.7421845466049 300.0023515583286 626.6485343458526 C 299.20044554294384 626.5548841451003 298.4598315721498 627.0892859517281 298.29593 627.87983 L 275.739 716.69228 C 275.29991490356286 718.8652163832285 273.38671316726646 720.4251704813986 271.16987 720.41778 C 271.086 720.41778 271.00154 720.41575 270.91659 720.41068 Z" stroke-linecap="round" />
</g>
		<g transform="matrix(1 0 0 1 -293.6 -47.87)"  >
<circle style="stroke: none; stroke-width: 1; stroke-dasharray: none; stroke-linecap: butt; stroke-dashoffset: 0; stroke-linejoin: miter; stroke-miterlimit: 4; fill: rgb(255,184,184); fill-rule: nonzero; opacity: 1;" vector-effect="non-scaling-stroke"  cx="0" cy="0" r="24.56103" />
</g>
		<g transform="matrix(1 0 0 1 -296.34 58.26)"  >
<path style="stroke: none; stroke-width: 1; stroke-dasharray: none; stroke-linecap: butt; stroke-dashoffset: 0; stroke-linejoin: miter; stroke-miterlimit: 4; fill: rgb(204,204,204); fill-rule: nonzero; opacity: 1;" vector-effect="non-scaling-stroke"  transform=" translate(-303.67, -508.26)" d="M 265.51193 474.28693 L 268.21249 532.55441 L 269.18874 553.75293 C 269.26833265793664 555.6406560640295 270.4840825634212 557.2918079318787 272.26306 557.92827 L 335.59906 580.87169 C 336.1106880162639 581.0618911237782 336.6527825589971 581.1569374586679 337.1986 581.1521399999999 C 338.45909630231796 581.1582154140139 339.66790283322126 580.6515956260853 340.54741239753156 579.7486278718994 C 341.42692196184186 578.8456601177136 341.9015549423291 577.6239398663839 341.86231 576.3640399999999 L 339.2657 471.5969 C 338.9138759277352 453.8651999466141 326.0071486116061 438.88732234782447 308.522 435.91974 C 307.90936999999997 435.82629 307.28607999999997 435.73278999999997 306.6628 435.64968 C 296.02331162271093 434.3289833796499 285.3449526646314 437.7857547207162 277.4978 445.0909 C 269.3718012975139 452.56476326363446 264.9813686744792 463.25925185957806 265.51189999999997 474.2869 Z" stroke-linecap="round" />
</g>
		<g transform="matrix(1 0 0 1 -240.99 97.02)"  >
<path style="stroke: none; stroke-width: 1; stroke-dasharray: none; stroke-linecap: butt; stroke-dashoffset: 0; stroke-linejoin: miter; stroke-miterlimit: 4; fill: rgb(255,184,184); fill-rule: nonzero; opacity: 1;" vector-effect="non-scaling-stroke"  transform=" translate(-359.02, -547.02)" d="M 365.85452 569.24512 C 362.81698952219057 568.3025280022267 360.4037938779333 565.9795405865349 359.34621817483793 562.9801065215637 C 358.2886424717425 559.9806724565924 358.71116639746793 556.6578337179363 360.48575 554.01853 L 339.00775 525.4585300000001 L 357.54199 524.3114600000001 L 375.09638 551.6083900000001 C 378.97541670748507 554.6074512380586 380.14364093462655 559.9574000215391 377.86783894555384 564.3004426639932 C 375.59203695648114 568.6434853064472 370.52819615934305 570.7277636496598 365.85454 569.24512 Z" stroke-linecap="round" />
</g>
		<g transform="matrix(1 0 0 1 -256.78 50.57)"  >
<path style="stroke: none; stroke-width: 1; stroke-dasharray: none; stroke-linecap: butt; stroke-dashoffset: 0; stroke-linejoin: miter; stroke-miterlimit: 4; fill: rgb(204,204,204); fill-rule: nonzero; opacity: 1;" vector-effect="non-scaling-stroke"  transform=" translate(-343.22, -500.57)" d="M 350.75332 548.85022 C 349.60397071393214 548.3837397575262 348.68898021808957 547.4768799179436 348.21225999999996 546.3317400000001 L 315.854 469.2374 C 314.1266535743776 465.1308480257023 314.72259786775925 460.4145769750472 317.4171428418244 456.8667717134159 C 320.1116878158896 453.3189664517846 324.49502498557547 451.47920628238444 328.9144961954702 452.0411395672416 C 333.3339674053649 452.60307285209876 337.11742325037864 455.48123617145586 338.83838 459.59047 L 371.19658 536.68581 C 372.19236818707077 539.0658125713699 371.07379778119633 541.8027510106413 368.6961 542.8040299999999 L 354.33068000000003 548.8330299999999 C 353.18841378980676 549.316540135659 351.900143242569 549.3227484775138 350.75327000000004 548.8502699999999 Z" stroke-linecap="round" />
</g>
		<g transform="matrix(1 0 0 1 -259.08 80.41)"  >
<path style="stroke: none; stroke-width: 1; stroke-dasharray: none; stroke-linecap: butt; stroke-dashoffset: 0; stroke-linejoin: miter; stroke-miterlimit: 4; fill: rgb(63,61,86); fill-rule: nonzero; opacity: 1;" vector-effect="non-scaling-stroke"  transform=" translate(-340.92, -530.41)" d="M 298.50776 546.13086 L 329.587 486.62205 C 330.83492054066403 484.2391431763946 333.7762279349239 483.3160607863482 336.16194 484.55861 L 381.27346 508.11870999999996 C 383.65636309209447 509.3666341070364 384.57944071980734 512.3079405809922 383.33689 514.6936499999999 L 352.25762 574.20246 C 351.00969564113933 576.5853622556898 348.06839258852165 577.5084432831811 345.68267999999995 576.2659 L 300.5712 552.7058 C 298.1882931763946 551.4578794593359 297.2652107863483 548.516572065076 298.50776 546.13086 Z" stroke-linecap="round" />
</g>
		<g transform="matrix(1 0 0 1 -302.99 63.7)"  >
<path style="stroke: none; stroke-width: 1; stroke-dasharray: none; stroke-linecap: butt; stroke-dashoffset: 0; stroke-linejoin: miter; stroke-miterlimit: 4; fill: rgb(255,184,184); fill-rule: nonzero; opacity: 1;" vector-effect="non-scaling-stroke"  transform=" translate(-297.01, -513.7)" d="M 319.35062 518.94278 C 318.23028986500293 515.9662362166594 315.76886451901095 513.6944487004301 312.7122325462093 512.8158398634766 C 309.65560057340764 511.9372310265231 306.3635297036962 512.5552137460098 303.83362 514.48252 L 274.05517 494.72846000000004 L 274.00455999999997 513.29809 L 302.2904 529.21 C 305.513286243082 532.9051809449435 310.92289166971364 533.7554534511823 315.12397310275617 531.2271590172475 C 319.32505453579864 528.6988645833126 321.1066699759192 523.5207722096451 319.35062 518.94282 Z" stroke-linecap="round" />
</g>
		<g transform="matrix(1 0 0 1 -327.35 34.09)"  >
<path style="stroke: none; stroke-width: 1; stroke-dasharray: none; stroke-linecap: butt; stroke-dashoffset: 0; stroke-linejoin: miter; stroke-miterlimit: 4; fill: rgb(204,204,204); fill-rule: nonzero; opacity: 1;" vector-effect="non-scaling-stroke"  transform=" translate(-272.66, -484.09)" d="M 281.7006 523.11883 L 257.36383 503.84107 C 252.01959251099564 502.0465926284958 247.89733997886663 497.7420899254478 246.33559813849794 492.3252655975078 C 244.77385629812926 486.90844126956785 245.9717820177241 481.07006106359245 249.5404 476.70589 L 271.63755000000003 447.74638 C 274.8116436513553 443.8676314896884 280.350680337584 442.90462176702306 284.6476554833095 445.4844599617236 C 288.944630629035 448.0642981564241 290.6985004409239 453.4058574624957 288.76715 458.03073 L 271.28331000000003 486.63073 L 296.97731000000005 498.81759000000005 C 298.1858899423514 499.3907616924567 299.0909594658454 500.4543054867141 299.4634206770091 501.73900930949435 C 299.8358818881727 503.02371313227457 299.6400334616336 504.40643495479827 298.92545000000007 505.53717000000006 L 288.55370000000005 521.95123 C 287.8446565017877 523.0715642034642 286.69385759770034 523.8387489366474 285.38699 524.06233 C 285.36134000000004 524.0668099999999 285.3355 524.07079 285.30969000000005 524.07463 C 284.0262633899197 524.2685563468086 282.7198139574766 523.9225676439696 281.7006 523.11883 Z" stroke-linecap="round" />
</g>
		<g transform="matrix(1 0 0 1 -296.83 -56)"  >
<path style="stroke: none; stroke-width: 1; stroke-dasharray: none; stroke-linecap: butt; stroke-dashoffset: 0; stroke-linejoin: miter; stroke-miterlimit: 4; fill: rgb(47,46,65); fill-rule: nonzero; opacity: 1;" vector-effect="non-scaling-stroke"  transform=" translate(-303.17, -394)" d="M 287.84537 418.57447 C 287.63179652155026 417.94971109885483 287.7193274335982 417.26128570540084 288.08244978099697 416.7098516875194 C 288.44557212839567 416.15841766963797 289.0434176040182 415.80603723574023 289.70173 415.75542 C 291.0459661194829 415.8285367492264 292.3018474335259 416.44813159963866 293.17783 417.47037 C 294.0666985423557 418.49524409927136 295.1014916297074 419.3837917763911 296.24897999999996 420.10748 C 297.4371 420.70637 299.04850999999996 420.62102 299.72583 419.47924 C 300.36188 418.40703 299.92605999999995 416.97124 299.54100999999997 415.72577 C 298.5611821010707 412.55713345533894 298.01294271100085 409.2708790971336 297.9111 405.95577000000003 C 297.80017999999995 402.25545000000005 298.32225 398.39377 300.37082 395.50770000000006 C 303.01469 391.7829500000001 307.74224 390.3688700000001 312.21626 390.4714000000001 C 316.69028 390.5739300000001 321.09173 391.95502000000005 325.52338999999995 392.8280500000001 C 327.05330999999995 393.1294400000001 328.85164999999995 393.28355000000005 329.87492 392.09780000000006 C 330.96297 390.83698000000004 330.56336 388.79640000000006 330.10055 387.09404000000006 C 328.89961 382.67661000000004 327.62555 378.1094300000001 324.8353 374.5418000000001 C 321.8183295192088 370.8346992001048 317.5087626552563 368.4084473691251 312.77449 367.7516600000001 C 308.2293175856691 367.1886407095085 303.61541534635893 367.712456437547 299.31213 369.2800400000001 C 292.300993256369 371.4898543050361 286.1316872530447 375.78764639921496 281.62928000000005 381.5986400000001 C 276.98797598612884 387.77838777615364 274.9824343431271 395.54450136373464 276.0511900000001 403.1988300000001 C 277.0953109389226 409.8654433190106 280.6279440778915 415.8883498501759 285.93698000000006 420.0534500000001 Z" stroke-linecap="round" />
</g>
		<g transform="matrix(1 0 0 1 3.7 255.23)"  >
<path style="stroke: none; stroke-width: 1; stroke-dasharray: none; stroke-linecap: butt; stroke-dashoffset: 0; stroke-linejoin: miter; stroke-miterlimit: 4; fill: rgb(63,61,86); fill-rule: nonzero; opacity: 1;" vector-effect="non-scaling-stroke"  transform=" translate(-603.7, -705.23)" d="M 598.92043 735.14922 C 585.6723315611074 729.3791921277294 575.9060937982534 717.7185454483555 572.5500035978343 703.6635821805266 C 569.1939133974153 689.6086189126978 572.6381865879904 674.7935231246013 581.8501 663.66042 C 567.4696623989088 674.160055524095 560.4407283361807 692.0161683832946 563.8052782430954 709.5009942520757 C 567.16982815001 726.9858201208567 580.3234323269587 740.9582707883242 597.5734770504396 745.3713523393069 C 614.8235217739204 749.7844338902896 633.071096449972 743.8453515587694 644.41902 730.1244200000001 C 631.2243579340034 739.7682461887504 613.9015421992711 741.6813534851277 598.92043 735.14922 Z" stroke-linecap="round" />
</g>
</g>
</g>
</svg>