<?xml version="1.0" encoding="UTF-8" standalone="no" ?>
<!DOCTYPE svg PUBLIC "-//W3C//DTD SVG 1.1//EN" "http://www.w3.org/Graphics/SVG/1.1/DTD/svg11.dtd">
<svg xmlns="http://www.w3.org/2000/svg" xmlns:xlink="http://www.w3.org/1999/xlink" version="1.1" width="1080" height="1080" viewBox="0 0 1080 1080" xml:space="preserve">
<desc>Created with Fabric.js 5.2.4</desc>
<defs>
</defs>
<g transform="matrix(1 0 0 1 540 540)" id="41594000-8c01-496f-9707-bcce1a8fe24d"  >
<rect style="stroke: none; stroke-width: 1; stroke-dasharray: none; stroke-linecap: butt; stroke-dashoffset: 0; stroke-linejoin: miter; stroke-miterlimit: 4; fill: rgb(255,255,255); fill-rule: nonzero; opacity: 1; visibility: hidden;" vector-effect="non-scaling-stroke"  x="-540" y="-540" rx="0" ry="0" width="1080" height="1080" />
</g>
<g transform="matrix(1 0 0 1 540 540)" id="112b95f5-b12b-4f9a-b559-e7b17ecf87b0"  >
</g>
<g transform="matrix(1 0 0 1 540 540)"  >
<g style="" vector-effect="non-scaling-stroke"   >
		<g transform="matrix(1 0 0 1 45.28 194.76)"  >
<path style="stroke: none; stroke-width: 1; stroke-dasharray: none; stroke-linecap: butt; stroke-dashoffset: 0; stroke-linejoin: miter; stroke-miterlimit: 4; fill: rgb(204,204,204); fill-rule: nonzero; opacity: 1;" vector-effect="non-scaling-stroke"  transform=" translate(-645.28, -644.76)" d="M 666.90719 666.03923 C 655.158513877577 666.0311767579866 645.6385987551331 656.5047338825084 645.6385987551331 644.7560550000001 C 645.6385987551331 633.0073761174916 655.158513877577 623.4809332420134 666.90719 623.47288 L 983.042 623.47288 C 979.8030356321814 617.527088390869 973.5754683888175 613.8248935731493 966.8047 613.82005 L 338.41256 613.82005 C 321.3412554271314 613.8392061492667 307.5129754936863 627.6847348115275 307.51509999999996 644.7560500000001 C 307.5237363282077 661.8229106310234 321.3457233952936 675.6621385775074 338.41256 675.6920500000001 L 966.80465 675.6920500000001 C 973.5753893383326 675.6870424808628 979.8028879515302 671.9848654509163 983.04195 666.0391600000002 Z" stroke-linecap="round" />
</g>
		<g transform="matrix(1 0 0 1 233.18 183.46)"  >
<path style="stroke: none; stroke-width: 1; stroke-dasharray: none; stroke-linecap: butt; stroke-dashoffset: 0; stroke-linejoin: miter; stroke-miterlimit: 4; fill: rgb(204,204,204); fill-rule: nonzero; opacity: 1;" vector-effect="non-scaling-stroke"  transform=" translate(-833.18, -633.46)" d="M 983.46178 635.20036 L 682.89113 635.20036 C 681.9332150989499 635.1980618588088 681.157888222033 634.4208726577905 681.157888222033 633.462955 C 681.157888222033 632.5050373422096 681.9332150989499 631.7278481411912 682.89113 631.72555 L 983.46178 631.72555 C 984.4196949010501 631.7278481411912 985.195021777967 632.5050373422096 985.195021777967 633.462955 C 985.195021777967 634.4208726577905 984.4196949010501 635.1980618588088 983.46178 635.20036 Z" stroke-linecap="round" />
</g>
		<g transform="matrix(1 0 0 1 233.18 194.76)"  >
<path style="stroke: none; stroke-width: 1; stroke-dasharray: none; stroke-linecap: butt; stroke-dashoffset: 0; stroke-linejoin: miter; stroke-miterlimit: 4; fill: rgb(204,204,204); fill-rule: nonzero; opacity: 1;" vector-effect="non-scaling-stroke"  transform=" translate(-833.18, -644.76)" d="M 983.46178 646.49347 L 682.89113 646.49347 C 681.9315905798532 646.4934698526259 681.1537302668443 645.7156094201468 681.1537302668443 644.75607 C 681.1537302668443 643.7965305798532 681.9315905798532 643.0186701473741 682.89113 643.01867 L 983.46178 643.01867 C 984.4213194201468 643.0186701473741 985.1991797331557 643.7965305798532 985.1991797331557 644.75607 C 985.1991797331557 645.7156094201468 984.4213194201468 646.4934698526259 983.46178 646.49347 Z" stroke-linecap="round" />
</g>
		<g transform="matrix(1 0 0 1 233.18 206.05)"  >
<path style="stroke: none; stroke-width: 1; stroke-dasharray: none; stroke-linecap: butt; stroke-dashoffset: 0; stroke-linejoin: miter; stroke-miterlimit: 4; fill: rgb(204,204,204); fill-rule: nonzero; opacity: 1;" vector-effect="non-scaling-stroke"  transform=" translate(-833.18, -656.05)" d="M 983.46178 657.78659 L 682.89113 657.78659 C 681.9332150989499 657.7842918588088 681.157888222033 657.0071026577905 681.157888222033 656.0491850000001 C 681.157888222033 655.0912673422096 681.9332150989499 654.3140781411912 682.89113 654.31178 L 983.46178 654.31178 C 984.4196949010501 654.3140781411912 985.195021777967 655.0912673422096 985.195021777967 656.049185 C 985.195021777967 657.0071026577905 984.4196949010501 657.7842918588088 983.46178 657.78659 Z" stroke-linecap="round" />
</g>
		<g transform="matrix(1 0 0 1 -36.38 134.82)"  >
<path style="stroke: none; stroke-width: 1; stroke-dasharray: none; stroke-linecap: butt; stroke-dashoffset: 0; stroke-linejoin: miter; stroke-miterlimit: 4; fill: rgb(108,99,255); fill-rule: nonzero; opacity: 1;" vector-effect="non-scaling-stroke"  transform=" translate(-563.62, -584.82)" d="M 585.249 606.09886 C 573.500323877577 606.0908067579866 563.9804087551331 596.5643638825084 563.9804087551331 584.815685 C 563.9804087551331 573.0670061174916 573.500323877577 563.5405632420134 585.249 563.53251 L 901.38375 563.53251 C 898.144883875758 557.5868461548082 891.917539058179 553.8846511119267 885.14693 553.87962 L 256.75484 553.87962 C 239.68351441451455 553.8989357553941 225.8551734292198 567.7442835682324 225.85684 584.8156200000001 C 225.86570797317555 601.8825953710755 239.68788841988692 615.7217750687732 256.75484 615.7516200000001 L 885.14693 615.7516200000001 C 891.9175298721274 615.7466138870551 898.1448777589917 612.0444400314134 901.38375 606.0987900000001 Z" stroke-linecap="round" />
</g>
		<g transform="matrix(1 0 0 1 151.52 123.52)"  >
<path style="stroke: none; stroke-width: 1; stroke-dasharray: none; stroke-linecap: butt; stroke-dashoffset: 0; stroke-linejoin: miter; stroke-miterlimit: 4; fill: rgb(204,204,204); fill-rule: nonzero; opacity: 1;" vector-effect="non-scaling-stroke"  transform=" translate(-751.52, -573.52)" d="M 901.80385 575.26 L 601.23321 575.26 C 600.2752950989499 575.2577018588088 599.499968222033 574.4805126577904 599.499968222033 573.5225949999999 C 599.499968222033 572.5646773422095 600.2752950989499 571.7874881411911 601.23321 571.78519 L 901.80385 571.78519 C 902.7633922857798 571.78519 903.541255 572.5630527142201 903.541255 573.5225949999999 C 903.5412550000001 574.4821372857798 902.7633922857798 575.26 901.80385 575.26 Z" stroke-linecap="round" />
</g>
		<g transform="matrix(1 0 0 1 151.52 134.82)"  >
<path style="stroke: none; stroke-width: 1; stroke-dasharray: none; stroke-linecap: butt; stroke-dashoffset: 0; stroke-linejoin: miter; stroke-miterlimit: 4; fill: rgb(204,204,204); fill-rule: nonzero; opacity: 1;" vector-effect="non-scaling-stroke"  transform=" translate(-751.52, -584.82)" d="M 901.80385 586.55308 L 601.23321 586.55308 C 600.2736705798532 586.553079852626 599.4958102668443 585.7752194201469 599.4958102668443 584.81568 C 599.4958102668443 583.8561405798532 600.2736705798532 583.0782801473741 601.23321 583.0782800000001 L 901.80385 583.0782800000001 C 902.4245632994626 583.0782799046658 902.9981260816534 583.4094264530563 903.3084827589054 583.9469799229687 C 903.6188394361574 584.4845333928812 903.6188394361574 585.1468266071189 903.3084827589054 585.6843800770314 C 902.9981260816534 586.2219335469438 902.4245632994626 586.5530800953343 901.80385 586.55308 Z" stroke-linecap="round" />
</g>
		<g transform="matrix(1 0 0 1 151.52 146.11)"  >
<path style="stroke: none; stroke-width: 1; stroke-dasharray: none; stroke-linecap: butt; stroke-dashoffset: 0; stroke-linejoin: miter; stroke-miterlimit: 4; fill: rgb(204,204,204); fill-rule: nonzero; opacity: 1;" vector-effect="non-scaling-stroke"  transform=" translate(-751.52, -596.11)" d="M 901.80385 597.8462 L 601.23321 597.8462 C 600.2752950989499 597.8439018588087 599.499968222033 597.0667126577904 599.499968222033 596.1087949999999 C 599.499968222033 595.1508773422095 600.2752950989499 594.3736881411911 601.23321 594.3713899999999 L 901.80385 594.3713899999999 C 902.4255579016284 594.3698984556717 903.0006789152977 594.7007193917697 903.3119642334321 595.2388870146954 C 903.6232495515666 595.7770546376212 903.6232495515666 596.4405353623787 903.3119642334321 596.9787029853045 C 903.0006789152977 597.5168706082302 902.4255579016284 597.8476915443282 901.80385 597.8462 Z" stroke-linecap="round" />
</g>
		<g transform="matrix(1 0 0 1 -118.04 72.88)"  >
<path style="stroke: none; stroke-width: 1; stroke-dasharray: none; stroke-linecap: butt; stroke-dashoffset: 0; stroke-linejoin: miter; stroke-miterlimit: 4; fill: rgb(204,204,204); fill-rule: nonzero; opacity: 1;" vector-effect="non-scaling-stroke"  transform=" translate(-481.96, -522.88)" d="M 503.59127 544.15849 C 491.8425773130269 544.1504367523405 482.32264876535623 534.6239804470586 482.32264876535623 522.8752850000001 C 482.32264876535623 511.1265895529415 491.8425773130269 501.6001332476595 503.59127 501.59208 L 819.726 501.59208 C 816.4870463947282 495.6465052080782 810.2597626122656 491.944344170849 803.48919 491.93919 L 175.09664 491.93919 C 158.02533542713144 491.95834614926673 144.1970554936864 505.80387481152746 144.19918 522.87519 C 144.2078163282077 539.9420506310233 158.0298033952936 553.7812785775074 175.09664 553.81119 L 803.48922 553.81119 C 810.2598082955323 553.8062095706106 816.4871566025487 550.1040561970403 819.72603 544.15842 Z" stroke-linecap="round" />
</g>
		<g transform="matrix(1 0 0 1 69.86 61.58)"  >
<path style="stroke: none; stroke-width: 1; stroke-dasharray: none; stroke-linecap: butt; stroke-dashoffset: 0; stroke-linejoin: miter; stroke-miterlimit: 4; fill: rgb(204,204,204); fill-rule: nonzero; opacity: 1;" vector-effect="non-scaling-stroke"  transform=" translate(-669.86, -511.58)" d="M 820.14593 513.31958 L 519.57529 513.31958 C 518.6173750989545 513.3172818588023 517.8420482220448 512.5400926577859 517.8420482220448 511.582175 C 517.8420482220448 510.6242573422141 518.6173750989545 509.8470681411977 519.57529 509.84477 L 820.14593 509.84477 C 821.1054722857798 509.84477 821.883335 510.62263271422023 821.883335 511.58217499999995 C 821.883335 512.5417172857798 821.1054722857798 513.31958 820.14593 513.31958 Z" stroke-linecap="round" />
</g>
		<g transform="matrix(1 0 0 1 69.86 72.88)"  >
<path style="stroke: none; stroke-width: 1; stroke-dasharray: none; stroke-linecap: butt; stroke-dashoffset: 0; stroke-linejoin: miter; stroke-miterlimit: 4; fill: rgb(204,204,204); fill-rule: nonzero; opacity: 1;" vector-effect="non-scaling-stroke"  transform=" translate(-669.86, -522.88)" d="M 820.14593 524.61269 L 519.57529 524.61269 C 518.9545767005374 524.6126900953343 518.3810139183466 524.2815435469438 518.0706572410946 523.7439900770314 C 517.7603005638426 523.2064366071189 517.7603005638426 522.5441433928812 518.0706572410946 522.0065899229687 C 518.3810139183466 521.4690364530563 518.9545767005374 521.1378899046658 519.57529 521.1378900000001 L 820.14593 521.1378900000001 C 820.7666432994627 521.1378899046658 821.3402060816534 521.4690364530563 821.6505627589054 522.0065899229687 C 821.9609194361574 522.5441433928812 821.9609194361574 523.2064366071189 821.6505627589054 523.7439900770314 C 821.3402060816534 524.2815435469438 820.7666432994627 524.6126900953343 820.14593 524.61269 Z" stroke-linecap="round" />
</g>
		<g transform="matrix(1 0 0 1 69.86 84.17)"  >
<path style="stroke: none; stroke-width: 1; stroke-dasharray: none; stroke-linecap: butt; stroke-dashoffset: 0; stroke-linejoin: miter; stroke-miterlimit: 4; fill: rgb(204,204,204); fill-rule: nonzero; opacity: 1;" vector-effect="non-scaling-stroke"  transform=" translate(-669.86, -534.17)" d="M 820.14593 535.90581 L 519.57529 535.90581 C 518.6157505798532 535.9058098526259 517.8378902668443 535.1279494201468 517.8378902668443 534.16841 C 517.8378902668443 533.2088705798532 518.6157505798532 532.4310101473741 519.57529 532.43101 L 820.14593 532.43101 C 820.7666432994627 532.4310099046658 821.3402060816534 532.7621564530563 821.6505627589054 533.2997099229686 C 821.9609194361574 533.8372633928811 821.9609194361574 534.4995566071188 821.6505627589054 535.0371100770313 C 821.3402060816534 535.5746635469437 820.7666432994627 535.9058100953342 820.14593 535.90581 Z" stroke-linecap="round" />
</g>
		<g transform="matrix(1 0 0 1 287.76 -55.63)"  >
<path style="stroke: none; stroke-width: 1; stroke-dasharray: none; stroke-linecap: butt; stroke-dashoffset: 0; stroke-linejoin: miter; stroke-miterlimit: 4; fill: rgb(108,99,255); fill-rule: nonzero; opacity: 1;" vector-effect="non-scaling-stroke"  transform=" translate(-887.76, -394.37)" d="M 827.08687 412.02171 C 823.6657478469364 412.0164522246548 820.8342431986304 409.3603251765252 820.61055 405.94651999999996 L 819.64596 391.21851999999996 C 819.4113035082923 387.63629943725124 822.12501273696 384.54209685899264 825.70723 384.30738999999994 L 941.09469 376.7507499999999 C 948.7440215619714 376.2498277319034 955.3511077319034 382.0447584380285 955.85203 389.6940899999999 C 956.3529522680965 397.34342156197135 950.5580215619714 403.9505077319034 942.90869 404.4514299999999 L 827.52148 412.0075799999999 Q 827.30355 412.02147 827.08687 412.02171 Z" stroke-linecap="round" />
</g>
		<g transform="matrix(1 0 0 1 296.87 -55.35)"  >
<path style="stroke: none; stroke-width: 1; stroke-dasharray: none; stroke-linecap: butt; stroke-dashoffset: 0; stroke-linejoin: miter; stroke-miterlimit: 4; fill: rgb(47,46,65); fill-rule: nonzero; opacity: 1;" vector-effect="non-scaling-stroke"  transform=" translate(-896.87, -394.65)" d="M 849.83956 413.92064 C 846.3467878917576 413.9147932476041 843.4813505629015 411.1530075096251 843.34688 407.66282 L 842.52462 385.66482 C 842.4602290026262 383.9421172769174 843.0828642435054 382.2644011321332 844.255535327854 381.00079779223904 C 845.4282064122027 379.73719445234485 847.0548403955885 378.9912266314917 848.77755 378.92702 L 943.66378 375.38064 C 947.2511529553713 375.24675071475264 950.2679020397638 378.0462070822931 950.40206 381.63357 L 951.22432 403.63157 C 951.2887163597231 405.35427415030756 950.6660829363456 407.0319933119973 949.4934107455643 408.29559784412 C 948.3207385547831 409.5592023762426 946.6941014274005 410.30516860954566 944.97139 410.36937 L 850.0851600000001 413.91575 C 850.00313 413.91917 849.92086 413.92064 849.83956 413.92064 Z" stroke-linecap="round" />
</g>
		<g transform="matrix(1 0 0 1 353.65 98.69)"  >
<path style="stroke: none; stroke-width: 1; stroke-dasharray: none; stroke-linecap: butt; stroke-dashoffset: 0; stroke-linejoin: miter; stroke-miterlimit: 4; fill: rgb(47,46,65); fill-rule: nonzero; opacity: 1;" vector-effect="non-scaling-stroke"  transform=" translate(-953.65, -548.69)" d="M 961.031 616.7014 L 946.2712 616.7014 C 942.6830328116785 616.6973384742442 939.7752615257558 613.7895671883216 939.7712 610.2014 L 939.7712 487.18724 C 939.7752560267786 483.59907053028286 942.6830305302828 480.6912960267785 946.2712 480.68724 L 961.031 480.68724 C 964.6191694697171 480.6912960267785 967.5269439732214 483.59907053028286 967.531 487.18724 L 967.531 610.2014 C 967.5269384742442 613.7895671883216 964.6191671883215 616.6973384742442 961.031 616.7014 Z" stroke-linecap="round" />
</g>
		<g transform="matrix(1 0 0 1 324.46 39.69)"  >
<path style="stroke: none; stroke-width: 1; stroke-dasharray: none; stroke-linecap: butt; stroke-dashoffset: 0; stroke-linejoin: miter; stroke-miterlimit: 4; fill: rgb(47,46,65); fill-rule: nonzero; opacity: 1;" vector-effect="non-scaling-stroke"  transform=" translate(-924.46, -489.69)" d="M 895.51835 551.67716 L 882.89647 544.02658 C 879.8300845859573 542.1631833936507 878.8506889421452 538.1693053640619 880.70714 535.09871 L 944.47142 429.9008 C 946.3348201263245 426.834419387305 950.3286937365353 425.8550248272316 953.39929 427.71147 L 966.02118 435.36206000000004 C 969.0875654140427 437.2254566063493 970.0669610578548 441.21933463593814 968.21051 444.28993 L 904.44622 549.48783 C 902.582830433671 552.5542250168102 898.5889435652279 553.5336228281234 895.51835 551.67716 Z" stroke-linecap="round" />
</g>
		<g transform="matrix(1 0 0 1 338.61 -148.69)"  >
<circle style="stroke: none; stroke-width: 1; stroke-dasharray: none; stroke-linecap: butt; stroke-dashoffset: 0; stroke-linejoin: miter; stroke-miterlimit: 4; fill: rgb(108,99,255); fill-rule: nonzero; opacity: 1;" vector-effect="non-scaling-stroke"  cx="0" cy="0" r="51" />
</g>
		<g transform="matrix(1 0 0 1 310.63 -147.25)"  >
<path style="stroke: none; stroke-width: 1; stroke-dasharray: none; stroke-linecap: butt; stroke-dashoffset: 0; stroke-linejoin: miter; stroke-miterlimit: 4; fill: rgb(47,46,65); fill-rule: nonzero; opacity: 1;" vector-effect="non-scaling-stroke"  transform=" translate(-910.63, -302.75)" d="M 911.00806 318.72176 C 909.3675668402569 318.1827179878795 907.8615082301035 317.29866509577624 906.59116 316.12905 C 904.8874666333206 314.43861595511714 904.0173396883907 312.08203510791964 904.21367 309.69005 C 904.3218791494277 307.9833446628492 905.221835550188 306.4253894390446 906.64621 305.47897 C 908.47001 304.30907 910.9092899999999 304.30561 913.39285 305.4001 L 913.2988499999999 285.49042000000003 L 915.2987099999999 285.48089000000004 L 915.4093399999999 308.88682000000006 L 913.8683399999999 307.91748000000007 C 912.0813999999999 306.79534000000007 909.5294599999999 306.0054800000001 907.7262599999999 307.1624800000001 C 906.8230128060155 307.7820879547193 906.2603820944161 308.78747581208967 906.2047099999999 309.8814000000001 C 906.0682756984099 311.66257096345026 906.7135368017288 313.4149721906207 907.9724899999999 314.6823400000001 C 910.1808999999998 316.79189000000014 913.4029099999999 317.45158000000015 917.0771799999999 318.04112000000015 L 916.7601799999999 320.01564000000013 C 914.808008130968 319.75702519017534 912.8829368661558 319.3240002866414 911.00806 318.72176 Z" stroke-linecap="round" />
</g>
		<g transform="matrix(0.13 -0.99 0.99 0.13 297.89 -163.82)"  >
<rect style="stroke: none; stroke-width: 1; stroke-dasharray: none; stroke-linecap: butt; stroke-dashoffset: 0; stroke-linejoin: miter; stroke-miterlimit: 4; fill: rgb(47,46,65); fill-rule: nonzero; opacity: 1;" vector-effect="non-scaling-stroke"  x="-0.999875" y="-5.385835" rx="0" ry="0" width="1.99975" height="10.77167" />
</g>
		<g transform="matrix(0.13 -0.99 0.99 0.13 331.6 -159.37)"  >
<rect style="stroke: none; stroke-width: 1; stroke-dasharray: none; stroke-linecap: butt; stroke-dashoffset: 0; stroke-linejoin: miter; stroke-miterlimit: 4; fill: rgb(47,46,65); fill-rule: nonzero; opacity: 1;" vector-effect="non-scaling-stroke"  x="-0.999875" y="-5.385835" rx="0" ry="0" width="1.99975" height="10.77167" />
</g>
		<g transform="matrix(1 0 0 1 338.2 -7.31)"  >
<path style="stroke: none; stroke-width: 1; stroke-dasharray: none; stroke-linecap: butt; stroke-dashoffset: 0; stroke-linejoin: miter; stroke-miterlimit: 4; fill: rgb(47,46,65); fill-rule: nonzero; opacity: 1;" vector-effect="non-scaling-stroke"  transform=" translate(-938.2, -442.69)" d="M 981.19918 520.19212 L 895.19918 520.19212 C 890.5069322369787 520.1868789935287 886.7044210064713 516.3843677630214 886.69918 511.69212000000005 L 904.7033299999999 373.6276700000001 C 904.7331867847595 368.9577290152392 908.5291448157798 365.1887131111716 913.19918 365.1921200000001 L 943.7191799999999 365.1921200000001 C 969.101353291374 365.220776786497 989.670523213503 385.78994670862596 989.69918 411.1721200000001 L 989.69918 511.6921200000001 C 989.6939389935285 516.3843677630214 985.8914277630212 520.1868789935287 981.19918 520.19212 Z" stroke-linecap="round" />
</g>
		<g transform="matrix(1 0 0 1 399.45 -14.57)"  >
<path style="stroke: none; stroke-width: 1; stroke-dasharray: none; stroke-linecap: butt; stroke-dashoffset: 0; stroke-linejoin: miter; stroke-miterlimit: 4; fill: rgb(108,99,255); fill-rule: nonzero; opacity: 1;" vector-effect="non-scaling-stroke"  transform=" translate(-999.45, -435.43)" d="M 1055.18981 465.78908 C 1056.274910134379 468.1114803586488 1055.8962103624303 470.8544641344863 1054.22243 472.79597 L 1044.573 483.96454 C 1043.446028368551 485.26906921885114 1041.8469576847883 486.0724347815648 1040.1276190226479 486.1978784175012 C 1038.4082803605077 486.32332205343755 1036.7095369215162 485.7605663271161 1035.40515 484.63343 L 947.9042900000001 409.03634999999997 C 944.1507611462719 405.7949522803212 942.4119709139543 400.79707262187884 943.3430786274131 395.92586368991476 C 944.2741863408719 391.05465475795063 947.7336897860765 387.050403459032 952.4180815601936 385.42187291295886 C 957.1024733343107 383.7933423668857 962.2998574903495 384.78802346494217 966.05191 388.03112999999996 L 1053.55311 463.62778 C 1054.245323711728 464.22441601643504 1054.8031582377237 464.9610493402173 1055.18981 465.78908 Z" stroke-linecap="round" />
</g>
		<g transform="matrix(1 0 0 1 385.82 -27.9)"  >
<path style="stroke: none; stroke-width: 1; stroke-dasharray: none; stroke-linecap: butt; stroke-dashoffset: 0; stroke-linejoin: miter; stroke-miterlimit: 4; fill: rgb(47,46,65); fill-rule: nonzero; opacity: 1;" vector-effect="non-scaling-stroke"  transform=" translate(-985.82, -422.1)" d="M 1035.87729 440.84144 C 1036.9623519583586 443.1637843949285 1036.583610098687 445.9066994303678 1034.9098099999999 447.8481 L 1018.4281999999998 466.92479 C 1016.0792709363523 469.6371235651647 1011.978109385331 469.93635075079163 1009.2603599999999 467.59369 L 937.4096799999999 405.51752 C 936.1050559356128 404.390591836104 935.301596964811 402.791513940831 935.1760906545686 401.07213637844126 C 935.0505843443261 399.3527588160515 935.6133138303013 397.6539557201847 936.7404599999999 396.34952 L 953.2216199999999 377.27304 C 954.3485917050368 375.9685116838343 955.9476612993302 375.165145957135 957.6669991920672 375.0397005019354 C 959.3863370848044 374.9142550467357 961.0850806908343 375.4770074071937 962.38947 376.60414 L 1034.2405899999999 438.68014 C 1034.9326269561464 439.2769419120182 1035.4904306390447 440.01353450678096 1035.87729 440.84144 Z" stroke-linecap="round" />
</g>
		<g transform="matrix(1 0 0 1 348.33 -169.24)"  >
<path style="stroke: none; stroke-width: 1; stroke-dasharray: none; stroke-linecap: butt; stroke-dashoffset: 0; stroke-linejoin: miter; stroke-miterlimit: 4; fill: rgb(47,46,65); fill-rule: nonzero; opacity: 1;" vector-effect="non-scaling-stroke"  transform=" translate(-948.33, -280.76)" d="M 939.56779 271.06053 C 932.7501599999999 265.4187 923.63653 270.7547 915.92661 269.99736 C 908.5503699999999 269.27279 902.61344 262.78142 900.9956099999999 255.79605 C 899.1081099999999 247.64645000000002 903.19948 239.36805 909.3625199999999 234.14744000000002 C 916.1125799999999 228.42961000000003 925.1751499999999 226.65279 933.8115199999999 227.52286 C 943.7099099999998 228.52006 952.8292999999999 232.95194 961.0394299999998 238.36614 C 968.9610414447293 243.4256979233259 976.2706187119045 249.38485851559102 982.8223399999998 256.12474 C 988.6930599999998 262.36600999999996 993.7086599999998 269.84312 995.4266999999999 278.35907999999995 C 996.9880399999998 286.09833999999995 996.0720099999999 294.7247699999999 991.6060199999998 301.39095999999995 C 989.2356041095072 304.80922010263316 986.0242729776911 307.5589202316993 982.2818199999998 309.37479999999994 C 978.3818199999998 311.3826899999999 974.2087299999998 312.84442999999993 970.4363199999998 315.1025399999999 C 964.7323899999998 318.5168299999999 959.2578299999998 325.4755399999999 961.1997199999998 332.57208999999995 C 961.6165520492333 334.1224806160531 962.4081687981616 335.5466112183155 963.5048699999999 336.71908999999994 C 964.8224999999999 338.12708999999995 967.1141699999998 336.18987999999996 965.7930599999999 334.77818999999994 C 963.4727199999999 332.29876999999993 963.4983099999998 328.93280999999996 964.6521199999999 325.89802999999995 C 966.0276642806605 322.47688588432715 968.5243642212865 319.6243567074888 971.7331699999999 317.80778999999995 C 975.6820899999999 315.44942 980.0629899999999 313.95678999999996 984.1152499999998 311.79994999999997 C 987.995688017642 309.82630426755935 991.341826265918 306.94432146576804 993.8688599999998 303.3993 C 998.6368599999998 296.50047 999.9335099999998 287.61541 998.6671599999999 279.4428 C 997.2967799999999 270.5988 992.5879699999998 262.62804 986.7487599999998 255.98450999999997 C 980.3940599999999 248.75450999999998 972.6415799999999 242.67950999999996 964.7362699999999 237.23990999999998 C 956.2537999999998 231.40312999999998 946.9118899999999 226.50976999999997 936.6461599999999 224.87077 C 927.7473999999999 223.45001 918.1531599999998 224.6111 910.4897899999999 229.59142 C 903.3365399999999 234.24022 897.9329199999999 242.10597 897.5455999999998 250.78782 C 897.294668170637 258.8290525969724 901.4069682928092 266.37864914905725 908.2988099999998 270.52918 C 911.7699187339978 272.51779322372903 915.7777826394579 273.36640533247527 919.7569999999997 272.9553 C 924.0126499999997 272.6016 928.2527699999997 271.21582 932.5476899999998 271.49659 C 934.4903214428574 271.57749954058335 936.3536310777962 272.28946493698203 937.8552399999998 273.52459000000005 C 939.3447999999997 274.75726000000003 941.0451599999998 272.28307000000007 939.5678199999998 271.06053 Z" stroke-linecap="round" />
</g>
		<g transform="matrix(1 0 0 1 311.35 113.57)"  >
<path style="stroke: none; stroke-width: 1; stroke-dasharray: none; stroke-linecap: butt; stroke-dashoffset: 0; stroke-linejoin: miter; stroke-miterlimit: 4; fill: rgb(47,46,65); fill-rule: nonzero; opacity: 1;" vector-effect="non-scaling-stroke"  transform=" translate(-911.35, -563.57)" d="M 879.59864 536.87587 Q 879.6260900000001 536.7067 879.66286 536.5380399999999 C 880.0219381911619 534.8509528750843 881.0412274782323 533.3777234601602 882.4934000000001 532.4469199999999 L 894.89646 524.4468199999999 C 897.9140353361892 522.5055036549629 901.9335715982958 523.3728772458737 903.88207 526.3858199999999 L 942.14321 585.7055699999999 C 944.088510196869 588.7224210812353 943.2204834310538 592.7449842515177 940.20421 594.6911799999998 L 927.8006799999999 602.6911799999998 C 924.7831005099433 604.6324914417343 920.7635655906673 603.7651191058825 918.8150599999999 600.7521799999998 L 880.55392 541.4324199999999 C 879.6796333912074 540.0853389568362 879.3390226021645 538.4606738420908 879.59864 536.87587 Z" stroke-linecap="round" />
</g>
</g>
</g>
</svg>