<?xml version="1.0" encoding="UTF-8" standalone="no" ?>
<!DOCTYPE svg PUBLIC "-//W3C//DTD SVG 1.1//EN" "http://www.w3.org/Graphics/SVG/1.1/DTD/svg11.dtd">
<svg xmlns="http://www.w3.org/2000/svg" xmlns:xlink="http://www.w3.org/1999/xlink" version="1.1" width="1080" height="1080" viewBox="0 0 1080 1080" xml:space="preserve">
<desc>Created with Fabric.js 5.2.4</desc>
<defs>
</defs>
<g transform="matrix(1 0 0 1 540 540)" id="aa12f208-6f7c-48b1-90d4-07c4e12cbc00"  >
<rect style="stroke: none; stroke-width: 1; stroke-dasharray: none; stroke-linecap: butt; stroke-dashoffset: 0; stroke-linejoin: miter; stroke-miterlimit: 4; fill: rgb(255,255,255); fill-rule: nonzero; opacity: 1; visibility: hidden;" vector-effect="non-scaling-stroke"  x="-540" y="-540" rx="0" ry="0" width="1080" height="1080" />
</g>
<g transform="matrix(1 0 0 1 540 540)" id="8784f994-297d-4508-a54c-d94d9c6c99a9"  >
</g>
<g transform="matrix(1 0 0 1 540 540)"  >
<g style="" vector-effect="non-scaling-stroke"   >
		<g transform="matrix(1 0 0 1 -284.85 154.66)"  >
<path style="stroke: none; stroke-width: 1; stroke-dasharray: none; stroke-linecap: butt; stroke-dashoffset: 0; stroke-linejoin: miter; stroke-miterlimit: 4; fill: rgb(242,242,242); fill-rule: nonzero; opacity: 1;" vector-effect="non-scaling-stroke"  transform=" translate(-314.69, -604.52)" d="M 282.11788 650.08478 L 281.98458 649.37091 C 277.58559537566754 625.1155021944278 284.07855558117376 600.1529681513576 299.73848999999996 581.11505 C 304.120332125427 575.8735768679103 309.14471251066215 571.20469583969 314.69308 567.21857 L 315.22189000000003 566.83673 L 315.45333000000005 567.44611 C 318.21310000000005 574.7224699999999 321.69649000000004 582.00958 323.2839000000001 585.2351699999999 L 324.35519000000005 561.1570399999999 L 324.96651 560.83282 C 330.6963484725527 557.7623392256728 337.71789928370623 558.4869605452436 342.69991000000005 562.6628999999999 C 347.85337489867186 566.8043494044227 349.96897143444056 573.6644283132051 348.04317000000003 579.98907 C 347.21065000000004 582.81818 346.42452000000003 585.75275 345.66378000000003 588.59064 C 343.05099 598.34259 340.34933 608.42657 335.11349 616.91779 C 326.95907993252234 629.8559837011654 313.40031689874047 638.4222067806892 298.21407 640.23029 Z" stroke-linecap="round" />
</g>
		<g transform="matrix(1 0 0 1 -204.23 -140.28)"  >
<path style="stroke: none; stroke-width: 1; stroke-dasharray: none; stroke-linecap: butt; stroke-dashoffset: 0; stroke-linejoin: miter; stroke-miterlimit: 4; fill: rgb(242,242,242); fill-rule: nonzero; opacity: 1;" vector-effect="non-scaling-stroke"  transform=" translate(-395.31, -309.57)" d="M 514.79043 347.35093 L 275.82022 347.35093 C 272.34364300646723 347.34699523440736 269.5263002858483 344.5296569872806 269.52236 341.05308 L 269.52236 278.08775 C 269.5263002858483 274.61117301271946 272.34364300646723 271.7938347655927 275.82022 271.78990000000005 L 514.79043 271.78990000000005 C 518.2670030882915 271.7938402751842 521.0843397248159 274.6111769117085 521.08828 278.08775 L 521.08828 341.05308 C 521.0843397248159 344.5296530882915 518.2670030882915 347.34698972481584 514.79043 347.35093 Z" stroke-linecap="round" />
</g>
		<g transform="matrix(1 0 0 1 -157.23 -33.28)"  >
<path style="stroke: none; stroke-width: 1; stroke-dasharray: none; stroke-linecap: butt; stroke-dashoffset: 0; stroke-linejoin: miter; stroke-miterlimit: 4; fill: rgb(242,242,242); fill-rule: nonzero; opacity: 1;" vector-effect="non-scaling-stroke"  transform=" translate(-442.31, -416.57)" d="M 561.79043 454.35093 L 322.82022 454.35093 C 319.34364300646723 454.34699523440736 316.5263002858483 451.5296569872806 316.52236 448.05308 L 316.52236 385.08775 C 316.5263002858483 381.61117301271946 319.34364300646723 378.7938347655927 322.82022 378.78990000000005 L 561.79043 378.78990000000005 C 565.2670030882915 378.7938402751842 568.0843397248159 381.6111769117085 568.08828 385.08775 L 568.08828 448.05308 C 568.0843397248159 451.5296530882915 565.2670030882915 454.34698972481584 561.79043 454.35093 Z" stroke-linecap="round" />
</g>
		<g transform="matrix(1 0 0 1 245.62 55.76)"  >
<path style="stroke: none; stroke-width: 1; stroke-dasharray: none; stroke-linecap: butt; stroke-dashoffset: 0; stroke-linejoin: miter; stroke-miterlimit: 4; fill: rgb(230,230,230); fill-rule: nonzero; opacity: 1;" vector-effect="non-scaling-stroke"  transform=" translate(-845.16, -505.61)" d="M 968.81834 464.70045 L 902.36045 464.70045 L 917.71775 365.64576 C 918.0138464229268 363.7356831927102 916.7054568072898 361.94722642292675 914.79538 361.65112999999997 C 912.8853031927102 361.3550335770732 911.0968464229268 362.6634231927102 910.80075 364.57349999999997 L 895.2772 464.70045 L 806.61729 464.70045 L 821.97459 365.64576 C 822.2706864229268 363.7356831927102 820.9622968072898 361.94722642292675 819.05222 361.65112999999997 C 817.1421431927103 361.3550335770732 815.3536864229268 362.6634231927102 815.05759 364.57349999999997 L 799.534 464.70045 L 743.28758 464.70045 C 741.3545833755923 464.70045 739.78758 466.2674533755922 739.78758 468.20045 C 739.78758 470.1334466244078 741.3545833755923 471.70045 743.28758 471.70045 L 798.4487700000001 471.70045 L 785.0120000000001 558.36745 L 721.50437 558.36745 C 719.5713733755922 558.36745 718.00437 559.9344533755922 718.00437 561.86745 C 718.00437 563.8004466244078 719.5713733755922 565.36745 721.50437 565.36745 L 783.92674 565.36745 L 771.49168 645.5735 C 771.1955835770732 647.4835768072898 772.5039731927102 649.2720335770732 774.41405 649.56813 C 776.3241268072898 649.8642264229268 778.1125835770732 648.5558368072898 778.40868 646.64576 L 791.01 565.36744 L 879.6699 565.36744 L 867.23484 645.5735 C 867.0419261568369 646.8097392744596 867.5236478608917 648.0549261489455 868.4983322145307 648.8394602179137 C 869.4730165681697 649.623994286882 870.7923784235473 649.8285192172054 871.9588435811281 649.3759020160846 C 873.125308738709 648.9232848149638 873.9614151742975 647.8823851171461 874.15184 646.64576 L 886.75315 565.36744 L 947.03515 565.36744 C 948.9681466244078 565.36744 950.53515 563.8004366244078 950.53515 561.86744 C 950.53515 559.9344433755922 948.9681466244078 558.36744 947.03515 558.36744 L 887.83842 558.36744 L 901.27513 471.70043999999996 L 968.81834 471.70043999999996 C 970.7513366244078 471.70043999999996 972.31834 470.13343662440775 972.31834 468.20043999999996 C 972.31834 466.26744337559217 970.7513366244078 464.70043999999996 968.81834 464.70043999999996 Z M 880.75517 558.36745 L 792.09526 558.36745 L 805.53196 471.70044999999993 L 894.19196 471.70044999999993 Z" stroke-linecap="round" />
</g>
		<g transform="matrix(1 0 0 1 97.4 155.07)"  >
<polygon style="stroke: none; stroke-width: 1; stroke-dasharray: none; stroke-linecap: butt; stroke-dashoffset: 0; stroke-linejoin: miter; stroke-miterlimit: 4; fill: rgb(158,97,106); fill-rule: nonzero; opacity: 1;" vector-effect="non-scaling-stroke"  points="8.45,22.08 -3,22.08 -8.45,-22.08 8.45,-22.08 8.45,22.08 " />
</g>
		<g transform="matrix(1 0 0 1 92.17 184.65)"  >
<path style="stroke: none; stroke-width: 1; stroke-dasharray: none; stroke-linecap: butt; stroke-dashoffset: 0; stroke-linejoin: miter; stroke-miterlimit: 4; fill: rgb(47,46,65); fill-rule: nonzero; opacity: 1;" vector-effect="non-scaling-stroke"  transform=" translate(-691.71, -634.51)" d="M 711.54368 648.73961 L 703.42 648.73961 L 701.9699999999999 641.0699 L 698.25623 648.73961 L 676.71028 648.73961 C 674.5905102483375 648.7397242279487 672.7169629140212 647.3613589866512 672.086129772208 645.3376313962128 C 671.4552966303947 643.3139038057744 672.2137710741991 641.1150889271555 673.95814 639.91068 L 691.1640699999999 628.0276799999999 L 691.1640699999999 620.2738599999999 L 709.26172 621.3540499999999 Z" stroke-linecap="round" />
</g>
		<g transform="matrix(1 0 0 1 127.18 -67.43)"  >
<polygon style="stroke: none; stroke-width: 1; stroke-dasharray: none; stroke-linecap: butt; stroke-dashoffset: 0; stroke-linejoin: miter; stroke-miterlimit: 4; fill: rgb(158,97,106); fill-rule: nonzero; opacity: 1;" vector-effect="non-scaling-stroke"  points="-19.03,-12.04 -20.15,-6.7 -19.68,16.68 19.32,21.68 20.15,-15 16.08,-21.68 -19.03,-12.04 " />
</g>
		<g transform="matrix(1 0 0 1 155.34 155.07)"  >
<polygon style="stroke: none; stroke-width: 1; stroke-dasharray: none; stroke-linecap: butt; stroke-dashoffset: 0; stroke-linejoin: miter; stroke-miterlimit: 4; fill: rgb(158,97,106); fill-rule: nonzero; opacity: 1;" vector-effect="non-scaling-stroke"  points="8.45,22.08 -3,22.08 -8.45,-22.08 8.45,-22.08 8.45,22.08 " />
</g>
		<g transform="matrix(1 0 0 1 124.99 43.67)"  >
<path style="stroke: none; stroke-width: 1; stroke-dasharray: none; stroke-linecap: butt; stroke-dashoffset: 0; stroke-linejoin: miter; stroke-miterlimit: 4; fill: rgb(47,46,65); fill-rule: nonzero; opacity: 1;" vector-effect="non-scaling-stroke"  transform=" translate(-724.53, -493.53)" d="M 763.7595 589.02731 L 746.3795 590.76241 L 746.2815 590.00895 L 737.0629700000001 543.24568 L 734.9103000000001 537.58123 L 721.4101 473.51392 L 714.4101 489.51392 C 714.4101 489.51392 714.94564 506.46175 713.48518 508.19592 C 713.48518 508.19592 711.16892 524.58236 707.81718 525.19983 L 707.81718 525.19983 C 712.7828896412874 543.821252598329 713.2102033154542 563.3620340536672 709.06327 582.18273 L 707.1873899999999 590.69632 L 691.33539 590.91665 C 686.1652399999999 590.10365 688.1531699999999 562.59916 681.36662 537.16551 C 680.51112 533.95939 685.75113 408.84595 706.95962 396.13878000000005 L 746.37724 397.10341000000005 L 746.91024 397.65753000000007 C 747.1036700000001 397.8577200000001 761.41007 419.5139300000001 760.41007 442.5139300000001 L 758.41007 489.5139300000001 L 759.30844 497.46008000000006 L 762.60754 518.9020800000001 L 765.25004 528.8615800000001 L 765.25004 528.8615800000001 C 768.0845200348703 542.0939063353965 768.5493100634045 555.7241243854058 766.62281 569.1188000000001 Z" stroke-linecap="round" />
</g>
		<g transform="matrix(1 0 0 1 150.1 184.65)"  >
<path style="stroke: none; stroke-width: 1; stroke-dasharray: none; stroke-linecap: butt; stroke-dashoffset: 0; stroke-linejoin: miter; stroke-miterlimit: 4; fill: rgb(47,46,65); fill-rule: nonzero; opacity: 1;" vector-effect="non-scaling-stroke"  transform=" translate(-749.64, -634.51)" d="M 769.48292 648.73961 L 761.35924 648.73961 L 759.90924 641.0699 L 756.19548 648.73961 L 734.64951 648.73961 C 732.5297402483375 648.7397242279487 730.6561929140212 647.3613589866512 730.0253597722079 645.3376313962128 C 729.3945266303947 643.3139038057744 730.1530010741991 641.1150889271555 731.8973699999999 639.91068 L 749.10331 628.0276799999999 L 749.10331 620.2738599999999 L 767.201 621.354 Z" stroke-linecap="round" />
</g>
		<g transform="matrix(1 0 0 1 149.81 -175.34)" id="a535f923-d253-4cd0-8492-9156d4611884-1179"  >
<path style="stroke: none; stroke-width: 1; stroke-dasharray: none; stroke-linecap: butt; stroke-dashoffset: 0; stroke-linejoin: miter; stroke-miterlimit: 4; fill: rgb(47,46,65); fill-rule: nonzero; opacity: 1;" vector-effect="non-scaling-stroke"  transform=" translate(-749.35, -274.52)" d="M 725.498 289.22009 L 725.4821000000001 289.21592000000004 C 724.637264872586 288.9923445257431 723.9158475482217 288.4423155991735 723.4765526069374 287.6868340707666 C 723.0372576656531 286.9313525423597 722.9160701145094 286.03230396002175 723.1396500000001 285.18747 L 727.8329600000001 267.40753 C 728.6707147438469 264.22125327030756 730.1405997919687 261.2359575667678 732.1552200000001 258.62914 C 736.0949764476918 253.5442292402586 741.845042500403 250.1758210043648 748.2070900000001 249.2259 C 751.4906660907037 248.739353198119 754.8387607471194 248.9226864415437 758.0495800000001 249.76485 C 771.1853700000001 253.21022 774.8542800000001 257.55466 775.5956400000001 279.7877 C 776.3370000000001 302.02073999999993 770.8951800000001 297.5947 770.8951800000001 297.5947 C 770.7825414594619 298.0233665297043 770.5847178938528 298.42495513579865 770.3135100000001 298.77551 C 769.7829246900843 299.45893628963097 769.0087974559813 299.910927307947 768.1528300000001 300.03706999999997 C 767.7137572870927 300.10134233955444 767.2662450446354 300.0767078269638 766.8368800000001 299.96463 C 750.4330600000001 298.27602 733.82005 296.73839 725.49535 289.21936 Z" stroke-linecap="round" />
</g>
		<g transform="matrix(1 0 0 1 146.96 -175)" id="b0ed392d-e28e-41ab-913e-3eea91058667-1180"  >
<path style="stroke: none; stroke-width: 1; stroke-dasharray: none; stroke-linecap: butt; stroke-dashoffset: 0; stroke-linejoin: miter; stroke-miterlimit: 4; fill: rgb(158,97,106); fill-rule: nonzero; opacity: 1;" vector-effect="non-scaling-stroke"  transform=" translate(-746.49, -274.86)" d="M 764.06616 270.44924 C 765.8279591943984 277.5607801666784 763.1354712398196 285.0336487716582 757.2427592988038 289.38725485442154 C 751.350047357788 293.74086093718483 743.4159295606156 294.11905579891453 737.1358299999999 290.34569 C 733.0242701352781 287.89280721885467 730.06554705578 283.89628917087987 728.91976 279.24777 C 727.1654300586537 272.1413704824694 729.8573661532961 264.6772307336305 735.7437230924166 260.32643889407643 C 741.6300800315373 255.97564705452237 749.5555342047803 255.5921391984611 755.83447 259.35426 C 759.9514026734382 261.8035381928971 762.9159486099309 265.79957956974744 764.066 270.4499 Z" stroke-linecap="round" />
</g>
		<g transform="matrix(1 0 0 1 143.21 -184.55)" id="f63de286-de7c-4407-a1c4-23ed0a8d5112-1181"  >
<path style="stroke: none; stroke-width: 1; stroke-dasharray: none; stroke-linecap: butt; stroke-dashoffset: 0; stroke-linejoin: miter; stroke-miterlimit: 4; fill: rgb(47,46,65); fill-rule: nonzero; opacity: 1;" vector-effect="non-scaling-stroke"  transform=" translate(-742.75, -265.3)" d="M 721.81173 267.36594 C 722.4744721819523 264.84602098818164 723.6370291855891 262.4850465838913 725.23031 260.42333 C 727.49374 254.78064000000003 731.0442300000001 250.21994 737.92346 252.98880000000003 C 740.5036583984169 252.60748300963334 743.1341967231202 252.749047148789 745.6585699999999 253.40507000000002 L 749.22191 254.32658000000004 L 749.34191 254.35793000000004 C 754.3177294054756 255.67465558919673 758.5666849928626 258.91408810058323 761.1540550217084 263.3635893498227 C 763.7414250505541 267.81309059906215 764.4552656376026 273.10818060733385 763.13854 278.084 L 763.04454 278.44013 L 755.50829 276.48332 L 754.83442 268.63432 L 752.42436 275.68412 L 748.5314999999999 274.67491 L 748.1922 270.71515 L 746.9762599999999 274.26932999999997 C 739.5950799999999 277.13703 731.0404199999999 274.29202999999995 721.72088 267.72360999999995 Z" stroke-linecap="round" />
</g>
		<g transform="matrix(1 0 0 1 154.47 -169.26)" id="fb48cedc-59e8-4080-98a2-7877a59d0df4-1182"  >
<path style="stroke: none; stroke-width: 1; stroke-dasharray: none; stroke-linecap: butt; stroke-dashoffset: 0; stroke-linejoin: miter; stroke-miterlimit: 4; fill: rgb(47,46,65); fill-rule: nonzero; opacity: 1;" vector-effect="non-scaling-stroke"  transform=" translate(-754.01, -280.59)" d="M 739.10205 292.21178 C 738.8324392150256 292.75544976360493 738.7208104154123 293.3638698568697 738.77986 293.96783999999997 C 738.8080432725102 294.27642107854984 738.8793367209315 294.5795293147837 738.99166 294.86832 C 739.0880566633357 295.1145601938149 739.2132324039982 295.3485379954513 739.36458 295.56538 C 739.8133982767464 296.20604045219244 740.475827318922 296.66579796695754 741.23301 296.86216 Q 741.30389 296.88016 741.37545 296.89552000000003 Q 741.44701 296.9108800000001 741.51945 296.92293 Q 741.59238 296.93583 741.66569 296.94458000000003 Q 741.739 296.95333000000005 741.8136900000001 296.95958 L 744.6138300000001 297.17926 L 750.3694800000001 290.28815 L 748.4684800000001 297.48999 L 761.1937400000002 298.50966999999997 L 769.2609600000002 267.94813 L 748.8698200000002 262.67013 L 749.2189400000002 263.38775999999996 C 750.3721408279076 265.79090809767825 750.8399713437319 268.4656321839266 750.5709400000002 271.11753999999996 C 750.2854422020513 273.8001096532542 749.5424115779825 276.4139279844953 748.3741000000002 278.84553999999997 C 747.2115221724911 281.31118466019245 745.8148870498582 283.65950659483633 744.2034200000003 285.85817999999995 C 742.7871361013753 287.8089886661739 741.2596351520743 289.67657978488546 739.6285100000002 291.4516699999999 C 739.4183377672452 291.679171315778 739.2411238171751 291.9350351906931 739.10205 292.21178 Z" stroke-linecap="round" />
</g>
		<g transform="matrix(1 0 0 1 82.7 -74.37)"  >
<path style="stroke: none; stroke-width: 1; stroke-dasharray: none; stroke-linecap: butt; stroke-dashoffset: 0; stroke-linejoin: miter; stroke-miterlimit: 4; fill: rgb(158,97,106); fill-rule: nonzero; opacity: 1;" vector-effect="non-scaling-stroke"  transform=" translate(-682.24, -375.49)" d="M 651.77537 393.74 C 653.951404577013 394.26983377618023 656.2503584580048 393.80861027464675 658.0536332377798 392.4804346916136 C 659.8569080175546 391.15225910858044 660.9792677930482 389.0935642308367 661.11871 386.8583 L 718.5627099999999 366.19262 L 708.0204699999999 357.01862 L 653.4979699999999 378.72715 C 649.6426577017263 378.742080211565 646.4078277793664 381.63822975228237 645.9683429509231 385.4684397875161 C 645.52885812248 389.2986498227498 648.0236357171566 392.8522242966975 651.77537 393.74 Z" stroke-linecap="round" />
</g>
		<g transform="matrix(1 0 0 1 107.88 -102.77)"  >
<path style="stroke: none; stroke-width: 1; stroke-dasharray: none; stroke-linecap: butt; stroke-dashoffset: 0; stroke-linejoin: miter; stroke-miterlimit: 4; fill: rgb(108,99,255); fill-rule: nonzero; opacity: 1;" vector-effect="non-scaling-stroke"  transform=" translate(-707.42, -347.09)" d="M 734.61 314.99644 C 734.61 314.99644 744.2849 315.20963 745.1450600000001 326.25506 C 746.0052200000001 337.30049 724.8947400000001 364.62116000000003 721.62399 369.12655 C 718.35324 373.63194 682.02326 379.17729 682.02326 379.17729 L 669.67326 370.21157000000005 C 682.65016 361.80295000000007 694.4932600000001 355.35557000000006 702.44126 355.6455700000001 Z" stroke-linecap="round" />
</g>
		<g transform="matrix(1 0 0 1 132.04 -107.94)"  >
<path style="stroke: none; stroke-width: 1; stroke-dasharray: none; stroke-linecap: butt; stroke-dashoffset: 0; stroke-linejoin: miter; stroke-miterlimit: 4; fill: rgb(108,99,255); fill-rule: nonzero; opacity: 1;" vector-effect="non-scaling-stroke"  transform=" translate(-731.58, -341.91)" d="M 751.72447 299.60271 L 736.82875 298.7232 C 735.5410585756478 298.64717031333214 734.3469008735857 299.39633487007444 733.85501 300.5888 L 729.64553 310.79356 L 712.15053 325.25341000000003 C 712.15053 325.25341000000003 705.22381 334.06796 705.20769 345.45172 C 705.19157 356.83548 702.75014 383.18442000000005 702.75014 383.18442000000005 C 702.75014 383.18442000000005 741.60714 385.7979 742.44496 384.92355000000003 C 744.08996 383.20686 746.08556 374.43472 746.08556 374.43472 L 759.72056 324.33679 C 761.2173597269992 318.99961060653294 760.2495659792108 313.2727447394887 757.08209 308.72379 C 756.12953 307.38265 755.13148 306.3849 754.20399 306.21988 C 752.12154 305.77651 753.22928 301.109 751.72447 299.60271 Z" stroke-linecap="round" />
</g>
		<g transform="matrix(1 0 0 1 74.7 -23.51)"  >
<path style="stroke: none; stroke-width: 1; stroke-dasharray: none; stroke-linecap: butt; stroke-dashoffset: 0; stroke-linejoin: miter; stroke-miterlimit: 4; fill: rgb(255,255,255); fill-rule: nonzero; opacity: 1;" vector-effect="non-scaling-stroke"  transform=" translate(-674.24, -426.34)" d="M 691.83223 480.29764 C 690.589688865663 480.49548797461273 689.3196399821317 480.18796834134486 688.3052299999999 479.44364 L 619.36867 429.0899 C 617.2552727541215 427.54390954764216 616.7933170790105 424.57835485671546 618.33634 422.46279 L 653.5415499999999 374.26563999999996 C 655.0877209577791 372.152203170267 658.0533887734234 371.6902275336405 660.16914 373.23322999999993 L 729.10522 423.587 C 731.2186172458785 425.13299045235783 731.6805729209894 428.0985451432845 730.13755 430.21411 L 694.9323400000001 478.41126 C 694.1924007904806 479.4288780152056 693.0760747130181 480.10814913332837 691.83223 480.29764 Z" stroke-linecap="round" />
</g>
		<g transform="matrix(1 0 0 1 74.7 -23.51)"  >
<path style="stroke: none; stroke-width: 1; stroke-dasharray: none; stroke-linecap: butt; stroke-dashoffset: 0; stroke-linejoin: miter; stroke-miterlimit: 4; fill: rgb(204,204,204); fill-rule: nonzero; opacity: 1;" vector-effect="non-scaling-stroke"  transform=" translate(-674.24, -426.34)" d="M 691.83223 480.29764 C 690.589688865663 480.49548797461273 689.3196399821317 480.18796834134486 688.3052299999999 479.44364 L 619.36867 429.0899 C 617.2552727541215 427.54390954764216 616.7933170790105 424.57835485671546 618.33634 422.46279 L 653.5415499999999 374.26563999999996 C 655.0877209577791 372.152203170267 658.0533887734234 371.6902275336405 660.16914 373.23322999999993 L 729.10522 423.587 C 731.2186172458785 425.13299045235783 731.6805729209894 428.0985451432845 730.13755 430.21411 L 694.9323400000001 478.41126 C 694.1924007904806 479.4288780152056 693.0760747130181 480.10814913332837 691.83223 480.29764 Z M 656.94935 374.35448 C 656.2300257594824 374.4636218566862 655.5844289374418 374.8564452245486 655.15689 375.44513 L 619.9512 423.64235 C 619.0599189703438 424.8661157205061 619.3269348963576 426.5803356023714 620.5482 427.47504000000004 L 689.4847699999999 477.82875 C 690.7174028353093 478.68240843761447 692.4028565719212 478.4198725930469 693.3174499999999 477.23175000000003 L 728.5226599999999 429.03459000000004 C 729.4139400098746 427.8108274634081 729.1469238737939 426.09661070556245 727.9256599999999 425.20191000000005 L 658.9890899999999 374.8482000000001 C 658.4025270540156 374.4175461538571 657.6679267869112 374.23973582318996 656.94935 374.35448 Z" stroke-linecap="round" />
</g>
		<g transform="matrix(1 0 0 1 72.55 -24.74)"  >
<path style="stroke: none; stroke-width: 1; stroke-dasharray: none; stroke-linecap: butt; stroke-dashoffset: 0; stroke-linejoin: miter; stroke-miterlimit: 4; fill: rgb(108,99,255); fill-rule: nonzero; opacity: 1;" vector-effect="non-scaling-stroke"  transform=" translate(-672.09, -425.11)" d="M 683.89221 413.7432 L 677.28153 416.29336 L 674.8741699999999 405.23516 C 674.6977536823615 404.425687287868 673.8985327121319 403.9124936823615 673.0890599999999 404.08891 C 672.2795872878679 404.2653263176385 671.7663936823615 405.06454728786804 671.9428099999999 405.87402000000003 L 674.4490299999999 417.38602000000003 L 666.0926999999999 420.60959 L 663.68517 409.55145000000005 C 663.5087536823615 408.74197728786805 662.7095327121319 408.22878368236155 661.9000599999999 408.40520000000004 C 661.090587287868 408.5816163176385 660.5773936823615 409.3808372878681 660.7538099999999 410.19031000000007 L 663.26015 421.70231000000007 L 657.53627 423.9103800000001 C 656.7633474926117 424.2085419678912 656.3784780321088 425.07682749261187 656.6766399999999 425.8497500000001 C 656.9748019678912 426.6226725073883 657.8430874926117 427.0075419678912 658.61601 426.70938000000007 L 663.9060099999999 424.66870000000006 L 665.7858799999999 433.30316000000005 L 659.2132899999999 435.83863 C 658.4403674926117 436.13679196789116 658.0554980321087 437.0050774926118 658.35366 437.778 C 658.6518219678911 438.55092250738824 659.5201074926117 438.93579196789113 660.2930299999999 438.63763 L 666.4316899999999 436.26955 L 668.3309199999999 444.99285 C 668.5072969545428 445.80214912273533 669.3062064449227 446.31535104914184 670.1155699999999 446.13926999999995 C 670.1913715344186 446.12247953429704 670.2658147978249 446.10005730759286 670.3382799999999 446.07219 C 671.0275289562834 445.8053210925233 671.4196565594608 445.07615047804336 671.2622799999999 444.35398999999995 L 669.2642799999999 435.17684999999994 L 677.6203799999998 431.95336999999995 L 679.5194899999998 440.67670999999996 C 679.6958669545427 441.4860091227353 680.4947764449226 441.9992110491418 681.3041399999998 441.82312999999994 C 681.3799447544579 441.80633936659905 681.454391329756 441.78391714914665 681.5268599999998 441.75604999999996 C 682.2161089562833 441.48918109252327 682.6082365594607 440.76001047804334 682.4508599999998 440.03784999999993 L 680.4529599999998 430.8606699999999 L 686.6490199999998 428.4704499999999 C 687.421942507388 428.1722880321088 687.806811967891 427.30400250738813 687.5086499999998 426.5310799999999 C 687.2104880321086 425.7581574926117 686.342202507388 425.3732880321088 685.5692799999998 425.67144999999994 L 679.8071999999999 427.8942599999999 L 677.9274399999998 419.25974999999994 L 684.9720399999998 416.5421999999999 C 685.744962507388 416.2440380321088 686.1298319678909 415.37575250738814 685.8316699999998 414.6028299999999 C 685.5335080321086 413.8299074926117 684.665222507388 413.4450380321088 683.8922999999998 413.74319999999994 Z M 676.97455 428.98692 L 668.61839 432.21042 L 666.73852 423.57596 L 675.09479 420.35241 Z" stroke-linecap="round" />
</g>
		<g transform="matrix(1 0 0 1 143.43 -55.21)"  >
<path style="stroke: none; stroke-width: 1; stroke-dasharray: none; stroke-linecap: butt; stroke-dashoffset: 0; stroke-linejoin: miter; stroke-miterlimit: 4; fill: rgb(158,97,106); fill-rule: nonzero; opacity: 1;" vector-effect="non-scaling-stroke"  transform=" translate(-742.97, -394.65)" d="M 729.72837 425.858 C 731.789969506576 424.9829736706928 733.3580984205064 423.23972711399756 734.0108023353985 421.0973356460395 C 734.6635062502905 418.95494417808146 734.3337372294117 416.6334814407102 733.11023 414.75761 L 766.83214 363.86838 L 752.89735 362.8091 L 722.14135 412.78939 C 719.0585436533576 415.1044940606255 718.1945231934033 419.3594793520214 720.1301861769302 422.69363750613275 C 722.0658491604572 426.02779566024407 726.189358656312 427.387244306869 729.7284 425.858 Z" stroke-linecap="round" />
</g>
		<g transform="matrix(1 0 0 1 150.99 -96.01)"  >
<path style="stroke: none; stroke-width: 1; stroke-dasharray: none; stroke-linecap: butt; stroke-dashoffset: 0; stroke-linejoin: miter; stroke-miterlimit: 4; fill: rgb(108,99,255); fill-rule: nonzero; opacity: 1;" vector-effect="non-scaling-stroke"  transform=" translate(-750.53, -353.84)" d="M 749.11737 313.225 C 749.11737 313.225 757.0035300000001 307.61631 764.29174 315.96037 C 771.5799499999999 324.30443 770.9714 358.82545 771.03988 364.39246 C 771.06133 366.13570000000004 768.54407 369.89722 765.07588 374.24209 C 763.51888 376.19269 761.77023 378.26087 759.9736 380.31678 C 758.9339200000001 381.50651 759.8297600000001 383.98284 758.78578 385.1392 C 757.7475400000001 386.2892 754.76934 386.11955 753.78178 387.18690000000004 C 749.09424 392.25319 745.2861300000001 396.10968 745.2861300000001 396.10968 L 730.0260400000001 396.29734 C 729.8538800000001 384.95328 737.6224500000001 374.82743000000005 747.60283 365.04088 Z" stroke-linecap="round" />
</g>
		<g transform="matrix(1 0 0 1 0 199.55)"  >
<path style="stroke: none; stroke-width: 1; stroke-dasharray: none; stroke-linecap: butt; stroke-dashoffset: 0; stroke-linejoin: miter; stroke-miterlimit: 4; fill: rgb(202,202,202); fill-rule: nonzero; opacity: 1;" vector-effect="non-scaling-stroke"  transform=" translate(-599.54, -649.4)" d="M 973.91108 650.43785 L 225.16107999999997 650.74518 C 224.50482998123485 650.7432781715289 223.9738406340088 650.2107477745319 223.9738406340088 649.5544950000001 C 223.9738406340088 648.8982422254682 224.50482998123485 648.3657118284711 225.16107999999997 648.3638100000001 L 973.91108 648.0564800000001 C 974.337292744925 648.0552448251279 974.7316591018955 648.2819175847418 974.9451228345316 648.6508241643016 C 975.1585865671678 649.0197307438615 975.1585865671678 649.4745992561386 974.9451228345316 649.8435058356985 C 974.7316591018955 650.2124124152583 974.337292744925 650.4390851748722 973.91108 650.43785 Z" stroke-linecap="round" />
</g>
		<g transform="matrix(1 0 0 1 -146.23 -99.28)"  >
<path style="stroke: none; stroke-width: 1; stroke-dasharray: none; stroke-linecap: butt; stroke-dashoffset: 0; stroke-linejoin: miter; stroke-miterlimit: 4; fill: rgb(255,255,255); fill-rule: nonzero; opacity: 1;" vector-effect="non-scaling-stroke"  transform=" translate(-453.31, -350.57)" d="M 572.7902 387.35088 L 333.82012 387.35088 C 330.8955329302747 387.347540464522 328.525519535478 384.9775270697253 328.52218 382.05294000000004 L 328.52218 319.08764 C 328.52553624523887 316.1630922511995 330.895572126581 313.79314583994875 333.82012 313.78990000000005 L 572.7902 313.78990000000005 C 575.714747873419 313.79314583994875 578.0847837547612 316.1630922511995 578.0881400000001 319.08764 L 578.0881400000001 382.05294000000004 C 578.0848004645221 384.9775270697253 575.7147870697253 387.34754046452207 572.7902 387.35088 Z" stroke-linecap="round" />
</g>
		<g transform="matrix(1 0 0 1 -146.23 -99.28)"  >
<path style="stroke: none; stroke-width: 1; stroke-dasharray: none; stroke-linecap: butt; stroke-dashoffset: 0; stroke-linejoin: miter; stroke-miterlimit: 4; fill: rgb(204,204,204); fill-rule: nonzero; opacity: 1;" vector-effect="non-scaling-stroke"  transform=" translate(-453.31, -350.57)" d="M 572.79043 388.35093 L 333.82022 388.35093 C 330.34364300646723 388.34699523440736 327.5263002858483 385.5296569872806 327.52236 382.05308 L 327.52236 319.08775 C 327.5263002858483 315.61117301271946 330.34364300646723 312.7938347655927 333.82022 312.78990000000005 L 572.79043 312.78990000000005 C 576.2670030882915 312.7938402751842 579.0843397248159 315.6111769117085 579.08828 319.08775 L 579.08828 382.05308 C 579.0843397248159 385.5296530882915 576.2670030882915 388.34698972481584 572.79043 388.35093 Z M 333.82022 314.78993 C 331.4477555152198 314.7927622503441 329.52519777045694 316.71531552181614 329.52236 319.08778 L 329.52236 382.05311 C 329.52519777045694 384.4255744781839 331.4477555152198 386.34812774965593 333.82022 386.35096 L 572.79043 386.35096 C 575.1628905795394 386.3481222407948 577.0854422407948 384.4255705795394 577.08828 382.05311 L 577.08828 319.08775 C 577.0854422407948 316.71528942046064 575.1628905795394 314.79273775920524 572.79043 314.78990000000005 Z" stroke-linecap="round" />
</g>
		<g transform="matrix(1 0 0 1 -146.23 -95.71)"  >
<path style="stroke: none; stroke-width: 1; stroke-dasharray: none; stroke-linecap: butt; stroke-dashoffset: 0; stroke-linejoin: miter; stroke-miterlimit: 4; fill: rgb(108,99,255); fill-rule: nonzero; opacity: 1;" vector-effect="non-scaling-stroke"  transform=" translate(-453.3, -354.14)" d="M 558.50574 356.70205 L 348.10362 356.70205 C 346.68977104043313 356.70205 345.54362 355.55589895956683 345.54362 354.14205 C 345.54362 352.72820104043313 346.68977104043313 351.58205 348.10362 351.58205 L 558.50574 351.58205 C 559.9195889595668 351.58205 561.0657399999999 352.72820104043313 561.06574 354.14205 C 561.06574 355.55589895956683 559.9195889595668 356.70205 558.50574 356.70205 Z" stroke-linecap="round" />
</g>
		<g transform="matrix(1 0 0 1 -156.69 -85.59)"  >
<path style="stroke: none; stroke-width: 1; stroke-dasharray: none; stroke-linecap: butt; stroke-dashoffset: 0; stroke-linejoin: miter; stroke-miterlimit: 4; fill: rgb(108,99,255); fill-rule: nonzero; opacity: 1;" vector-effect="non-scaling-stroke"  transform=" translate(-442.85, -364.26)" d="M 537.59969 366.818 L 348.10362 366.818 C 346.69166652332575 366.8152094595815 345.5485297900126 365.6698112342396 345.5485297900126 364.25785499999995 C 345.5485297900126 362.84589876576035 346.69166652332575 361.70050054041843 348.10362 361.69771 L 537.59969 361.69771 C 539.0136190408556 361.69771 540.159835 362.8439259591444 540.159835 364.25785499999995 C 540.159835 365.6717840408555 539.0136190408556 366.818 537.59969 366.818 Z" stroke-linecap="round" />
</g>
		<g transform="matrix(1 0 0 1 -240.5 -116.74)"  >
<circle style="stroke: none; stroke-width: 1; stroke-dasharray: none; stroke-linecap: butt; stroke-dashoffset: 0; stroke-linejoin: miter; stroke-miterlimit: 4; fill: rgb(108,99,255); fill-rule: nonzero; opacity: 1;" vector-effect="non-scaling-stroke"  cx="0" cy="0" r="13" />
</g>
		<g transform="matrix(1 0 0 1 -240.75 -117.32)"  >
<path style="stroke: none; stroke-width: 1; stroke-dasharray: none; stroke-linecap: butt; stroke-dashoffset: 0; stroke-linejoin: miter; stroke-miterlimit: 4; fill: rgb(242,242,242); fill-rule: nonzero; opacity: 1;" vector-effect="non-scaling-stroke"  transform=" translate(-358.79, -332.53)" d="M 364.28452 327.23113 L 361.20295 328.41989 L 360.08074999999997 323.26509 C 360.0280333948373 323.02049719898093 359.8486481284943 322.8227102846924 359.61034868575626 322.74643411304635 C 359.3720492430183 322.6701579414003 359.11115523474444 322.7270178894442 358.92620730183876 322.89553774253017 C 358.7412593689331 323.0640575956162 358.66044573070127 323.31855296516244 358.71428999999995 323.5629 L 359.88256999999993 328.92924 L 355.98725999999994 330.43192 L 354.86497999999995 325.27715 C 354.78274480075015 324.89981525179684 354.4101897482031 324.6605898007502 354.0328549999999 324.74282500000004 C 353.6555202517968 324.82506019924983 353.41629480075017 325.19761525179683 353.49852999999996 325.57495 L 354.66686 330.94128 L 351.99866 331.97057 C 351.63883823522707 332.1098747439841 351.45986428146824 332.5143146025606 351.5987372229567 332.8743032415801 C 351.7376101644452 333.2342918805995 352.14183500491635 333.4137509390934 352.50199 333.27531 L 354.96790999999996 332.32405 L 355.84421 336.34905 L 352.78038999999995 337.53096999999997 C 352.4200987591766 337.6699579801424 352.2406970198575 338.0747037591766 352.37968499999994 338.43499499999996 C 352.51867298014236 338.7952862408233 352.92341875917657 338.9746879801424 353.2837099999999 338.8357 L 356.14525999999995 337.73181999999997 L 357.03057999999993 341.79819999999995 C 357.1128022307074 342.17545414561914 357.485215050236 342.4146807668761 357.86249999999995 342.33259999999996 C 357.89783606100457 342.3247769605458 357.9325390829565 342.3143279481569 357.96631999999994 342.30134 C 358.2876352621047 342.1769294060449 358.4704281926551 341.83699363020247 358.39703999999995 341.50034 L 357.46565999999996 337.22240999999997 L 361.36087 335.71977999999996 L 362.24613999999997 339.78616999999997 C 362.32835268842217 340.16343161877217 362.70077082427156 340.40266613168114 363.07806 340.32057999999995 C 363.1133963091353 340.31275362950475 363.1480993309139 340.3023012745537 363.18188 340.28930999999994 C 363.5031703763798 340.164906029515 363.6859554791643 339.82500238152863 363.61258999999995 339.4883699999999 L 362.6812699999999 335.2103699999999 L 365.56956999999994 334.0961699999999 C 365.80326931966783 334.006705880218 365.9713441214426 333.79917506757556 366.0102927041031 333.55198645810833 C 366.0492412867636 333.3047978486411 365.95312528721536 333.0556394816965 365.7582590691907 332.898647896526 C 365.563392851166 332.7416563113554 365.2994870300052 332.7007675018216 365.06624999999997 332.79142999999993 L 362.38025 333.82759999999996 L 361.50399999999996 329.8026 L 364.78785999999997 328.53580999999997 C 365.14768176477287 328.39650525601587 365.3266557185317 327.9920653974394 365.18778277704325 327.6320767584199 C 365.04890983555475 327.27208811940045 364.6446849950836 327.0926290609066 364.28452999999996 327.23107 Z M 361.05985 334.33701 L 357.16461 335.83965 L 356.28830999999997 331.81465000000003 L 360.18359 330.31199000000004 Z" stroke-linecap="round" />
</g>
		<g transform="matrix(1 0 0 1 98.91 135.16)"  >
<path style="stroke: none; stroke-width: 1; stroke-dasharray: none; stroke-linecap: butt; stroke-dashoffset: 0; stroke-linejoin: miter; stroke-miterlimit: 4; fill: rgb(47,46,65); fill-rule: nonzero; opacity: 1;" vector-effect="non-scaling-stroke"  transform=" translate(-698.45, -585.01)" d="M 706.41011 594.51392 L 690.41011 594.51392 C 686.5441167511844 594.51392 683.41011 591.3799132488156 683.41011 587.51392 L 683.41011 587.51392 C 683.41011 583.6479267511844 686.5441167511844 580.51392 690.41011 580.51392 L 710.41011 575.51392 C 714.27611 575.51392 713.41011 583.64792 713.41011 587.51392 L 713.41011 587.51392 C 713.41011 591.3799132488156 710.2761032488156 594.51392 706.41011 594.51392 Z" stroke-linecap="round" />
</g>
		<g transform="matrix(1 0 0 1 155.83 135.16)"  >
<path style="stroke: none; stroke-width: 1; stroke-dasharray: none; stroke-linecap: butt; stroke-dashoffset: 0; stroke-linejoin: miter; stroke-miterlimit: 4; fill: rgb(47,46,65); fill-rule: nonzero; opacity: 1;" vector-effect="non-scaling-stroke"  transform=" translate(-755.37, -585.01)" d="M 763.41011 594.51392 L 747.41011 594.51392 C 743.5441167511844 594.51392 740.41011 591.3799132488156 740.41011 587.51392 L 740.41011 587.51392 C 740.41011 583.64792 739.54411 575.51392 743.41011 575.51392 L 763.41011 580.51392 C 767.2761032488156 580.51392 770.41011 583.6479267511844 770.41011 587.51392 L 770.41011 587.51392 C 770.41011 591.3799132488156 767.2761032488156 594.51392 763.41011 594.51392 Z" stroke-linecap="round" />
</g>
</g>
</g>
</svg>